<svg width="369" height="365" viewBox="0 0 369 365" fill="none" xmlns="http://www.w3.org/2000/svg">
<path d="M180.463 191.822C112.177 191.822 50.0572 200.554 3.75391 214.824C19.8693 298.542 93.931 361.809 182.859 361.809C271.786 361.809 345.005 299.257 361.68 216.246C314.938 201.134 250.989 191.822 180.463 191.822Z" fill="#182228"/>
<path d="M143.364 263.331C117.013 281.889 92.5087 302.213 68.9854 322.158C85.7963 335.677 105.136 345.934 126.093 352.602C118.342 325.424 125.339 292.507 143.364 263.331Z" fill="#2B3F4B"/>
<path d="M239.87 210.678C224.927 216.244 210.464 222.898 196.437 230.364C168.985 256.461 152.115 326.914 167.62 361.062C180.569 362.306 193.671 362.318 206.639 361.066C190.364 321.865 211.219 239.458 239.87 210.678Z" fill="#2B3F4B"/>
<path d="M285.572 197.632C269.846 200.742 254.625 205.181 239.873 210.676C211.222 239.456 190.369 321.863 206.642 361.064C221.328 359.648 235.845 356.611 249.774 351.912C233.053 311.951 255.95 224.841 285.572 197.632Z" fill="#141F26"/>
<path d="M196.438 230.362C178.024 240.163 160.362 251.361 143.364 263.331C125.34 292.507 118.342 325.424 126.093 352.602C139.504 356.868 153.471 359.699 167.621 361.06C152.115 326.912 168.986 256.459 196.438 230.362Z" fill="#141F26"/>
<path d="M346.701 192.69C333.711 225.483 325.077 265.938 333.368 289.952C350.662 264.815 361.918 232.893 364.001 193.857C358.171 193.276 352.405 192.892 346.701 192.692V192.69Z" fill="#2B3F4B"/>
<path d="M346.702 192.69C336.24 192.322 325.988 192.579 315.936 193.397C294.561 229.249 281.106 295.997 294.057 329.614C309.052 319.058 322.421 305.866 333.368 289.95C325.077 265.936 333.711 225.483 346.702 192.688V192.69Z" fill="#141F26"/>
<path d="M315.937 193.397C305.607 194.237 295.489 195.669 285.572 197.632C255.952 224.843 233.052 311.951 249.774 351.913C265.478 346.614 280.438 339.201 294.056 329.614C281.105 295.997 294.56 229.249 315.935 193.397H315.937Z" fill="#2B3F4B"/>
<path d="M368 182.5C368 282.729 285.855 364 184.5 364C83.1454 364 1 282.729 1 182.5C1 82.2706 83.1454 1 184.5 1C285.855 1 368 82.2706 368 182.5Z" stroke="url(#paint0_linear_71_3066)" stroke-width="2"/>
<path d="M239.959 203.274C248.717 195.1 249.191 181.376 241.018 172.619C238.826 170.27 236.234 168.524 233.447 167.374C239.089 161.79 239.305 152.695 233.853 146.853C228.983 141.635 221.212 140.747 215.359 144.351C215.375 139.348 213.565 134.33 209.884 130.383C203.627 123.679 193.91 122.142 186.073 125.952C178.297 119.112 166.45 119.157 158.719 126.372C150.488 134.053 150.043 146.952 157.724 155.183C158.909 156.453 160.22 157.537 161.619 158.435C159.002 163.768 159.779 170.385 164.074 174.986C164.206 175.129 164.345 175.265 164.481 175.402C161.623 181.858 162.691 189.672 167.812 195.161C171.741 199.373 177.203 201.292 182.532 200.872C182.433 204.603 183.74 208.373 186.488 211.319C192.041 217.269 201.368 217.592 207.318 212.037C209.599 209.908 211.049 207.226 211.662 204.393C219.931 210.987 231.999 210.706 239.961 203.274H239.959ZM189.55 163.94C189.691 163.98 189.833 164.014 189.974 164.049C189.837 164.186 189.707 164.326 189.574 164.467C189.568 164.291 189.562 164.116 189.55 163.942V163.94Z" fill="#29554A"/>
<path d="M164.481 146.715C163.938 146.715 163.372 146.652 162.808 146.497C159.944 145.708 158.29 142.86 158.221 142.739C158.163 142.638 158.147 142.519 158.179 142.407C158.211 142.294 158.284 142.199 158.385 142.144C158.506 142.074 161.39 140.474 164.25 141.265C167.112 142.055 168.768 144.903 168.837 145.024C168.895 145.125 168.911 145.243 168.879 145.356C168.849 145.469 168.774 145.564 168.673 145.621C168.576 145.677 166.699 146.717 164.481 146.717V146.715ZM159.233 142.696C159.77 143.461 161.119 145.127 163.039 145.655C164.966 146.185 166.976 145.447 167.825 145.063C167.29 144.298 165.939 142.632 164.019 142.104C162.096 141.576 160.084 142.314 159.233 142.696Z" fill="#326559"/>
<path d="M170.036 178.949C169.675 178.949 169.308 178.921 168.936 178.856C166.018 178.353 164.064 175.845 163.982 175.738C163.909 175.641 163.878 175.519 163.899 175.398C163.919 175.279 163.99 175.172 164.091 175.107C164.204 175.034 166.88 173.321 169.8 173.825C172.718 174.328 174.672 176.836 174.753 176.941C174.827 177.038 174.858 177.16 174.836 177.281C174.817 177.402 174.745 177.507 174.645 177.572C174.546 177.635 172.494 178.947 170.036 178.947V178.949ZM165.007 175.592C165.646 176.274 167.149 177.665 169.084 177.999C171.015 178.329 172.898 177.524 173.729 177.093C173.09 176.409 171.586 175.02 169.654 174.688C167.719 174.355 165.836 175.16 165.009 175.592H165.007Z" fill="#326559"/>
<path d="M190.75 159.597C190.711 159.597 190.669 159.591 190.63 159.579C190.513 159.545 190.414 159.464 190.361 159.355C190.299 159.237 188.889 156.386 189.704 153.54C190.519 150.693 193.223 149.023 193.338 148.952C193.443 148.889 193.567 148.871 193.684 148.907C193.801 148.94 193.9 149.022 193.953 149.13C194.014 149.249 195.425 152.1 194.61 154.946C193.795 157.793 191.091 159.462 190.976 159.531C190.907 159.573 190.828 159.595 190.749 159.595L190.75 159.597ZM193.375 149.991C192.628 150.551 191.083 151.896 190.543 153.781C190.001 155.672 190.6 157.626 190.94 158.497C191.688 157.937 193.233 156.59 193.773 154.705C194.313 152.82 193.714 150.861 193.375 149.989V149.991Z" fill="#326559"/>
<path d="M209.5 178.605C209.391 178.605 209.286 178.565 209.205 178.49C209.116 178.407 209.064 178.292 209.062 178.171C209.062 178.037 209.066 174.858 211.064 172.672C213.062 170.486 216.227 170.196 216.362 170.186C216.479 170.172 216.603 170.215 216.692 170.298C216.781 170.381 216.833 170.496 216.835 170.617C216.835 170.751 216.829 173.93 214.833 176.116C212.835 178.302 209.67 178.593 209.535 178.603C209.523 178.603 209.512 178.603 209.498 178.603L209.5 178.605ZM215.935 171.127C215.015 171.295 213.033 171.812 211.709 173.26C210.382 174.712 210.048 176.729 209.963 177.659C210.882 177.491 212.864 176.975 214.188 175.527C215.515 174.075 215.85 172.057 215.935 171.127Z" fill="#326559"/>
<path d="M191.874 126.336C191.136 126.336 188.466 126.213 186.494 124.548C184.231 122.637 183.817 119.486 183.801 119.353C183.786 119.233 183.823 119.11 183.9 119.019C183.979 118.926 184.092 118.871 184.213 118.865C184.347 118.859 187.524 118.74 189.785 120.651C192.048 122.562 192.462 125.713 192.478 125.846C192.493 125.966 192.456 126.087 192.379 126.18C192.3 126.273 192.187 126.328 192.066 126.334C192.048 126.334 191.983 126.338 191.874 126.338V126.336ZM184.759 119.743C184.963 120.655 185.556 122.615 187.055 123.881C188.553 125.145 190.586 125.404 191.52 125.452C191.314 124.54 190.721 122.58 189.223 121.314C187.726 120.05 185.694 119.792 184.759 119.743Z" fill="#326559"/>
<path d="M210.441 144.711C210.012 144.711 209.735 144.683 209.698 144.68C209.577 144.666 209.466 144.602 209.395 144.505C209.322 144.407 209.294 144.284 209.318 144.165C209.344 144.033 209.961 140.915 212.34 139.155C214.722 137.394 217.885 137.718 218.018 137.732C218.138 137.746 218.249 137.809 218.32 137.906C218.394 138.005 218.421 138.128 218.398 138.247C218.372 138.379 217.755 141.497 215.375 143.257C213.662 144.523 211.545 144.711 210.441 144.711ZM210.299 143.835C211.231 143.851 213.278 143.722 214.857 142.555C216.439 141.386 217.155 139.469 217.416 138.573C216.485 138.561 214.437 138.686 212.859 139.853C211.276 141.022 210.56 142.937 210.299 143.835Z" fill="#326559"/>
<path d="M196.706 210.461C196.662 210.461 196.62 210.455 196.579 210.441C196.45 210.401 193.416 209.45 191.924 206.894C190.433 204.336 191.095 201.227 191.125 201.096C191.151 200.977 191.226 200.875 191.331 200.813C191.436 200.752 191.562 200.738 191.677 200.774C191.806 200.813 194.838 201.765 196.332 204.321C197.823 206.878 197.16 209.988 197.131 210.118C197.105 210.237 197.03 210.34 196.925 210.401C196.858 210.441 196.783 210.461 196.706 210.461ZM191.897 201.787C191.784 202.716 191.687 204.762 192.676 206.455C193.667 208.154 195.495 209.074 196.357 209.43C196.47 208.502 196.567 206.455 195.578 204.762C194.589 203.068 192.761 202.147 191.897 201.787Z" fill="#326559"/>
<path d="M31.9485 202.785C42.6661 208.136 55.6921 203.786 61.043 193.068C62.4771 190.194 63.2091 187.156 63.3139 184.143C70.5183 187.48 79.1153 184.505 82.6839 177.354C85.8726 170.969 83.9914 163.376 78.5693 159.153C83.2615 157.42 87.3325 153.972 89.7439 149.144C93.8406 140.94 91.8862 131.297 85.5799 125.285C89.2731 115.61 85.0932 104.525 75.6338 99.8009C65.5611 94.7725 53.3203 98.8593 48.2899 108.932C47.5145 110.487 46.9566 112.093 46.6026 113.717C40.6919 113.128 34.7614 116.168 31.9505 121.8C31.8634 121.974 31.7843 122.15 31.7032 122.326C24.6551 121.903 17.7059 125.633 14.3529 132.349C11.7793 137.502 11.8881 143.29 14.1432 148.135C10.6122 149.345 7.53623 151.887 5.73612 155.49C2.1003 162.771 5.05564 171.623 12.3372 175.259C15.1283 176.652 18.147 177.075 21.0173 176.66C17.7276 186.711 22.2061 197.921 31.9505 202.787L31.9485 202.785ZM51.1978 141.813C51.2096 141.959 51.2294 142.104 51.2453 142.248C51.0692 142.169 50.8912 142.094 50.7151 142.018C50.8773 141.951 51.0395 141.886 51.1998 141.813H51.1978Z" fill="#29554A"/>
<path d="M61.3554 115.953C61.2525 115.953 61.1536 115.917 61.0745 115.85C60.9677 115.761 58.4634 113.618 58.2022 110.661C57.9411 107.702 60.032 105.156 60.121 105.049C60.1962 104.96 60.303 104.905 60.4178 104.895C60.5305 104.883 60.6472 104.92 60.7362 104.996C60.8431 105.085 63.3474 107.227 63.6085 110.184C63.8696 113.144 61.7787 115.689 61.6877 115.796C61.6145 115.885 61.5057 115.941 61.391 115.951C61.3791 115.951 61.3653 115.951 61.3534 115.951L61.3554 115.953ZM60.5147 105.983C59.9845 106.75 58.8946 108.598 59.0706 110.584C59.2447 112.568 60.6413 114.196 61.2961 114.861C61.8262 114.091 62.9142 112.246 62.7401 110.259C62.564 108.267 61.1695 106.643 60.5147 105.981V105.983Z" fill="#326559"/>
<path d="M33.475 132.694C33.382 132.694 33.291 132.664 33.2158 132.609C33.109 132.529 30.5691 130.617 30.0191 127.707C29.4692 124.797 31.1388 122.091 31.21 121.976C31.2753 121.873 31.3801 121.802 31.4988 121.78C31.6195 121.758 31.7421 121.786 31.839 121.859C31.9459 121.938 34.4858 123.851 35.0337 126.761C35.5837 129.671 33.9141 132.377 33.8429 132.492C33.7776 132.595 33.6728 132.666 33.5541 132.688C33.5264 132.694 33.5007 132.696 33.473 132.696L33.475 132.694ZM31.7085 122.884C31.2911 123.721 30.5137 125.616 30.8777 127.543C31.2416 129.477 32.656 130.955 33.3484 131.58C33.7657 130.743 34.5432 128.848 34.1792 126.919C33.8152 124.993 32.4028 123.511 31.7085 122.882V122.884Z" fill="#326559"/>
<path d="M60.9046 143.433C58.1689 143.433 55.9257 141.688 55.8267 141.611C55.7318 141.536 55.6705 141.423 55.6626 141.302C55.6527 141.182 55.6942 141.061 55.7773 140.972C55.8683 140.873 58.0442 138.557 60.9976 138.325C63.9431 138.096 66.4593 140.046 66.5641 140.129C66.6591 140.205 66.7204 140.317 66.7283 140.438C66.7382 140.559 66.6966 140.679 66.6136 140.768C66.5226 140.867 64.3466 143.184 61.3932 143.415C61.2291 143.427 61.0649 143.433 60.9046 143.433ZM56.7842 141.213C57.5715 141.718 59.3755 142.699 61.326 142.543C63.2883 142.388 64.9104 141.146 65.6067 140.523C64.8194 140.017 63.0213 139.036 61.0649 139.194C59.1105 139.346 57.4844 140.59 56.7842 141.213Z" fill="#326559"/>
<path d="M51.316 170.247C50.4673 170.247 49.5297 170.122 48.6198 169.756C45.8741 168.648 44.4973 165.782 44.438 165.661C44.3865 165.55 44.3826 165.424 44.4281 165.311C44.4736 165.198 44.5646 165.109 44.6773 165.066C44.8039 165.018 47.785 163.914 50.5287 165.02C53.2743 166.128 54.6531 168.994 54.7105 169.115C54.7619 169.226 54.7658 169.352 54.7203 169.465C54.6749 169.578 54.5839 169.667 54.4711 169.71C54.388 169.742 53.0271 170.247 51.314 170.247H51.316ZM45.4725 165.732C45.9512 166.536 47.1282 168.213 48.9462 168.947C50.772 169.685 52.7778 169.291 53.6779 169.046C53.1992 168.243 52.0222 166.565 50.2042 165.831C48.3863 165.097 46.3765 165.489 45.4725 165.732Z" fill="#326559"/>
<path d="M87.7186 131.299C87.6691 131.299 87.6197 131.291 87.5702 131.273C87.4555 131.232 87.3645 131.145 87.315 131.034C87.2636 130.911 86.0411 127.976 87.0421 125.189C88.041 122.401 90.85 120.912 90.9706 120.85C91.0775 120.793 91.206 120.785 91.3188 120.827C91.4335 120.868 91.5245 120.955 91.574 121.066C91.6254 121.189 92.8479 124.124 91.847 126.911C90.848 129.699 88.039 131.188 87.9184 131.25C87.8551 131.283 87.7858 131.299 87.7166 131.299H87.7186ZM90.939 121.885C90.1556 122.395 88.5257 123.638 87.863 125.483C87.2003 127.329 87.6691 129.323 87.95 130.215C88.7334 129.705 90.3633 128.464 91.026 126.617C91.6887 124.771 91.2199 122.777 90.939 121.885Z" fill="#326559"/>
<path d="M84.0115 159.962C82.8405 159.962 81.0997 159.763 79.5983 158.785C77.1177 157.169 76.3166 154.093 76.2829 153.963C76.2533 153.844 76.273 153.719 76.3403 153.618C76.4076 153.518 76.5124 153.446 76.6331 153.427C76.7656 153.405 79.9029 152.892 82.3835 154.509C84.8641 156.125 85.6653 159.201 85.6989 159.331C85.7286 159.45 85.7088 159.575 85.6415 159.675C85.5743 159.776 85.4694 159.848 85.3488 159.867C85.2973 159.877 84.7751 159.962 84.0096 159.962H84.0115ZM77.2859 154.232C77.6024 155.112 78.4332 156.985 80.077 158.055C81.7248 159.13 83.7702 159.131 84.7019 159.064C84.3854 158.184 83.5546 156.311 81.9108 155.24C80.263 154.166 78.2176 154.162 77.2859 154.232Z" fill="#326559"/>
<path d="M10.5155 165.048C10.4147 165.048 10.3177 165.014 10.2386 164.949C10.1437 164.872 10.0863 164.759 10.0803 164.638C10.0724 164.504 9.90429 161.329 11.7796 159.038C13.6549 156.748 16.8001 156.285 16.9326 156.265C17.0533 156.247 17.1759 156.283 17.2689 156.36C17.3639 156.437 17.4212 156.55 17.4272 156.671C17.4351 156.805 17.6032 159.98 15.7279 162.271C13.8527 164.563 10.7074 165.026 10.5749 165.044C10.5551 165.048 10.5353 165.048 10.5136 165.048H10.5155ZM16.5548 157.23C15.6449 157.45 13.6944 158.073 12.4521 159.59C11.2099 161.108 10.9844 163.143 10.9507 164.079C11.8607 163.861 13.8111 163.236 15.0534 161.719C16.2957 160.202 16.5212 158.166 16.5548 157.23Z" fill="#326559"/>
<path d="M240.072 174.897C238.701 186.798 247.239 197.555 259.14 198.926C262.33 199.294 265.436 198.942 268.304 198.012C267.628 205.923 273.36 212.987 281.299 213.9C288.39 214.717 294.883 210.356 297.001 203.818C300.231 207.638 304.864 210.284 310.225 210.902C319.334 211.95 327.73 206.823 331.227 198.841C341.581 199.007 350.573 191.294 351.782 180.79C353.07 169.606 345.046 159.496 333.862 158.208C332.135 158.01 330.436 158.034 328.788 158.255C327.324 152.499 322.442 147.963 316.189 147.243C315.995 147.221 315.801 147.205 315.61 147.192C313.6 140.424 307.721 135.165 300.265 134.306C294.544 133.647 289.14 135.726 285.356 139.499C283.012 136.593 279.574 134.569 275.572 134.11C267.485 133.178 260.176 138.98 259.244 147.065C258.888 150.163 259.521 153.146 260.892 155.702C250.323 156.042 241.314 164.079 240.07 174.899L240.072 174.897Z" fill="#29554A"/>
<path d="M334.999 173.636C333.371 173.636 332.073 173.177 331.988 173.147C331.879 173.107 331.79 173.026 331.741 172.921C331.691 172.817 331.687 172.696 331.727 172.587C331.774 172.457 332.932 169.371 335.624 168.117C338.316 166.86 341.424 167.958 341.554 168.006C341.663 168.045 341.752 168.126 341.802 168.231C341.851 168.336 341.855 168.457 341.816 168.566C341.768 168.696 340.611 171.78 337.919 173.036C336.945 173.489 335.919 173.636 334.999 173.636ZM332.732 172.459C333.636 172.694 335.743 173.088 337.551 172.245C339.357 171.402 340.411 169.537 340.811 168.692C339.907 168.457 337.8 168.063 335.994 168.906C334.182 169.751 333.131 171.616 332.734 172.459H332.732Z" fill="#326559"/>
<path d="M308.558 152.835C307.56 152.835 306.849 152.689 306.788 152.675C306.669 152.649 306.566 152.576 306.505 152.471C306.444 152.367 306.428 152.242 306.462 152.125C306.499 151.997 307.431 148.956 309.979 147.447C312.527 145.938 315.64 146.58 315.771 146.61C315.889 146.636 315.992 146.709 316.054 146.814C316.115 146.919 316.131 147.043 316.097 147.16C316.06 147.289 315.128 150.327 312.58 151.838C311.221 152.643 309.7 152.835 308.558 152.835ZM307.472 151.898C308.4 152.004 310.45 152.088 312.135 151.087C313.822 150.088 314.732 148.252 315.084 147.386C314.155 147.279 312.109 147.196 310.422 148.197C308.729 149.199 307.823 151.031 307.47 151.898H307.472Z" fill="#326559"/>
<path d="M310.37 186.335C310.313 186.335 310.255 186.323 310.202 186.302C310.077 186.25 307.156 184.996 305.931 182.3C304.707 179.604 305.682 176.579 305.726 176.45C305.763 176.336 305.848 176.241 305.959 176.191C306.07 176.142 306.196 176.14 306.309 176.185C306.434 176.237 309.355 177.491 310.58 180.187C311.804 182.883 310.829 185.908 310.786 186.036C310.748 186.151 310.663 186.246 310.552 186.296C310.495 186.321 310.433 186.335 310.372 186.335H310.37ZM306.424 177.216C306.218 178.128 305.913 180.153 306.724 181.938C307.535 183.722 309.26 184.826 310.083 185.271C310.289 184.359 310.594 182.333 309.783 180.549C308.972 178.765 307.247 177.661 306.424 177.216Z" fill="#326559"/>
<path d="M279.18 184.925C279.18 184.925 279.17 184.925 279.165 184.925C279.044 184.921 278.929 184.865 278.85 184.775C278.763 184.674 276.706 182.248 276.811 179.289C276.915 176.33 279.137 174.057 279.232 173.962C279.317 173.875 279.434 173.82 279.556 173.833C279.677 173.837 279.792 173.893 279.871 173.984C279.958 174.085 282.015 176.51 281.91 179.469C281.805 182.428 279.584 184.701 279.489 184.798C279.408 184.881 279.295 184.927 279.178 184.927L279.18 184.925ZM279.517 174.957C278.925 175.681 277.752 177.36 277.683 179.319C277.614 181.285 278.666 183.038 279.206 183.799C279.798 183.075 280.973 181.396 281.042 179.436C281.111 177.477 280.057 175.721 279.519 174.955L279.517 174.957Z" fill="#326559"/>
<path d="M331.813 205.286C328.864 205.286 326.518 203.165 326.419 203.076C326.33 202.993 326.278 202.878 326.278 202.756C326.278 202.635 326.328 202.518 326.417 202.435C326.516 202.344 328.856 200.194 331.817 200.182H331.843C334.792 200.182 337.138 202.301 337.237 202.392C337.326 202.475 337.378 202.59 337.378 202.712C337.378 202.833 337.328 202.95 337.239 203.033C337.14 203.124 334.8 205.274 331.839 205.286H331.813ZM327.404 202.752C328.148 203.312 329.863 204.415 331.815 204.415H331.837C333.805 204.407 335.514 203.286 336.254 202.718C335.51 202.158 333.795 201.056 331.843 201.056H331.821C329.853 201.064 328.144 202.186 327.404 202.754V202.752Z" fill="#326559"/>
<path d="M299.023 210.654C298.99 210.654 298.958 210.65 298.924 210.643C298.806 210.615 298.705 210.54 298.644 210.433C298.576 210.316 297.025 207.541 297.698 204.659C298.369 201.775 300.988 199.97 301.098 199.895C301.199 199.826 301.326 199.804 301.443 199.832C301.561 199.86 301.662 199.935 301.724 200.042C301.791 200.158 303.342 202.934 302.669 205.816C301.997 208.7 299.379 210.502 299.269 210.577C299.195 210.627 299.11 210.652 299.023 210.652V210.654ZM301.189 200.928C300.469 201.525 298.994 202.946 298.549 204.854C298.102 206.771 298.798 208.692 299.18 209.545C299.9 208.947 301.375 207.527 301.82 205.616C302.266 203.705 301.569 201.78 301.187 200.926L301.189 200.928Z" fill="#326559"/>
<path d="M274.936 146.193C274.194 146.193 273.399 146.094 272.613 145.817C269.82 144.838 268.309 142.039 268.247 141.92C268.19 141.813 268.18 141.687 268.222 141.572C268.261 141.457 268.348 141.364 268.459 141.317C268.582 141.263 271.509 140.021 274.303 141C277.098 141.979 278.607 144.778 278.668 144.897C278.726 145.004 278.736 145.13 278.694 145.245C278.654 145.36 278.567 145.453 278.457 145.5C278.368 145.538 276.831 146.191 274.936 146.191V146.193ZM269.282 141.944C269.798 142.723 271.05 144.345 272.902 144.994C274.759 145.645 276.746 145.162 277.634 144.873C277.117 144.094 275.865 142.472 274.014 141.823C272.156 141.172 270.17 141.657 269.282 141.944Z" fill="#326559"/>
<path d="M289.295 209.97C288.784 209.97 287.585 209.485 285.085 200.716C283.54 195.298 282.183 189 281.546 184.28C280.611 177.36 281.477 176.276 282.335 176.104C284.567 175.653 287.74 185.53 288.97 189.67C290.851 181.953 294.038 177.038 295.199 177.289C296.273 177.505 296.647 179.233 296.416 182.901C296.153 187.061 295.027 193.626 293.55 199.628C291.878 206.411 290.479 209.891 289.391 209.968C289.364 209.97 289.332 209.972 289.297 209.972L289.295 209.97ZM282.496 176.959C282.496 176.959 282.144 177.056 282.043 178.575C281.542 186.183 287.611 208.231 289.328 209.084C291.018 208.079 296.307 186.699 295.538 179.617C295.433 178.654 295.225 178.272 295.083 178.171C294.24 178.672 291.134 183.378 289.445 191.514C289.403 191.712 289.233 191.854 289.031 191.86C288.822 191.876 288.65 191.733 288.596 191.541C285.791 181.445 283.198 177 282.494 176.961L282.496 176.959Z" fill="#363E44"/>
<path d="M279.271 218.62C279.24 218.296 279.22 214.462 279.22 214.128C279.22 208.451 283.823 203.848 289.5 203.848C295.177 203.848 299.781 208.451 299.781 214.128C299.781 214.46 299.761 218.294 299.729 218.62H279.271Z" fill="#D87355"/>
<path d="M296.447 211.576H291.332C291.09 211.576 290.896 211.38 290.896 211.141C290.896 210.901 291.092 210.706 291.332 210.706H296.447C296.688 210.706 296.882 210.901 296.882 211.141C296.882 211.38 296.686 211.576 296.447 211.576Z" fill="#363E44"/>
<path d="M286.175 215.687H281.059C280.818 215.687 280.624 215.491 280.624 215.252C280.624 215.012 280.82 214.816 281.059 214.816H286.175C286.416 214.816 286.61 215.012 286.61 215.252C286.61 215.491 286.414 215.687 286.175 215.687Z" fill="#363E44"/>
<path d="M100.621 314.032C100.11 314.032 98.9097 313.548 96.4093 304.777C94.8644 299.357 93.5074 293.058 92.8704 288.338C91.9347 281.423 92.8012 280.339 93.6597 280.167C95.889 279.712 99.064 289.592 100.294 293.733C102.176 286.016 105.358 281.096 106.524 281.351C107.598 281.567 107.972 283.296 107.74 286.963C107.477 291.123 106.351 297.689 104.874 303.691C103.202 310.474 101.804 313.953 100.716 314.03C100.688 314.032 100.656 314.034 100.621 314.034V314.032ZM93.8219 281.021C93.8219 281.021 93.4698 281.118 93.3689 282.637C92.8684 290.245 98.9374 312.296 100.654 313.146C102.344 312.141 107.633 290.761 106.864 283.68C106.759 282.716 106.551 282.335 106.409 282.234C105.566 282.734 102.46 287.44 100.771 295.576C100.73 295.774 100.559 295.917 100.358 295.922C100.162 295.936 99.9779 295.796 99.9225 295.604C97.1175 285.508 94.5241 281.063 93.8199 281.023L93.8219 281.021Z" fill="#363E44"/>
<path d="M90.5973 322.683C90.5657 322.358 90.5459 318.525 90.5459 318.19C90.5459 312.513 95.149 307.91 100.826 307.91C106.504 307.91 111.107 312.513 111.107 318.19C111.107 318.523 111.087 322.356 111.055 322.683H90.5973Z" fill="#D87355"/>
<path d="M108.029 316.622H102.914C102.672 316.622 102.479 316.426 102.479 316.186C102.479 315.947 102.674 315.751 102.914 315.751H108.029C108.271 315.751 108.464 315.947 108.464 316.186C108.464 316.426 108.269 316.622 108.029 316.622Z" fill="#363E44"/>
<path d="M97.7587 320.73H92.6432C92.4019 320.73 92.208 320.534 92.208 320.295C92.208 320.056 92.4038 319.86 92.6432 319.86H97.7587C98 319.86 98.1939 320.056 98.1939 320.295C98.1939 320.534 97.998 320.73 97.7587 320.73Z" fill="#363E44"/>
<path d="M268.997 262.132C268.985 262.132 268.975 262.132 268.963 262.132L264.564 261.793C264.412 261.781 264.275 261.69 264.208 261.554C251.591 236.36 252.97 235.535 253.712 235.092C254.351 234.713 255.473 234.871 260.608 241.318C260.647 228.612 261.71 228.499 262.353 228.432C263.082 228.353 264.283 228.222 267.64 245.029C268.813 239.508 270.295 236.728 271.084 236.188C271.266 236.064 271.448 236.02 271.622 236.054C271.739 236.077 271.905 236.149 272.043 236.36C272.945 237.741 272.73 246.544 269.422 261.787C269.379 261.989 269.201 262.132 268.997 262.132ZM264.877 260.941L268.651 261.232C271.945 245.925 271.859 238.519 271.41 237.055C270.764 237.785 269.201 240.902 268.073 247.385C268.038 247.592 267.858 247.745 267.648 247.747H267.644C267.434 247.747 267.256 247.598 267.217 247.394C264.283 232.272 262.934 229.682 262.447 229.328C262.163 229.662 261.458 231.605 261.48 242.572C261.48 242.758 261.363 242.924 261.187 242.985C261.011 243.046 260.816 242.989 260.701 242.841C255.844 236.635 254.507 235.901 254.169 235.856C253.902 236.501 254.555 240.311 264.877 260.941Z" fill="#363E44"/>
<path d="M256.505 273.324C256.473 272.999 256.453 269.166 256.453 268.831C256.453 263.154 261.056 258.551 266.734 258.551C272.411 258.551 277.014 263.154 277.014 268.831C277.014 269.164 276.994 272.997 276.963 273.324H256.505Z" fill="#D87355"/>
<path d="M264.214 265.937H259.098C258.857 265.937 258.663 265.741 258.663 265.502C258.663 265.263 258.859 265.067 259.098 265.067H264.214C264.455 265.067 264.649 265.263 264.649 265.502C264.649 265.741 264.453 265.937 264.214 265.937Z" fill="#363E44"/>
<path d="M274.484 270.046H269.369C269.127 270.046 268.934 269.85 268.934 269.611C268.934 269.372 269.129 269.176 269.369 269.176H274.484C274.726 269.176 274.919 269.372 274.919 269.611C274.919 269.85 274.724 270.046 274.484 270.046Z" fill="#363E44"/>
<path d="M194.203 262.131C194.192 262.131 194.182 262.131 194.17 262.131L189.77 261.793C189.618 261.781 189.482 261.69 189.414 261.554C176.798 236.36 178.179 235.535 178.92 235.092C179.557 234.712 180.679 234.871 185.816 241.317C185.854 228.612 186.916 228.499 187.559 228.432C188.289 228.355 189.49 228.224 192.846 245.028C194.02 239.507 195.501 236.728 196.29 236.186C196.472 236.061 196.652 236.018 196.828 236.052C196.945 236.075 197.111 236.147 197.25 236.358C198.152 237.739 197.936 246.54 194.629 261.785C194.585 261.987 194.407 262.129 194.203 262.129V262.131ZM190.081 260.941L193.855 261.231C197.149 245.925 197.064 238.518 196.615 237.055C195.968 237.784 194.405 240.9 193.278 247.384C193.242 247.592 193.062 247.744 192.852 247.746H192.848C192.639 247.746 192.461 247.598 192.421 247.394C189.49 232.271 188.14 229.682 187.652 229.328C187.367 229.662 186.661 231.605 186.685 242.572C186.685 242.758 186.568 242.924 186.392 242.985C186.216 243.046 186.02 242.989 185.905 242.841C181.049 236.635 179.712 235.901 179.373 235.856C179.106 236.501 179.757 240.309 190.081 260.941Z" fill="#2D353A"/>
<path d="M181.709 273.324C181.677 272.999 181.657 269.166 181.657 268.831C181.657 263.154 186.26 258.551 191.938 258.551C197.615 258.551 202.218 263.154 202.218 268.831C202.218 269.164 202.198 272.997 202.167 273.324H181.709Z" fill="#D87355"/>
<path d="M189.419 265.937H184.303C184.062 265.937 183.868 265.741 183.868 265.502C183.868 265.263 184.064 265.067 184.303 265.067H189.419C189.66 265.067 189.854 265.263 189.854 265.502C189.854 265.741 189.658 265.937 189.419 265.937Z" fill="#363E44"/>
<path d="M199.688 270.046H194.573C194.332 270.046 194.138 269.85 194.138 269.611C194.138 269.372 194.334 269.176 194.573 269.176H199.688C199.93 269.176 200.124 269.372 200.124 269.611C200.124 269.85 199.928 270.046 199.688 270.046Z" fill="#363E44"/>
<path d="M262.857 326.57C262.845 326.57 262.835 326.57 262.823 326.57L257.805 326.184C257.652 326.172 257.516 326.081 257.448 325.944C252.739 316.538 249.326 309.283 247.305 304.375C244.367 297.244 244.812 296.235 245.457 295.849C246.165 295.424 247.429 295.62 253.35 303.071C253.379 289.62 254.361 288.36 255.284 288.263C256.044 288.182 257.443 288.031 261.306 307.435C262.649 300.962 264.364 297.718 265.27 297.097C265.464 296.965 265.656 296.915 265.838 296.953C265.958 296.977 266.133 297.054 266.279 297.277C267.304 298.844 267.05 308.861 263.282 326.227C263.238 326.429 263.06 326.572 262.857 326.572V326.57ZM258.119 325.331L262.513 325.669C266.39 307.666 266.117 299.319 265.632 297.918C264.924 298.616 263.078 302.134 261.745 309.803C261.709 310.01 261.529 310.163 261.32 310.165H261.316C261.106 310.165 260.928 310.016 260.888 309.813C257.443 292.045 255.908 289.404 255.381 289.141C255.067 289.404 254.198 291.321 254.226 304.325C254.226 304.511 254.109 304.677 253.933 304.739C253.757 304.8 253.561 304.743 253.447 304.594C247.352 296.806 246.084 296.573 245.888 296.603C245.524 297.099 245.916 300.939 258.121 325.331H258.119Z" fill="#363E44"/>
<path d="M248.61 339.396C248.575 339.026 248.551 334.654 248.551 334.274C248.551 327.8 253.801 322.55 260.275 322.55C266.75 322.55 272 327.8 272 334.274C272 334.654 271.976 339.026 271.94 339.396H248.61Z" fill="#D87355"/>
<path d="M257.402 330.911H251.568C251.327 330.911 251.133 330.716 251.133 330.476C251.133 330.237 251.329 330.041 251.568 330.041H257.402C257.643 330.041 257.837 330.237 257.837 330.476C257.837 330.716 257.641 330.911 257.402 330.911Z" fill="#363E44"/>
<path d="M269.116 335.596H263.283C263.042 335.596 262.848 335.4 262.848 335.161C262.848 334.921 263.043 334.725 263.283 334.725H269.116C269.358 334.725 269.552 334.921 269.552 335.161C269.552 335.4 269.356 335.596 269.116 335.596Z" fill="#363E44"/>
<path d="M185.666 321.99C185.654 321.99 185.644 321.99 185.632 321.99L180.614 321.604C180.461 321.592 180.325 321.501 180.257 321.365C175.548 311.961 172.135 304.703 170.114 299.795C167.178 292.664 167.621 291.655 168.266 291.267C168.978 290.842 170.24 291.04 176.159 298.49C176.188 285.038 177.17 283.778 178.093 283.681C178.857 283.598 180.254 283.46 184.115 302.853C185.458 296.379 187.173 293.137 188.079 292.516C188.273 292.383 188.463 292.336 188.647 292.371C188.767 292.395 188.942 292.472 189.088 292.696C190.113 294.262 189.859 304.278 186.091 321.646C186.048 321.848 185.869 321.99 185.666 321.99ZM180.928 320.752L185.322 321.09C189.199 303.087 188.926 294.739 188.441 293.341C187.733 294.039 185.887 297.556 184.554 305.225C184.518 305.433 184.338 305.585 184.129 305.587H184.125C183.915 305.587 183.737 305.439 183.697 305.235C180.252 287.469 178.717 284.829 178.19 284.564C177.876 284.829 177.009 286.743 177.035 299.748C177.035 299.934 176.918 300.1 176.742 300.161C176.566 300.22 176.37 300.165 176.256 300.017C170.161 292.229 168.889 291.995 168.697 292.025C168.333 292.522 168.723 296.361 180.93 320.754L180.928 320.752Z" fill="#363E44"/>
<path d="M171.419 334.816C171.383 334.446 171.359 330.074 171.359 329.695C171.359 323.22 176.609 317.97 183.084 317.97C189.558 317.97 194.808 323.218 194.808 329.695C194.808 330.074 194.785 334.446 194.749 334.816H171.419Z" fill="#D87355"/>
<path d="M180.21 326.332H174.377C174.135 326.332 173.941 326.136 173.941 325.897C173.941 325.657 174.137 325.462 174.377 325.462H180.21C180.451 325.462 180.645 325.657 180.645 325.897C180.645 326.136 180.449 326.332 180.21 326.332Z" fill="#363E44"/>
<path d="M191.923 331.016H186.089C185.848 331.016 185.654 330.821 185.654 330.581C185.654 330.342 185.85 330.146 186.089 330.146H191.923C192.164 330.146 192.358 330.342 192.358 330.581C192.358 330.821 192.162 331.016 191.923 331.016Z" fill="#363E44"/>
<path d="M178.997 111.272H174.445C174.269 111.272 174.109 111.165 174.042 111.003C173.975 110.841 174.012 110.653 174.137 110.528L189.21 95.455C189.38 95.2849 189.657 95.2849 189.827 95.455C189.997 95.6252 189.997 95.9021 189.827 96.0722L175.498 110.402H178.817L201.51 87.7086C201.68 87.5385 201.957 87.5385 202.127 87.7086C202.298 87.8788 202.298 88.1557 202.127 88.3258L179.308 111.146C179.226 111.227 179.116 111.274 178.999 111.274L178.997 111.272Z" fill="#1CBDE2"/>
<path d="M301.028 111.272H296.477C296.36 111.272 296.249 111.227 296.168 111.144L273.348 88.3239C273.178 88.1538 273.178 87.8768 273.348 87.7067C273.518 87.5366 273.795 87.5366 273.965 87.7067L296.659 110.4H299.978L285.648 96.0703C285.478 95.9002 285.478 95.6232 285.648 95.4531C285.819 95.283 286.095 95.283 286.266 95.4531L301.339 110.527C301.464 110.651 301.501 110.839 301.434 111.001C301.367 111.164 301.206 111.27 301.03 111.27L301.028 111.272Z" fill="#1CBDE2"/>
<path d="M188.218 77.3038L138.183 42.7694V35.8123L195.023 60.456L188.218 77.3038Z" fill="#F8BD58"/>
<path d="M152.714 44.9275H142.999L138.183 35.8123H152.714V44.9275Z" fill="#F8BD58"/>
<path d="M149.859 35.0625H141.035C140.793 35.0625 140.6 34.8667 140.6 34.6273V31.0963C140.6 30.855 140.795 30.6611 141.035 30.6611H149.859C150.101 30.6611 150.294 30.857 150.294 31.0963V34.6273C150.294 34.8686 150.099 35.0625 149.859 35.0625ZM141.472 34.1901H149.424V31.5315H141.472V34.1901Z" fill="#1CBDE2"/>
<path d="M120.668 58.4443C120.612 58.4443 120.557 58.4345 120.505 58.4127C120.345 58.3474 120.238 58.1951 120.232 58.023C120.226 57.8568 119.92 41.369 139.074 35.3594C139.304 35.2862 139.549 35.4148 139.62 35.6443C139.691 35.8737 139.565 36.119 139.335 36.1902C123.611 41.1237 121.441 53.2715 121.148 56.933L142.314 36.3643C142.486 36.1962 142.763 36.2001 142.932 36.3722C143.1 36.5443 143.096 36.8213 142.924 36.9894L120.972 58.3217C120.889 58.4028 120.778 58.4443 120.668 58.4443Z" fill="#1CBDE2"/>
<path d="M151.883 30.3822C151.697 30.3822 151.525 30.2636 151.467 30.0776C151.396 29.8481 151.523 29.6029 151.752 29.5316C167.476 24.5982 169.646 12.4504 169.939 8.78885L148.773 29.3576C148.601 29.5257 148.324 29.5218 148.156 29.3497C147.988 29.1776 147.992 28.9006 148.164 28.7325L170.115 7.40019C170.24 7.27953 170.424 7.24392 170.582 7.30722C170.742 7.3725 170.849 7.52482 170.855 7.69692C170.861 7.86308 171.168 24.3509 152.013 30.3605C151.97 30.3743 151.926 30.3803 151.883 30.3803V30.3822Z" fill="#1CBDE2"/>
<path d="M145.448 61.8585C138.823 61.8585 132.586 59.6826 127.411 55.568C127.223 55.4177 127.192 55.1447 127.342 54.9548C127.492 54.7669 127.765 54.7352 127.955 54.8856C132.974 58.8755 139.023 60.9862 145.448 60.9862C149.543 60.9862 153.489 60.1257 157.18 58.4304C157.4 58.3295 157.659 58.4264 157.758 58.644C157.859 58.8636 157.762 59.1227 157.544 59.2217C153.738 60.9723 149.667 61.8585 145.448 61.8585Z" fill="#1CBDE2"/>
<path d="M165.645 53.493C165.534 53.493 165.422 53.4494 165.337 53.3644C165.166 53.1943 165.166 52.9173 165.337 52.7472C170.65 47.4339 173.576 40.3719 173.576 32.859C173.576 28.0283 172.331 23.263 169.975 19.0792C169.857 18.8695 169.932 18.6045 170.141 18.4858C170.351 18.3671 170.618 18.4423 170.735 18.6519C173.164 22.9663 174.448 27.878 174.448 32.859C174.448 40.6054 171.431 47.8869 165.954 53.3644C165.869 53.4494 165.758 53.493 165.645 53.493Z" fill="#1CBDE2"/>
<path d="M161.253 9.50298C161.169 9.50298 161.086 9.47925 161.011 9.42979C157.991 7.41802 154.659 6.03134 151.115 5.30537C150.879 5.25789 150.727 5.02645 150.774 4.79105C150.822 4.55565 151.055 4.40333 151.289 4.45081C154.944 5.19854 158.378 6.63072 161.494 8.70381C161.694 8.83635 161.749 9.10735 161.615 9.30912C161.531 9.43572 161.393 9.50298 161.251 9.50298H161.253Z" fill="#1CBDE2"/>
<path d="M120.351 46.9472C120.197 46.9472 120.046 46.8642 119.967 46.7198C117.665 42.4944 116.448 37.7014 116.448 32.8609C116.448 16.8716 129.457 3.86133 145.448 3.86133C145.689 3.86133 145.883 4.05717 145.883 4.29652C145.883 4.53588 145.687 4.73172 145.448 4.73172C129.939 4.73172 117.321 17.3483 117.321 32.8589C117.321 37.555 118.502 42.2017 120.735 46.3004C120.85 46.5121 120.772 46.7771 120.561 46.8919C120.494 46.9275 120.422 46.9453 120.353 46.9453L120.351 46.9472Z" fill="#1CBDE2"/>
<path d="M287.255 77.3035L337.292 42.7691V35.812L280.45 60.4557L287.255 77.3035Z" fill="#F8BD58"/>
<path d="M322.76 44.9273H332.472L337.291 35.812H322.76V44.9273Z" fill="#F8BD58"/>
<path d="M334.437 35.0625H325.613C325.372 35.0625 325.178 34.8667 325.178 34.6273V31.0963C325.178 30.855 325.374 30.6611 325.613 30.6611H334.437C334.679 30.6611 334.873 30.857 334.873 31.0963V34.6273C334.873 34.8686 334.677 35.0625 334.437 35.0625ZM326.05 34.1901H334.002V31.5315H326.05V34.1901Z" fill="#1CBDE2"/>
<path d="M354.805 58.4441C354.694 58.4441 354.583 58.4006 354.5 58.3214L332.549 36.9891C332.376 36.821 332.373 36.546 332.541 36.372C332.709 36.1999 332.984 36.1939 333.158 36.3641L354.322 56.9328C354.023 53.2673 351.837 41.1175 336.137 36.192C335.907 36.1207 335.779 35.8755 335.852 35.646C335.923 35.4165 336.165 35.2879 336.398 35.3611C355.552 41.3707 355.244 57.8605 355.24 58.0247C355.234 58.1968 355.127 58.3511 354.967 58.4144C354.913 58.4362 354.858 58.4461 354.805 58.4461V58.4441Z" fill="#1CBDE2"/>
<path d="M323.589 30.3821C323.546 30.3821 323.502 30.3761 323.459 30.3623C304.305 24.3527 304.611 7.8629 304.617 7.69871C304.623 7.52662 304.73 7.37232 304.89 7.30902C305.05 7.24374 305.234 7.27935 305.357 7.40199L327.308 28.7343C327.48 28.9024 327.484 29.1774 327.316 29.3515C327.15 29.5236 326.873 29.5275 326.699 29.3594L305.533 8.79065C305.832 12.4561 308.018 24.6059 323.718 29.5315C323.948 29.6027 324.076 29.848 324.003 30.0774C323.944 30.2634 323.773 30.3821 323.587 30.3821H323.589Z" fill="#1CBDE2"/>
<path d="M330.028 61.8583C325.806 61.8583 321.737 60.9721 317.931 59.2214C317.714 59.1205 317.617 58.8614 317.718 58.6438C317.819 58.4262 318.076 58.3293 318.295 58.4302C321.987 60.1254 325.933 60.9859 330.028 60.9859C336.453 60.9859 342.502 58.8772 347.52 54.8853C347.708 54.735 347.983 54.7666 348.134 54.9546C348.284 55.1425 348.252 55.4174 348.064 55.5678C342.89 59.6823 336.652 61.8583 330.028 61.8583Z" fill="#1CBDE2"/>
<path d="M309.83 53.4927C309.719 53.4927 309.607 53.4492 309.521 53.3641C304.044 47.8867 301.027 40.6051 301.027 32.8587C301.027 27.8777 302.311 22.966 304.74 18.6517C304.859 18.442 305.124 18.3668 305.334 18.4855C305.543 18.6042 305.619 18.8693 305.5 19.079C303.144 23.2627 301.9 28.0281 301.9 32.8587C301.9 40.3717 304.825 47.4337 310.139 52.747C310.309 52.9171 310.309 53.194 310.139 53.3641C310.054 53.4492 309.943 53.4927 309.83 53.4927Z" fill="#1CBDE2"/>
<path d="M314.219 9.50282C314.078 9.50282 313.94 9.43556 313.855 9.30896C313.72 9.10917 313.776 8.83816 313.976 8.70365C317.091 6.62858 320.523 5.19838 324.181 4.45064C324.416 4.40119 324.648 4.55548 324.695 4.79088C324.745 5.02628 324.59 5.25772 324.355 5.3052C320.81 6.03118 317.479 7.41786 314.458 9.42963C314.385 9.47908 314.3 9.50282 314.217 9.50282H314.219Z" fill="#1CBDE2"/>
<path d="M355.122 46.947C355.05 46.947 354.979 46.9292 354.914 46.8936C354.702 46.7788 354.625 46.5138 354.74 46.3021C356.973 42.2054 358.154 37.5567 358.154 32.8606C358.154 17.352 345.538 4.73342 330.027 4.73342C329.786 4.73342 329.592 4.53759 329.592 4.29823C329.592 4.05888 329.788 3.86304 330.027 3.86304C346.016 3.86304 359.025 16.8713 359.025 32.8626C359.025 37.7051 357.808 42.4962 355.505 46.7215C355.426 46.8659 355.276 46.949 355.122 46.949V46.947Z" fill="#1CBDE2"/>
<path d="M266.1 70.0854H209.371V92.2169H266.1V70.0854Z" fill="#E0AA63"/>
<path d="M289.631 57.6765H185.844V84.6149H289.631V57.6765Z" fill="#F8BD58"/>
<path d="M203.702 81.5884C203.46 81.5884 203.267 81.3926 203.267 81.1532V65.5002C203.267 65.3835 203.312 65.2727 203.395 65.1916L207.47 61.1166C207.64 60.9465 207.917 60.9465 208.087 61.1166C208.257 61.2867 208.257 61.5637 208.087 61.7338L204.139 65.6821V81.1552C204.139 81.3965 203.943 81.5904 203.704 81.5904L203.702 81.5884Z" fill="#1CBDE2"/>
<path d="M199.781 81.5884C199.54 81.5884 199.346 81.3926 199.346 81.1532V65.5002C199.346 65.3835 199.391 65.2727 199.474 65.1916L203.549 61.1166C203.719 60.9465 203.996 60.9465 204.166 61.1166C204.337 61.2867 204.337 61.5637 204.166 61.7338L200.218 65.6821V81.1552C200.218 81.3965 200.022 81.5904 199.783 81.5904L199.781 81.5884Z" fill="#1CBDE2"/>
<path d="M195.86 81.5884C195.619 81.5884 195.425 81.3926 195.425 81.1532V65.5002C195.425 65.3835 195.47 65.2727 195.553 65.1916L199.628 61.1166C199.798 60.9465 200.075 60.9465 200.246 61.1166C200.416 61.2867 200.416 61.5637 200.246 61.7338L196.297 65.6821V81.1552C196.297 81.3965 196.101 81.5904 195.862 81.5904L195.86 81.5884Z" fill="#1CBDE2"/>
<path d="M282.08 81.5884C281.969 81.5884 281.856 81.5449 281.771 81.4598L277.696 77.3849C277.615 77.3038 277.567 77.193 277.567 77.0763V61.4232C277.567 61.1819 277.763 60.988 278.003 60.988C278.242 60.988 278.438 61.1839 278.438 61.4232V76.8963L282.386 80.8446C282.556 81.0147 282.556 81.2917 282.386 81.4618C282.301 81.5469 282.19 81.5904 282.078 81.5904L282.08 81.5884Z" fill="#1CBDE2"/>
<path d="M278.159 81.5884C278.048 81.5884 277.935 81.5449 277.85 81.4598L273.775 77.3849C273.694 77.3038 273.646 77.193 273.646 77.0763V61.4232C273.646 61.1819 273.842 60.988 274.082 60.988C274.321 60.988 274.517 61.1839 274.517 61.4232V76.8963L278.465 80.8446C278.635 81.0147 278.635 81.2917 278.465 81.4618C278.38 81.5469 278.269 81.5904 278.157 81.5904L278.159 81.5884Z" fill="#1CBDE2"/>
<path d="M274.238 81.5884C274.127 81.5884 274.014 81.5449 273.929 81.4598L269.854 77.3849C269.773 77.3038 269.726 77.193 269.726 77.0763V61.4232C269.726 61.1819 269.921 60.988 270.161 60.988C270.4 60.988 270.596 61.1839 270.596 61.4232V76.8963L274.544 80.8446C274.714 81.0147 274.714 81.2917 274.544 81.4618C274.459 81.5469 274.348 81.5904 274.236 81.5904L274.238 81.5884Z" fill="#1CBDE2"/>
<path d="M237.737 83.0565C231.386 83.0565 226.219 77.8896 226.219 71.5378C226.219 65.186 231.386 60.019 237.737 60.019C244.089 60.019 249.256 65.186 249.256 71.5378C249.256 77.8896 244.089 83.0565 237.737 83.0565ZM237.737 60.8934C231.868 60.8934 227.091 65.6686 227.091 71.5398C227.091 77.4109 231.866 82.1861 237.737 82.1861C243.609 82.1861 248.384 77.4109 248.384 71.5398C248.384 65.6686 243.609 60.8934 237.737 60.8934Z" fill="#1CBDE2"/>
<path d="M237.738 79.4544C242.11 79.4544 245.654 75.91 245.654 71.5379C245.654 67.1657 242.11 63.6213 237.738 63.6213C233.366 63.6213 229.821 67.1657 229.821 71.5379C229.821 75.91 233.366 79.4544 237.738 79.4544Z" fill="#1CBDE2"/>
<path d="M241.431 68.8122C241.431 69.8329 240.604 70.6598 239.583 70.6598C238.562 70.6598 237.735 69.8329 237.735 68.8122C237.735 67.7915 238.562 66.9646 239.583 66.9646C240.604 66.9646 241.431 67.7915 241.431 68.8122Z" fill="#F7F1EB"/>
<path d="M322.76 228.149C322.55 228.149 322.367 227.999 322.331 227.785L314.013 177.764C313.973 177.526 314.133 177.301 314.371 177.261C314.608 177.22 314.834 177.382 314.873 177.619L323.191 227.641C323.231 227.878 323.071 228.104 322.833 228.143C322.81 228.147 322.786 228.149 322.762 228.149H322.76Z" fill="white"/>
<path d="M313.698 173.659C313.488 173.659 313.304 173.509 313.269 173.295L308.941 147.273C308.901 147.035 309.061 146.81 309.299 146.77C309.534 146.729 309.761 146.891 309.801 147.128L314.129 173.151C314.169 173.388 314.009 173.614 313.771 173.653C313.747 173.657 313.724 173.659 313.7 173.659H313.698Z" fill="white"/>
<path d="M308.742 143.845C308.532 143.845 308.348 143.694 308.312 143.481L304.625 121.308C304.586 121.07 304.746 120.845 304.983 120.805C305.219 120.764 305.446 120.926 305.486 121.163L309.173 143.336C309.212 143.573 309.052 143.799 308.815 143.839C308.791 143.843 308.767 143.845 308.744 143.845H308.742Z" fill="white"/>
<path d="M297.968 172.221C297.727 172.221 297.533 172.025 297.533 171.786V120.595C297.533 120.354 297.729 120.16 297.968 120.16C298.208 120.16 298.404 120.356 298.404 120.595V171.786C298.404 172.027 298.208 172.221 297.968 172.221Z" fill="white"/>
<path d="M273.457 219.058C273.43 219.058 273.4 219.056 273.372 219.05C273.137 219.002 272.983 218.773 273.03 218.537L284.309 162.097C284.357 161.862 284.584 161.705 284.822 161.755C285.057 161.802 285.211 162.032 285.164 162.267L273.885 218.707C273.843 218.915 273.661 219.058 273.457 219.058Z" fill="white"/>
<path d="M286.693 152.833C286.665 152.833 286.635 152.831 286.608 152.825C286.372 152.778 286.218 152.548 286.265 152.313L293.462 116.307C293.509 116.071 293.735 115.915 293.974 115.964C294.21 116.012 294.364 116.241 294.316 116.477L287.12 152.483C287.078 152.691 286.896 152.833 286.693 152.833Z" fill="white"/>
<path d="M166.562 162.453C166.538 162.453 166.515 162.453 166.491 162.447C166.254 162.407 166.093 162.182 166.133 161.945L168.952 145.002C168.991 144.764 169.217 144.6 169.454 144.644C169.692 144.683 169.852 144.907 169.812 145.146L166.993 162.089C166.958 162.303 166.774 162.453 166.564 162.453H166.562Z" fill="white"/>
<path d="M170.01 141.72C169.987 141.72 169.963 141.72 169.939 141.714C169.702 141.675 169.542 141.449 169.581 141.212L173.268 119.039C173.308 118.801 173.534 118.637 173.771 118.681C174.008 118.72 174.169 118.946 174.129 119.183L170.442 141.356C170.406 141.57 170.222 141.72 170.012 141.72H170.01Z" fill="white"/>
<path d="M180.783 170.095C180.542 170.095 180.348 169.899 180.348 169.659V118.469C180.348 118.228 180.544 118.034 180.783 118.034C181.022 118.034 181.218 118.23 181.218 118.469V169.659C181.218 169.901 181.022 170.095 180.783 170.095Z" fill="white"/>
<path d="M205.294 216.931C205.091 216.931 204.909 216.788 204.867 216.581L193.588 160.14C193.54 159.905 193.695 159.674 193.93 159.628C194.169 159.579 194.397 159.735 194.442 159.97L205.722 216.411C205.769 216.646 205.615 216.877 205.379 216.923C205.35 216.929 205.322 216.931 205.294 216.931Z" fill="white"/>
<path d="M192.058 150.707C191.854 150.707 191.672 150.564 191.631 150.357L184.434 114.351C184.387 114.115 184.541 113.884 184.777 113.838C185.014 113.789 185.243 113.945 185.289 114.18L192.485 150.187C192.533 150.422 192.379 150.653 192.143 150.699C192.114 150.705 192.086 150.707 192.056 150.707H192.058Z" fill="white"/>
<path d="M104.085 71.3634C104.114 70.9974 104.134 70.6295 104.134 70.2556C104.134 62.8119 98.0988 56.7766 90.6551 56.7766C88.7659 56.7766 86.9678 57.1662 85.3358 57.8685C84.234 53.7816 80.5052 50.7749 76.0702 50.7749C74.3512 50.7749 72.741 51.2279 71.3464 52.0191C67.9756 44.9057 60.7337 39.9861 52.3384 39.9861C43.1361 39.9861 35.3205 45.9007 32.47 54.1337C31.7559 54.0447 31.0299 53.9933 30.2901 53.9933C20.6961 53.9933 12.918 61.7694 12.9141 71.3634H104.085Z" fill="#313131"/>
<defs>
<linearGradient id="paint0_linear_71_3066" x1="184.5" y1="0" x2="184.5" y2="365" gradientUnits="userSpaceOnUse">
<stop stop-color="#F8BD58"/>
<stop offset="0.41" stop-color="#8D5393"/>
<stop offset="0.8" stop-color="#6F6EA3"/>
<stop offset="1" stop-color="#09CAD7"/>
</linearGradient>
</defs>
</svg>
