<svg width="53" height="54" viewBox="0 0 53 54" fill="none" xmlns="http://www.w3.org/2000/svg">
<path d="M22.1146 3.21216H21.9902C17.9244 3.21212 14.7045 3.2121 12.1847 3.55028C9.59196 3.89826 7.49364 4.63134 5.83863 6.28346C4.18321 7.93598 3.44831 10.0318 3.09953 12.6214C2.76068 15.1374 2.76071 18.3521 2.76074 22.4103V22.6599C2.76071 26.7181 2.76068 29.9328 3.09953 32.4487C3.44831 35.0383 4.18321 37.1342 5.83863 38.7867C7.49364 40.4388 9.59196 41.1719 12.1847 41.5199C14.7045 41.8581 17.9243 41.858 21.9901 41.858H24.8441V47.3788H17.667C16.7523 47.3788 16.0107 48.1204 16.0107 49.0351C16.0107 49.9498 16.7523 50.6913 17.667 50.6913H35.3337C36.2484 50.6913 36.9899 49.9498 36.9899 49.0351C36.9899 48.1204 36.2484 47.3788 35.3337 47.3788H28.1566V41.858H31.0878C35.1536 41.858 38.3735 41.8581 40.8932 41.5199C43.486 41.1719 45.5844 40.4388 47.2394 38.7867C49.5154 36.5147 50.0656 33.3842 50.2385 29.2289C50.2765 28.315 49.5664 27.5433 48.6525 27.5053C47.7386 27.4672 46.9669 28.1773 46.9288 29.0912C46.7577 33.2053 46.1988 35.145 44.8991 36.4424C43.9624 37.3775 42.6791 37.938 40.4526 38.2368C38.1788 38.542 35.1815 38.5455 30.9634 38.5455H22.1146C17.8965 38.5455 14.8992 38.542 12.6254 38.2368C10.3988 37.938 9.11561 37.3775 8.17887 36.4424C7.24253 35.5076 6.68156 34.2278 6.38239 32.0066C6.07677 29.7374 6.07324 26.7461 6.07324 22.5351C6.07324 18.3241 6.07677 15.3328 6.38239 13.0636C6.68156 10.8423 7.24253 9.56251 8.17887 8.6278C9.11561 7.6927 10.3988 7.13217 12.6254 6.83335C14.8992 6.52817 17.8965 6.52466 22.1146 6.52466C23.0293 6.52466 23.7708 5.78313 23.7708 4.86841C23.7708 3.95369 23.0293 3.21216 22.1146 3.21216Z" fill="#AD43B8"/>
<path d="M24.292 31.9205C23.3773 31.9205 22.6357 32.662 22.6357 33.5767C22.6357 34.4915 23.3773 35.233 24.292 35.233H28.7087C29.6234 35.233 30.3649 34.4915 30.3649 33.5767C30.3649 32.662 29.6234 31.9205 28.7087 31.9205H24.292Z" fill="#AD43B8"/>
<path fill-rule="evenodd" clip-rule="evenodd" d="M35.8857 7.62884V4.86841C35.8857 3.95369 35.1442 3.21216 34.2295 3.21216C33.3148 3.21216 32.5732 3.95369 32.5732 4.86841V7.74118C31.8232 7.85559 31.0414 8.11202 30.3927 8.76075C29.7439 9.40948 29.4875 10.1913 29.3731 10.9413H26.5003C25.5856 10.9413 24.8441 11.6829 24.8441 12.5976C24.8441 13.5123 25.5856 14.2538 26.5003 14.2538H29.2608V17.5663H26.5003C25.5856 17.5663 24.8441 18.3079 24.8441 19.2226C24.8441 20.1373 25.5856 20.8788 26.5003 20.8788H29.3731C29.4875 21.6288 29.7439 22.4107 30.3927 23.0594C31.0414 23.7082 31.8232 23.9646 32.5732 24.079V26.9517C32.5732 27.8665 33.3148 28.608 34.2295 28.608C35.1442 28.608 35.8857 27.8665 35.8857 26.9517V24.1913H39.1982V26.9517C39.1982 27.8665 39.9398 28.608 40.8545 28.608C41.7692 28.608 42.5107 27.8665 42.5107 26.9517V24.079C43.2608 23.9646 44.0426 23.7082 44.6913 23.0594C45.3401 22.4107 45.5965 21.6288 45.7109 20.8788H48.5837C49.4984 20.8788 50.2399 20.1373 50.2399 19.2226C50.2399 18.3079 49.4984 17.5663 48.5837 17.5663H45.8233V14.2538H48.5837C49.4984 14.2538 50.2399 13.5123 50.2399 12.5976C50.2399 11.6829 49.4984 10.9413 48.5837 10.9413H45.7109C45.5965 10.1913 45.3401 9.40948 44.6913 8.76075C44.0426 8.11202 43.2608 7.85558 42.5107 7.74117V4.86841C42.5107 3.95369 41.7692 3.21216 40.8545 3.21216C39.9398 3.21216 39.1982 3.95369 39.1982 4.86841V7.62884H35.8857ZM32.735 11.1031L32.7404 11.1C32.7446 11.0978 32.752 11.0942 32.7631 11.0897C32.8112 11.0699 32.918 11.0361 33.1312 11.0074C33.5966 10.9449 34.2458 10.9413 35.3337 10.9413H39.7503C40.8382 10.9413 41.4874 10.9449 41.9528 11.0074C42.166 11.0361 42.2728 11.0699 42.3209 11.0897C42.3321 11.0942 42.3394 11.0978 42.3436 11.1L42.349 11.1031L42.3521 11.1084C42.3543 11.1127 42.3579 11.12 42.3624 11.1312C42.3822 11.1793 42.416 11.2861 42.4447 11.4993C42.5072 11.9647 42.5108 12.6139 42.5108 13.7018V18.1184C42.5108 19.2063 42.5072 19.8555 42.4447 20.3209C42.416 20.5341 42.3822 20.6409 42.3624 20.689C42.3579 20.7001 42.3543 20.7075 42.3521 20.7117L42.349 20.7171L42.3436 20.7201C42.3394 20.7224 42.3321 20.726 42.3209 20.7305C42.2728 20.7503 42.166 20.7841 41.9528 20.8128C41.4874 20.8753 40.8382 20.8788 39.7503 20.8788H35.3337C34.2458 20.8788 33.5966 20.8753 33.1312 20.8128C32.918 20.7841 32.8112 20.7503 32.7631 20.7305C32.752 20.726 32.7446 20.7224 32.7404 20.7201L32.735 20.7171L32.7319 20.7117C32.7297 20.7075 32.7261 20.7001 32.7216 20.689C32.7018 20.6409 32.668 20.5341 32.6393 20.3209C32.5768 19.8555 32.5733 19.2063 32.5733 18.1184V13.7018C32.5733 12.6139 32.5768 11.9647 32.6393 11.4993C32.668 11.2861 32.7018 11.1793 32.7216 11.1312C32.7261 11.12 32.7297 11.1127 32.7319 11.1084L32.735 11.1031Z" fill="#AD43B8"/>
</svg>
