<svg width="589" height="519" viewBox="0 0 589 519" fill="none" xmlns="http://www.w3.org/2000/svg">
<g opacity="0.4">
<path fill-rule="evenodd" clip-rule="evenodd" d="M208.492 133.607C314.82 133.607 401.017 219.803 401.017 326.134C401.017 432.465 314.82 518.657 208.492 518.657C102.163 518.657 15.9629 432.458 15.9629 326.134C15.9629 219.81 102.159 133.607 208.492 133.607Z" fill="white" fill-opacity="0.1"/>
<path fill-rule="evenodd" clip-rule="evenodd" d="M208.492 140.702C310.905 140.702 393.926 223.718 393.926 326.134C393.926 428.55 310.905 511.562 208.492 511.562C106.079 511.562 23.0615 428.542 23.0615 326.134C23.0615 223.725 106.079 140.702 208.492 140.702Z" fill="white" fill-opacity="0.1"/>
<path fill-rule="evenodd" clip-rule="evenodd" d="M296.979 205.902C297.974 204.585 298.12 203.86 299.186 202.73C305.984 195.504 318.207 202.584 324.863 202.407L325.49 208.237C328.632 208.312 330.452 207.25 330.302 203.939C330.032 197.929 315.868 200.283 313.826 194.389C317.201 189.686 327.325 195.823 331.364 197.865C334.304 199.352 337.145 200.786 339.811 202.276C342.664 203.868 345.956 206.6 347.311 207.377C348.092 204.232 348.415 198.518 349.905 196.671C350.284 196.641 350.656 196.653 351.02 196.701C340.839 185.496 329.352 175.5 316.799 166.945C316.037 167.354 315.073 167.605 314.025 167.684C309.93 167.985 308.672 165.417 303.676 166.986C301.161 167.774 297.685 169.715 294.85 169.291C295.62 168.713 299.348 165.192 299.817 164.355C304.119 156.686 290.845 162.384 293.229 153.224C286.577 149.959 279.704 147.068 272.646 144.572C272.338 145.409 272.398 146.637 272.875 148.476C273.881 152.342 274.658 155.113 271.843 157.545C269.523 159.542 266.13 159.906 269.313 164.46C271.666 167.823 274.354 166.888 279.062 166.765C280.008 169.411 279.884 171.757 282.365 172.587C285.316 173.57 287.035 173.6 288.262 176.13C287.414 178.311 285.894 178.995 284.981 181.911C282.121 191.082 284.343 190.928 272.969 197.565C275.225 199.765 282.489 197.861 284.152 203.229C285.781 208.485 279.351 209.258 275.39 210.861C269.133 213.395 270.867 216.375 273.855 220.91C275.717 223.744 278.206 228.958 282.733 228.56C284.64 226.71 283.382 225.767 286.87 224.882C287.816 227.457 289.801 228.947 289.227 232.937C288.84 235.591 287.144 238.061 286.288 240.441C285.342 243.065 285.072 246.049 284.193 248.722C281.851 255.858 277.387 262.225 281.051 273.884C281.896 276.568 282.947 278.685 284.463 280.825C286.003 282.995 287.482 283.776 288.435 287.218C290.143 293.4 291.919 294.763 298.518 297.916C307.343 302.136 309.742 313.149 316.676 310.255C322.764 307.714 317.61 301.918 329.859 302.672C335.024 302.991 334.664 301.88 335.479 297.455C336.094 294.14 338.489 293.408 341.849 294.391C345.212 295.379 348.343 294.549 351.174 295.446C356.564 297.158 352.45 304.294 355.768 310.758C357.551 314.23 361.861 321.37 363.944 323.334C367.184 326.389 372.147 329.835 368.487 337.159C366.062 342.016 362.792 346.566 366.107 352.696C374.767 368.717 380.863 363.578 380.499 379.84C380.368 385.786 383.558 392.682 387.102 394.48C387.988 393.864 388.416 393.35 389.174 392.768C396.836 372.006 401.021 349.562 401.021 326.134C401.021 282.244 386.325 241.793 361.598 209.412L346.102 212.644C346.376 214.701 347.551 215.23 349.195 216.022C345.877 218.778 343.824 223.493 336.744 219.014C327.911 213.429 329.885 219.495 323.294 219.352C323.789 217.306 323.947 215.527 323.459 213.323C321.24 212.01 316.991 212.625 314.731 213.308C309.843 214.787 299.896 220.242 297.835 224.99L292.058 225.505C293.503 223.267 296.51 222.239 295.556 217.449C294.862 213.973 292.932 211.976 293.484 207.666C295.5 206.901 295.804 207.467 296.983 205.906L296.979 205.902ZM20.104 286.283C23.7791 268.832 29.8153 252.251 37.8674 236.89C41.64 236.946 45.9532 237.509 50.2439 236.278C56.1976 234.563 66.8548 229.506 69.1672 225.936C62.9508 228.56 60.5784 231.057 51.7417 229.765C50.8934 228.872 50.274 227.479 49.388 226.394C47.6988 228.234 47.421 231.364 44.767 231.774C43.3518 231.988 42.113 231.533 41.2571 230.692C42.4772 228.56 43.7422 226.462 45.041 224.379C48.9864 223.616 54.1104 223.8 57.0309 222.761C70.65 217.918 64.9817 213.838 67.4817 212.404C71.7612 211.124 72.084 215.741 72.4631 219.446C77.8424 219.836 85.1888 216.105 89.4645 219.54C89.3443 213.128 85.3802 202.719 94.611 203.496C94.2319 201.259 94.7462 200.823 96.1351 199.205C97.0923 198.098 96.3603 199.138 96.9459 198.113L92.9781 198.102C92.6778 196.364 92.0133 195.279 93.7814 194.772C97.9295 193.586 100.94 197.295 105.043 197.584C110.332 197.963 114.022 193.976 118.985 193.064C125.915 191.788 127.852 195.876 132.916 197.565C137.645 199.141 146.171 195.35 148.483 199.096C144.815 202.828 137.255 198.267 139.2 204.089L143.535 204.832C142.766 208.545 142.068 209.089 142.398 213.496C135.427 214.299 130.618 211.732 123.869 211.882C124.826 208.901 126.35 208.774 126.237 204.975L120.325 206.777C120.246 206.724 120.152 206.623 120.115 206.589C117.57 204.209 113.898 203.811 110.678 205.591C112.341 209.566 112.735 209.506 112.81 214.72C114.274 215.842 116.654 216.098 115.302 218.785C114.435 220.508 112.739 221.15 111.305 222.314C109.454 223.819 109.964 225.298 106.8 224.904C104.893 224.668 102.847 223.53 102.224 222.419C101.398 224.052 101.086 225.302 100.186 226.927C97.7418 231.342 94.4383 235.362 96.6794 240.494C100.384 240.922 113.298 238.966 117.851 238.485C133.588 236.83 123.152 229.379 122.6 227.787C120.884 222.858 125.156 214.405 133.152 215.553C136.921 216.098 138.197 219.382 140.664 219.814C145.953 220.741 145.555 217.517 146.715 214.577C150.656 214.044 150.762 217.22 152.958 219.412C156.253 222.704 164.876 222.554 168.983 226.214C172.14 229.03 171.562 229.097 173 233.403C175.443 233.568 176.69 232.93 178.57 234.45C179.835 235.475 180.928 236.691 180.421 239.199C178.398 240.516 173.244 240.805 170.12 240.419C166.201 239.934 166.047 237.175 165.278 233.733C162.643 234.067 160.574 235.257 158.389 235.82C154.861 236.725 153.111 234.127 151.614 236.886C149.744 240.336 148.183 244.935 146.276 248.212C149.688 248.29 151.062 244.724 156.178 244.983L156.869 248.763L163.926 248.29C163.577 250.896 161.858 253.009 160.45 254.034C157.173 256.421 156.817 255.047 154.752 253.185C144.804 252.788 148.667 260.348 146.37 267.307C145.172 270.941 142.274 270.513 141.891 274.072C141.23 280.202 140.183 276.598 137.323 280.131C138.257 283.314 140.96 282.77 138.738 288.723C137.691 291.531 135.96 293.851 135.986 297.274C136.035 302.961 139.74 308.663 140.442 315.282C137.938 314.628 136.497 313.161 135.329 311.727C129.939 305.116 127.484 305.822 120.119 309.516L119.777 312.049C107.772 313.57 102.228 319.606 102.776 332.56C103.012 338.165 106.207 341.911 110.884 343.218C116.151 344.685 122.435 343.642 121.26 336.018C129.128 334.862 126.031 338.623 129.12 343.657C131.617 347.733 135.052 348.079 140.589 346.371C141.092 350.053 140.705 349.869 143.182 351.604C144.951 352.842 145.495 353.529 147.909 354.731C156.464 358.987 153.157 353.21 159.41 354.126C161.306 355.876 160.443 357.159 164.456 356.626C164.411 345.11 162.628 345.342 182.955 344.325C200.5 343.447 195.553 343.773 202.719 348.056C204.652 349.209 206.12 349.434 208.68 349.539C219.289 349.948 223.917 355.44 233.155 356.3C240.224 356.96 255.953 353.109 260.608 358.21C262.263 360.027 259.917 367.723 260.446 371.69C260.964 375.568 263.029 379.634 264.493 382.963C272.781 401.815 257.158 396.646 253.464 414.195C252.45 419.008 250.81 421.204 249.169 425.284C246.234 432.593 253.982 448.19 245.202 449.485C243.922 448.329 242.619 443.588 238.925 445.72C235.228 447.856 238.737 454.448 240.75 456.899C244.188 461.084 244.466 462.71 240.044 466.771L241.508 467.323C241.857 467.774 241.985 468.626 241.789 469.309C241.185 471.441 236.046 470.356 231.999 473.528C231.718 480.987 233.17 486.663 235.126 493.229C235.866 495.702 236.511 499.963 238.264 501.273C241.087 503.379 246.365 499.711 246.643 504.603C243.291 506.16 235.25 507.666 230.881 505.778C228.088 504.569 224.818 499.389 222.99 495.811L212.198 470.916C210.602 465.266 212.903 460.033 212.46 454.091C212.055 448.655 210.636 444.586 208.511 440.187C204.847 432.596 200.943 422.84 197.343 415.715C192.148 415.869 188.687 416.02 185.796 413.118C184.809 412.123 183.646 410.434 182.609 409.24C180.353 406.646 178.521 404.169 175.732 402.029C174.291 400.925 172.898 400.325 171.408 399.307C161.242 392.363 168.596 375.155 163.393 365.819C159.902 359.558 157.594 362.854 154.711 362.054C153.295 361.66 151.449 360.388 149.996 359.719C144.759 357.302 139.462 357.227 134.988 353.969C130.63 350.797 129.988 351.754 124.06 351.315C115.085 350.658 105.599 353.691 97.6704 352.272C89.0665 350.729 85.3277 344.843 81.0595 341.112C78.9874 339.299 66.487 331.01 63.7804 331.19C61.164 338.713 72.5119 342.767 74.5803 348.495C64.0169 348.443 65.1468 340.635 61.0438 333.322C57.0159 326.138 49.5832 327.298 43.5057 322.654C38.3929 318.746 36.6023 309.129 35.0032 302.913C32.9198 294.808 28.9069 290.24 26.5907 283.486L26.1891 284.489C25.6523 286.328 25.4946 288.693 24.6913 290.333C22.1349 290.221 20.6221 288.577 20.0928 286.302L20.104 286.283ZM47.9315 219.874C50.0562 219.63 50.6981 218.264 52.6201 217.535C54.2493 216.92 58.0107 217.884 61.1189 217.273C66.4795 216.21 63.4839 215.527 65.9764 212.637C67.6432 210.7 70.849 211.24 71.2431 208.53C67.6394 205.534 66.6859 209.401 65.1844 211.015C61.5544 214.908 60.5558 209.055 57.8343 211.492C56.6893 212.516 57.4176 213.361 54.8875 213.263C53.6299 213.215 52.9617 213.196 52.4812 213.312C50.9196 215.467 49.4031 217.655 47.9278 219.878L47.9315 219.874ZM61.1565 209.588C65.7475 211.323 67.8459 199.28 61.5131 207.802C60.233 209.528 61.1565 209.588 61.1565 209.588ZM74.6592 198.117C75.5864 199.731 76.401 199.93 78.3793 199.325C81.067 198.503 80.4852 198.286 82.4635 199.644L82.6437 197.163C78.6796 196.623 75.6652 194.757 74.6592 198.117ZM160.905 328.101C163.194 329.325 166.933 328.976 169.114 327.384C171.873 325.368 168.157 325.95 173.656 322.339C173.743 322.282 173.852 322.2 173.93 322.151L174.486 321.738C171.074 321.851 168.007 321.22 164.643 322.129C161.058 323.101 159.921 324.069 160.901 328.105L160.905 328.101ZM133.182 326.937C137.627 326.813 136.91 325.946 139.162 324.407C144.305 320.89 149.286 326.772 152.646 326.412C154.887 326.171 158.645 326.002 158.307 323.57C157.916 320.762 155.277 321.749 152.687 321.915C149.294 322.129 149.087 320.21 144.838 320.878C140.735 321.524 133.749 323.108 133.178 326.933L133.182 326.937ZM221.56 178.559C222.506 177.553 222.532 176.356 223.677 175.342C226.049 173.247 232.99 174.254 233.092 167.801C231.151 167.658 230.46 167.981 228.591 167.407C224.416 166.13 224.049 168.086 221.804 169.73C219.983 171.063 219.488 170.151 217.363 170.717C215.092 171.329 211.488 173.623 214.221 175.556C215.242 176.281 220.002 178.082 221.56 178.555V178.559ZM254.519 190.339C255.468 188.488 259.016 184.851 258.843 183.236C258.588 180.796 257 183.169 258.58 178.739C259.252 176.859 259.327 176.115 259.665 174.141C265.18 175.278 269.621 184.708 280.105 186.007C279.583 189.336 280.428 190.166 278.026 191.949C276.614 192.996 274.253 193.965 272.425 194.179C267.128 194.798 267.447 189.051 265.146 186.592C260.003 186.622 263.858 191.123 260.904 192.692C258.779 193.819 255.679 191.386 254.515 190.339H254.519ZM98.2072 183.89C94.0592 184.426 89.4757 185.387 86.5965 187.08C86.7917 190.891 90.5606 190.883 94.1118 190.174C99.0143 189.19 99.6487 190.02 100.174 194.629C106.946 195.039 113.444 195.943 113.501 189.967L109.139 190.249C108.268 188.833 109.124 189.708 108.054 188.863C110.599 182.936 115.359 183.608 118.88 177.561C120.31 175.102 120.475 171.847 122.119 169.603C124.034 166.994 126.545 168.067 127.945 163.863C119.563 164.43 118.482 169.156 111.226 171.99C104.251 174.715 97.5353 174.955 98.211 183.89H98.2072ZM128.223 178.676C131.767 180.579 136.474 174.711 145.33 182.253C155.356 190.797 158.971 185.188 161.115 185.113C162.068 189.975 162.954 193.045 165.608 195.572C166.824 196.735 172.354 200.928 174.617 201.919C179.25 203.95 183.36 202.404 184.348 198.282C185.391 193.924 183.022 188.203 185.117 184.479C186.037 182.85 190.699 181.615 194.333 178.766C197.295 176.438 199.633 174.193 202.835 171.934C205.103 170.331 211.233 167.823 212.119 165.837C213.35 163.082 208.14 158.48 209.697 153.885C211.634 152.909 214.48 153.81 216.916 153.255C219.717 152.613 219.217 151.336 220.336 148.754C222.224 144.388 228.745 145.721 226.226 139.955C222.367 138.731 216.379 145.034 214.056 146.633C210.448 149.118 210.49 146.599 202.753 150.266C202.269 150.495 201.42 150.878 200.97 150.972C199.419 151.295 199.262 150.935 199.01 150.826C198.447 148.134 199.577 146.423 200.365 144.136C201.39 141.16 202.888 139.324 202.704 137.657C202.16 132.747 194.757 138.592 190.455 138.735C187.625 138.829 185.207 137.702 182.775 139.009C179.738 140.634 181.419 143.57 178.777 144.125C174.156 145.097 170.285 137.762 166.032 145.488C163.288 150.473 160.743 150.319 153.922 151.137C151.325 151.449 149.245 152.29 147.451 153.453L132.638 165.627C130.66 167.782 127.705 173.176 127.608 176.558L128.231 178.679L128.223 178.676ZM98.7065 206.889L94.8062 204.198L95.6283 209.907C102.276 210.024 102.993 212.539 104.979 215.546C111.594 212.471 100.253 207.775 98.7028 206.893L98.7065 206.889Z" fill="white"/>
</g>
<path fill-rule="evenodd" clip-rule="evenodd" d="M74.5153 268.279C63.7304 282.687 57.3263 297.841 55.303 313.731C53.3059 329.429 55.577 345.879 62.12 363.064C89.7673 363.146 110.883 365.098 125.459 368.908C140.385 372.812 148.598 378.732 150.096 386.66C171.519 424.105 194.989 446.774 220.496 454.654C245.887 462.503 273.403 455.701 303.036 434.255C307.462 417.059 307.999 401.976 304.643 389.01C301.283 376.003 293.997 365.091 282.788 356.284L281.82 355.522L282.743 354.708C301.648 338.089 315.747 324.118 325.045 312.8C333.905 302.023 338.375 293.719 338.458 287.916C312.718 275.708 290.491 263.227 271.77 250.482C252.888 237.629 237.569 224.487 225.819 211.078L224.618 209.708L226.416 209.397C252.025 204.986 272.431 199.971 287.627 194.344C302.68 188.777 312.568 182.639 317.271 175.954L318.942 177.129C313.99 184.167 303.783 190.549 288.333 196.266C273.381 201.795 253.459 206.739 228.567 211.097C240.035 223.901 254.822 236.469 272.923 248.793C291.688 261.571 314.02 274.086 339.907 286.339L340.466 286.602L340.493 287.221C340.755 293.565 336.131 302.522 326.626 314.091C317.391 325.326 303.524 339.11 285.014 355.436C296.039 364.389 303.247 375.41 306.625 388.489C310.086 401.893 309.523 417.434 304.925 435.119L304.538 435.689C274.244 457.702 246.026 464.673 219.903 456.598C193.844 448.542 169.954 425.516 148.242 387.52L148.121 387.186C146.868 380.024 139.142 374.581 124.952 370.872C110.421 367.069 89.2381 365.14 61.4256 365.087H60.7236L60.4758 364.434C53.6175 346.693 51.2225 329.696 53.2872 313.46C55.3593 297.21 61.8948 281.737 72.8937 267.041L74.5266 268.264L74.5153 268.279Z" fill="#8C9297"/>
<path fill-rule="evenodd" clip-rule="evenodd" d="M61.4187 354.933C66.4752 354.933 70.5707 359.029 70.5707 364.085C70.5707 369.141 66.4752 373.237 61.4187 373.237C56.3622 373.237 52.2705 369.138 52.2705 364.085C52.2705 359.032 56.366 354.933 61.4187 354.933Z" fill="#1CBDE2"/>
<path fill-rule="evenodd" clip-rule="evenodd" d="M68.9225 369.622C67.252 371.841 64.5981 373.278 61.6062 373.278C56.5535 373.278 52.458 369.179 52.458 364.126C52.458 360.973 54.0534 358.195 56.4747 356.547C55.3222 358.079 54.639 359.982 54.639 362.043C54.639 367.099 58.7345 371.195 63.791 371.195C65.6904 371.195 67.4585 370.613 68.9225 369.622Z" fill="#A4D0FC"/>
<path fill-rule="evenodd" clip-rule="evenodd" d="M61.4182 354.539C64.0497 354.539 66.4371 355.609 68.1677 357.332C69.8944 359.058 70.9605 361.446 70.9605 364.077C70.9605 366.709 69.8907 369.1 68.1677 370.827C66.4409 372.55 64.0534 373.62 61.4182 373.62C58.783 373.62 56.3955 372.55 54.6687 370.827C52.9419 369.1 51.8721 366.713 51.8721 364.077C51.8721 361.442 52.9419 359.058 54.6687 357.332C56.3955 355.605 58.783 354.539 61.4182 354.539ZM67.6083 357.887C66.0279 356.307 63.8357 355.323 61.4182 355.323C59.0007 355.323 56.8122 356.307 55.228 357.891C53.6439 359.471 52.6641 361.664 52.6641 364.081C52.6641 366.499 53.6439 368.691 55.228 370.275C56.8122 371.859 59.0007 372.839 61.4182 372.839C63.8357 372.839 66.0279 371.859 67.6083 370.275C69.1925 368.691 70.1722 366.499 70.1722 364.081C70.1722 361.664 69.1925 359.471 67.6083 357.891V357.887Z" fill="#1CBDE2"/>
<path fill-rule="evenodd" clip-rule="evenodd" d="M74.4293 257.682C79.482 257.682 83.5775 261.782 83.5775 266.834C83.5775 271.887 79.482 275.986 74.4293 275.986C69.3766 275.986 65.2773 271.891 65.2773 266.834C65.2773 261.778 69.3766 257.682 74.4293 257.682Z" fill="#1CBDE2"/>
<path fill-rule="evenodd" clip-rule="evenodd" d="M81.9331 272.375C80.2626 274.593 77.6086 276.031 74.6168 276.031C69.5603 276.031 65.4648 271.935 65.4648 266.879C65.4648 263.726 67.0602 260.948 69.4853 259.3C68.3366 260.832 67.6534 262.735 67.6534 264.796C67.6534 269.848 71.7488 273.948 76.8016 273.948C78.7048 273.948 80.4691 273.369 81.9331 272.375Z" fill="#A4D0FC"/>
<path fill-rule="evenodd" clip-rule="evenodd" d="M74.4289 257.292C77.0604 257.292 79.4479 258.362 81.1746 260.089C82.8977 261.819 83.9675 264.203 83.9675 266.838C83.9675 269.473 82.8977 271.861 81.1746 273.584C79.4479 275.31 77.0604 276.38 74.4252 276.38C71.79 276.38 69.4025 275.31 67.6757 273.584C65.9489 271.857 64.8828 269.473 64.8828 266.838C64.8828 264.203 65.9527 261.815 67.6795 260.089C69.4062 258.362 71.7937 257.292 74.4289 257.292ZM80.6191 260.64C79.0387 259.06 76.8464 258.077 74.4289 258.077C72.0114 258.077 69.8229 259.06 68.235 260.644C66.6509 262.225 65.6711 264.417 65.6711 266.834C65.6711 269.252 66.6509 271.444 68.235 273.024C69.8192 274.608 72.0077 275.592 74.4289 275.592C76.8502 275.592 79.0387 274.608 80.6191 273.028C82.2032 271.444 83.183 269.252 83.183 266.834C83.183 264.417 82.2032 262.225 80.6191 260.644V260.64Z" fill="#1CBDE2"/>
<path fill-rule="evenodd" clip-rule="evenodd" d="M149.852 377.04C154.905 377.04 159 381.139 159 386.191C159 391.244 154.905 395.343 149.852 395.343C144.799 395.343 140.7 391.248 140.7 386.191C140.7 381.135 144.796 377.04 149.852 377.04Z" fill="#1CBDE2"/>
<path fill-rule="evenodd" clip-rule="evenodd" d="M157.357 391.732C155.686 393.95 153.032 395.384 150.041 395.384C144.988 395.384 140.889 391.289 140.889 386.236C140.889 383.083 142.484 380.305 144.905 378.657C143.753 380.189 143.073 382.092 143.073 384.153C143.073 389.205 147.169 393.304 152.222 393.304C154.125 393.304 155.889 392.726 157.353 391.732H157.357Z" fill="#A4D0FC"/>
<path fill-rule="evenodd" clip-rule="evenodd" d="M149.853 376.645C152.484 376.645 154.872 377.715 156.598 379.438C158.325 381.165 159.395 383.556 159.395 386.188C159.395 388.819 158.325 391.21 156.598 392.933C154.872 394.66 152.484 395.726 149.853 395.726C147.221 395.726 144.83 394.656 143.103 392.933C141.376 391.206 140.307 388.823 140.307 386.188C140.307 383.552 141.376 381.165 143.103 379.442C144.83 377.715 147.218 376.645 149.853 376.645ZM156.043 379.997C154.459 378.413 152.27 377.434 149.853 377.434C147.435 377.434 145.243 378.417 143.659 379.997C142.075 381.582 141.095 383.77 141.095 386.191C141.095 388.613 142.075 390.801 143.659 392.381C145.243 393.965 147.431 394.949 149.853 394.949C152.274 394.949 154.463 393.965 156.043 392.385C157.627 390.801 158.607 388.609 158.607 386.191C158.607 383.774 157.627 381.582 156.043 379.997Z" fill="#1CBDE2"/>
<path fill-rule="evenodd" clip-rule="evenodd" d="M227.314 200.429C232.367 200.429 236.462 204.524 236.462 209.581C236.462 214.637 232.367 218.732 227.314 218.732C222.261 218.732 218.162 214.637 218.162 209.581C218.162 204.524 222.258 200.429 227.314 200.429Z" fill="#F626FC"/>
<path fill-rule="evenodd" clip-rule="evenodd" d="M234.818 215.121C233.148 217.34 230.494 218.777 227.502 218.777C222.449 218.777 218.354 214.678 218.354 209.626C218.354 206.472 219.949 203.695 222.37 202.047C221.218 203.578 220.535 205.481 220.535 207.542C220.535 212.595 224.63 216.694 229.686 216.694C231.59 216.694 233.354 216.112 234.818 215.121Z" fill="#A4D0FC"/>
<path fill-rule="evenodd" clip-rule="evenodd" d="M227.314 200.038C229.945 200.038 232.333 201.108 234.059 202.835C235.786 204.562 236.856 206.949 236.856 209.584C236.856 212.22 235.786 214.607 234.059 216.334C232.333 218.061 229.945 219.13 227.314 219.13C224.682 219.13 222.291 218.061 220.564 216.334C218.837 214.607 217.768 212.223 217.768 209.584C217.768 206.945 218.837 204.562 220.564 202.835C222.291 201.108 224.678 200.038 227.314 200.038ZM233.504 203.387C231.923 201.806 229.731 200.823 227.314 200.823C224.896 200.823 222.704 201.806 221.124 203.391C219.539 204.971 218.56 207.163 218.56 209.581C218.56 211.998 219.539 214.19 221.124 215.771C222.708 217.355 224.896 218.338 227.314 218.338C229.731 218.338 231.923 217.359 233.504 215.774C235.088 214.19 236.068 211.998 236.068 209.581C236.068 207.163 235.088 204.971 233.504 203.391V203.387Z" fill="#F626FC"/>
<path fill-rule="evenodd" clip-rule="evenodd" d="M339.469 278.126C344.521 278.126 348.62 282.221 348.62 287.278C348.62 292.334 344.521 296.43 339.469 296.43C334.416 296.43 330.32 292.334 330.32 287.278C330.32 282.221 334.416 278.126 339.469 278.126Z" fill="#1CBDE2"/>
<path fill-rule="evenodd" clip-rule="evenodd" d="M346.972 292.819C345.306 295.037 342.648 296.475 339.656 296.475C334.603 296.475 330.508 292.376 330.508 287.323C330.508 284.173 332.103 281.392 334.528 279.744C333.372 281.275 332.689 283.179 332.689 285.24C332.689 290.296 336.788 294.391 341.841 294.391C343.744 294.391 345.512 293.81 346.972 292.819Z" fill="#A4D0FC"/>
<path fill-rule="evenodd" clip-rule="evenodd" d="M339.468 277.732C342.104 277.732 344.491 278.802 346.214 280.529C347.941 282.255 349.007 284.643 349.007 287.274C349.007 289.906 347.937 292.297 346.214 294.024C344.491 295.75 342.104 296.82 339.468 296.82C336.833 296.82 334.449 295.75 332.723 294.024C331 292.297 329.93 289.913 329.93 287.274C329.93 284.635 331 282.255 332.726 280.529C334.453 278.802 336.841 277.732 339.472 277.732H339.468ZM345.658 281.084C344.078 279.5 341.886 278.52 339.465 278.52C337.043 278.52 334.859 279.504 333.274 281.088C331.69 282.668 330.707 284.86 330.707 287.278C330.707 289.695 331.69 291.888 333.274 293.472C334.859 295.056 337.047 296.036 339.465 296.036C341.882 296.036 344.074 295.056 345.658 293.472C347.243 291.888 348.222 289.695 348.222 287.278C348.222 284.86 347.246 282.668 345.662 281.088L345.658 281.084Z" fill="#1CBDE2"/>
<path fill-rule="evenodd" clip-rule="evenodd" d="M304.663 424.889C309.715 424.889 313.811 428.988 313.811 434.041C313.811 439.094 309.715 443.189 304.663 443.189C299.61 443.189 295.511 439.094 295.511 434.041C295.511 428.988 299.606 424.889 304.663 424.889Z" fill="#1CBDE2"/>
<path fill-rule="evenodd" clip-rule="evenodd" d="M312.167 439.582C310.496 441.797 307.842 443.234 304.85 443.234C299.797 443.234 295.698 439.139 295.698 434.083C295.698 430.933 297.294 428.152 299.715 426.507C298.566 428.039 297.883 429.942 297.883 432.003C297.883 437.056 301.978 441.155 307.031 441.155C308.934 441.155 310.702 440.577 312.167 439.582Z" fill="#A4D0FC"/>
<path fill-rule="evenodd" clip-rule="evenodd" d="M304.662 424.495C307.294 424.495 309.681 425.565 311.408 427.288C313.135 429.019 314.205 431.406 314.205 434.038C314.205 436.669 313.135 439.06 311.408 440.787C309.678 442.514 307.294 443.58 304.659 443.58C302.023 443.58 299.632 442.51 297.913 440.787C296.186 439.06 295.116 436.677 295.116 434.038C295.116 431.399 296.186 429.015 297.913 427.288C299.636 425.562 302.023 424.492 304.659 424.492L304.662 424.495ZM310.852 427.848C309.268 426.264 307.08 425.284 304.662 425.284C302.245 425.284 300.053 426.264 298.468 427.848C296.888 429.428 295.908 431.62 295.908 434.041C295.908 436.463 296.892 438.647 298.472 440.232C300.056 441.816 302.249 442.799 304.666 442.799C307.084 442.799 309.272 441.816 310.856 440.235C312.44 438.647 313.424 436.459 313.424 434.041C313.424 431.624 312.44 429.432 310.86 427.848H310.852Z" fill="#1CBDE2"/>
<path d="M295.183 354.992C296.344 350.073 293.298 345.144 288.378 343.983C283.459 342.822 278.53 345.869 277.369 350.788C276.208 355.707 279.255 360.636 284.174 361.797C289.093 362.958 294.022 359.912 295.183 354.992Z" fill="#1CBDE2"/>
<path fill-rule="evenodd" clip-rule="evenodd" d="M293.791 358.447C292.124 360.665 289.466 362.103 286.474 362.103C281.422 362.103 277.322 358.004 277.322 352.951C277.322 349.802 278.918 347.024 281.343 345.372C280.186 346.904 279.507 348.807 279.507 350.868C279.507 355.924 283.603 360.02 288.659 360.02C290.558 360.02 292.327 359.438 293.791 358.447Z" fill="#A4D0FC"/>
<path fill-rule="evenodd" clip-rule="evenodd" d="M286.287 343.368C288.919 343.368 291.31 344.438 293.033 346.161C294.756 347.887 295.822 350.275 295.822 352.906C295.822 355.538 294.756 357.929 293.033 359.656C291.306 361.382 288.919 362.448 286.287 362.448C283.656 362.448 281.265 361.382 279.538 359.656C277.811 357.929 276.741 355.541 276.741 352.906C276.741 350.271 277.811 347.887 279.538 346.161C281.265 344.434 283.652 343.368 286.287 343.368ZM292.481 346.712C290.897 345.132 288.705 344.152 286.287 344.152C283.87 344.152 281.678 345.132 280.093 346.716C278.509 348.296 277.533 350.489 277.533 352.906C277.533 355.324 278.509 357.516 280.093 359.1C281.678 360.684 283.87 361.664 286.287 361.664C288.705 361.664 290.897 360.684 292.481 359.1C294.065 357.516 295.045 355.324 295.045 352.906C295.045 350.489 294.065 348.296 292.481 346.716V346.712Z" fill="#1CBDE2"/>
<path fill-rule="evenodd" clip-rule="evenodd" d="M318.105 167.402C323.158 167.402 327.253 171.498 327.253 176.554C327.253 181.611 323.158 185.706 318.105 185.706C313.052 185.706 308.953 181.607 308.953 176.554C308.953 171.502 313.049 167.402 318.105 167.402Z" fill="#1CBDE2"/>
<path fill-rule="evenodd" clip-rule="evenodd" d="M325.609 182.095C323.938 184.31 321.284 185.747 318.293 185.747C313.24 185.747 309.141 181.652 309.141 176.599C309.141 173.446 310.736 170.668 313.157 169.02C312.009 170.552 311.325 172.455 311.325 174.516C311.325 179.569 315.421 183.668 320.474 183.668C322.377 183.668 324.145 183.09 325.609 182.095Z" fill="#A4D0FC"/>
<path fill-rule="evenodd" clip-rule="evenodd" d="M318.105 167.008C320.736 167.008 323.124 168.078 324.851 169.801C326.577 171.528 327.647 173.919 327.647 176.551C327.647 179.182 326.577 181.573 324.851 183.3C323.124 185.027 320.736 186.093 318.105 186.093C315.473 186.093 313.078 185.023 311.359 183.3C309.629 181.573 308.562 179.186 308.562 176.551C308.562 173.915 309.629 171.528 311.359 169.805C313.082 168.078 315.47 167.008 318.105 167.008ZM324.295 170.36C322.711 168.776 320.522 167.797 318.105 167.797C315.687 167.797 313.495 168.776 311.911 170.36C310.327 171.945 309.347 174.133 309.347 176.554C309.347 178.976 310.331 181.16 311.911 182.744C313.495 184.329 315.687 185.308 318.105 185.308C320.522 185.308 322.711 184.329 324.295 182.748C325.879 181.16 326.863 178.972 326.863 176.554C326.863 174.137 325.879 171.945 324.299 170.36H324.295Z" fill="#1CBDE2"/>
<path fill-rule="evenodd" clip-rule="evenodd" d="M224.614 172.789C234.814 172.789 244.044 176.922 250.726 183.604C257.408 190.286 261.541 199.52 261.541 209.716C261.541 219.911 257.408 229.145 250.726 235.827C244.044 242.509 234.814 246.642 224.614 246.642C214.415 246.642 205.184 242.509 198.502 235.827C191.821 229.145 187.688 219.911 187.688 209.716C187.688 199.52 191.821 190.286 198.502 183.604C205.184 176.922 214.419 172.789 224.614 172.789ZM224.614 175.101C205.496 175.101 189.996 190.601 189.996 209.719C189.996 228.838 205.496 244.337 224.614 244.337C243.733 244.337 259.233 228.841 259.233 209.719C259.233 190.597 243.733 175.101 224.614 175.101Z" fill="url(#paint0_linear_48_6718)"/>
<path fill-rule="evenodd" clip-rule="evenodd" d="M224.615 150.882C240.865 150.882 255.573 157.47 266.219 168.112C276.865 178.758 283.453 193.469 283.453 209.716C283.453 225.962 276.865 240.674 266.219 251.32C255.573 261.965 240.865 268.553 224.615 268.553C208.364 268.553 193.656 261.965 183.01 251.32C172.364 240.674 165.776 225.962 165.776 209.716C165.776 193.469 172.361 178.758 183.01 168.112C193.656 157.47 208.372 150.882 224.615 150.882ZM224.615 153.19C193.397 153.19 168.089 178.503 168.089 209.716C168.089 240.929 193.397 266.245 224.615 266.245C255.832 266.245 281.141 240.936 281.141 209.716C281.141 178.495 255.832 153.19 224.615 153.19Z" fill="url(#paint1_linear_48_6718)"/>
<path fill-rule="evenodd" clip-rule="evenodd" d="M224.614 124.207C248.226 124.207 269.604 133.776 285.078 149.253C300.551 164.726 310.124 186.104 310.124 209.716C310.124 233.327 300.551 254.709 285.078 270.183C269.604 285.656 248.226 295.228 224.614 295.228C201.002 295.228 179.62 285.656 164.146 270.183C148.673 254.709 139.101 233.331 139.101 209.716C139.101 186.1 148.673 164.726 164.146 149.253C179.62 133.776 200.998 124.207 224.614 124.207ZM224.614 126.519C178.663 126.519 141.413 163.769 141.413 209.719C141.413 255.67 178.663 292.92 224.614 292.92C270.565 292.92 307.815 255.666 307.815 209.719C307.815 163.772 270.565 126.519 224.614 126.519Z" fill="url(#paint2_linear_48_6718)"/>
<path fill-rule="evenodd" clip-rule="evenodd" d="M224.615 83.8572C259.368 83.8572 290.837 97.9453 313.612 120.72C336.387 143.494 350.475 174.963 350.475 209.716C350.475 244.469 336.387 275.937 313.612 298.716C290.837 321.49 259.368 335.578 224.615 335.578C189.862 335.578 158.393 321.49 135.618 298.716C112.843 275.937 98.7549 244.473 98.7549 209.716C98.7549 174.959 112.843 143.494 135.618 120.72C158.397 97.9453 189.862 83.8572 224.615 83.8572ZM224.615 86.1658C156.381 86.1658 101.064 141.482 101.064 209.716C101.064 277.949 156.381 333.266 224.615 333.266C292.849 333.266 348.166 277.949 348.166 209.716C348.166 141.482 292.849 86.1658 224.615 86.1658Z" fill="url(#paint3_linear_48_6718)"/>
<path fill-rule="evenodd" clip-rule="evenodd" d="M224.615 44.1865C270.326 44.1865 311.709 62.7155 341.665 92.6711C371.621 122.623 390.146 164.009 390.146 209.716C390.146 255.423 371.621 296.809 341.665 326.764C311.712 356.716 270.326 375.245 224.615 375.245C178.904 375.245 137.521 356.716 107.565 326.764C77.613 296.809 59.0801 255.423 59.0801 209.716C59.0801 164.009 77.6092 122.623 107.565 92.6711C137.521 62.7155 178.904 44.1865 224.615 44.1865ZM224.615 46.4989C134.473 46.4989 61.3962 119.575 61.3962 209.716C61.3962 299.857 134.473 372.933 224.615 372.933C314.757 372.933 387.837 299.857 387.837 209.716C387.837 119.575 314.76 46.4989 224.615 46.4989Z" fill="url(#paint4_linear_48_6718)"/>
<path fill-rule="evenodd" clip-rule="evenodd" d="M473.459 120.686L509.365 177.849L511.842 176.303L475.922 119.132L473.459 120.686Z" fill="#D8D8D8" fill-opacity="0.65"/>
<path d="M441.514 140.726L439.044 142.278L474.958 199.441L477.428 197.889L441.514 140.726Z" fill="#D8D8D8" fill-opacity="0.65"/>
<path d="M468.26 148.21L461.441 152.492L475.183 174.373L482.002 170.09L468.26 148.21Z" fill="#C8C8C8" fill-opacity="0.74"/>
<path fill-rule="evenodd" clip-rule="evenodd" d="M408.78 199.089L410.331 201.559L422.155 194.134L420.601 191.66L408.78 199.089Z" fill="white"/>
<path fill-rule="evenodd" clip-rule="evenodd" d="M418.66 192.88L420.207 195.35L433.439 187.039L431.889 184.565L418.66 192.88Z" fill="#C8C8C8" fill-opacity="0.74"/>
<path fill-rule="evenodd" clip-rule="evenodd" d="M424.114 168.664L451.994 151.152L461.383 152.383L475.681 175.147L472.277 183.439L444.396 200.951L424.114 168.664Z" fill="#CECECE" fill-opacity="0.5"/>
<path d="M436.288 161.027L424.114 168.675L444.398 200.96L456.572 193.311L436.288 161.027Z" fill="#D8D8D8" fill-opacity="0.65"/>
<path d="M428.968 165.577L424.112 168.624L444.381 200.922L449.237 197.875L428.968 165.577Z" fill="#D8D8D8" fill-opacity="0.65"/>
<path fill-rule="evenodd" clip-rule="evenodd" d="M461.383 152.383L475.681 175.147L472.276 183.439L451.994 151.152L461.383 152.383Z" fill="#7F7F7F"/>
<path fill-rule="evenodd" clip-rule="evenodd" d="M420.814 175.162L437.11 201.101L444.396 200.951L424.114 168.664L420.814 175.162Z" fill="#BCBCBC"/>
<path d="M493.932 124.827L470.29 139.681L490.574 171.965L514.216 157.112L493.932 124.827Z" fill="#D8D8D8" fill-opacity="0.65"/>
<path fill-rule="evenodd" clip-rule="evenodd" d="M502.739 164.302L490.565 171.948L470.283 139.658L482.453 132.011L502.739 164.302Z" fill="#D8D8D8" fill-opacity="0.65"/>
<path fill-rule="evenodd" clip-rule="evenodd" d="M495.423 168.9L490.565 171.949L470.283 139.658L475.133 136.61L495.423 168.9Z" fill="#BCBCBC"/>
<path fill-rule="evenodd" clip-rule="evenodd" d="M466.983 146.16L483.283 172.095L490.565 171.948L470.283 139.658L466.983 146.16Z" fill="#C8C8C8" fill-opacity="0.74"/>
<path fill-rule="evenodd" clip-rule="evenodd" d="M417.996 176.933L434.288 202.872L437.111 201.101L420.815 175.162L417.996 176.933Z" fill="#C8C8C8" fill-opacity="0.74"/>
<path fill-rule="evenodd" clip-rule="evenodd" d="M397.931 171.734C406.643 171.753 417.383 179.002 424.771 190.763C432.159 202.527 434.024 215.343 430.27 223.207L397.934 171.738L397.931 171.734Z" fill="#7F7F7F"/>
<path fill-rule="evenodd" clip-rule="evenodd" d="M424.302 190.034C424.456 190.275 424.614 190.519 424.772 190.763C432.159 202.527 434.025 215.343 430.271 223.207L419.291 205.729C423.533 201.863 424.667 196.037 424.302 190.038V190.034Z" fill="white"/>
<path fill-rule="evenodd" clip-rule="evenodd" d="M407.121 198.405C405.754 199.265 405.345 201.063 406.201 202.429C407.057 203.792 408.859 204.205 410.221 203.345C411.588 202.49 411.997 200.688 411.141 199.325C410.285 197.962 408.487 197.549 407.121 198.405Z" fill="#C8C8C8" fill-opacity="0.74"/>
<path fill-rule="evenodd" clip-rule="evenodd" d="M461.293 147.154C461.098 147.274 461.041 147.533 461.165 147.729L479.342 176.667C479.462 176.862 479.713 176.919 479.908 176.795L482.026 175.466C482.228 175.342 482.281 175.083 482.157 174.888L463.981 145.953C463.853 145.758 463.602 145.702 463.406 145.822L461.289 147.154H461.293Z" fill="#D8D8D8" fill-opacity="0.65"/>
<path fill-rule="evenodd" clip-rule="evenodd" d="M495.899 127.95L512.229 153.949L517.683 147.736L503.861 125.739L495.899 127.95Z" fill="white"/>
<path d="M508.466 124.696L504.702 127.061L516.822 146.352L520.586 143.987L508.466 124.696Z" fill="#D8D8D8" fill-opacity="0.65"/>
<path fill-rule="evenodd" clip-rule="evenodd" d="M360.816 29.7792L436.303 149.932L483.7 120.157L408.224 0L360.816 29.7792Z" fill="#FEFEFE" fill-opacity="0.42"/>
<path d="M408.067 4.51068L364.946 31.6021L436.446 145.404L479.567 118.313L408.067 4.51068Z" fill="#BCBCBC" fill-opacity="0.1"/>
<path d="M442.779 59.7508L398.314 87.6321L399.974 90.2781L444.438 62.3968L442.779 59.7508Z" fill="#FEFEFE" fill-opacity="0.42"/>
<path d="M474.677 110.535L431.57 137.649L432.236 138.707L475.343 111.593L474.677 110.535Z" fill="#FEFEFE" fill-opacity="0.42"/>
<path fill-rule="evenodd" clip-rule="evenodd" d="M427.137 130.592L427.801 131.651L470.922 104.559L470.261 103.505L427.137 130.592Z" fill="#FEFEFE" fill-opacity="0.42"/>
<path fill-rule="evenodd" clip-rule="evenodd" d="M422.699 123.539L423.36 124.594L466.488 97.5022L465.824 96.4436L422.699 123.539Z" fill="#FEFEFE" fill-opacity="0.42"/>
<path d="M461.425 89.4525L418.259 116.478L418.922 117.538L462.089 90.512L461.425 89.4525Z" fill="#FEFEFE" fill-opacity="0.42"/>
<path fill-rule="evenodd" clip-rule="evenodd" d="M413.832 109.42L414.5 110.479L457.621 83.3913L456.96 82.3328L413.832 109.42Z" fill="#FEFEFE" fill-opacity="0.42"/>
<path fill-rule="evenodd" clip-rule="evenodd" d="M409.396 102.36L410.067 103.419L453.188 76.3308L452.52 75.2722L409.396 102.36Z" fill="#FEFEFE" fill-opacity="0.42"/>
<path fill-rule="evenodd" clip-rule="evenodd" d="M404.966 95.3063L405.63 96.3611L448.759 69.2734L448.09 68.2148L404.966 95.3063Z" fill="#FEFEFE" fill-opacity="0.42"/>
<path d="M439.278 54.1875L396.074 81.1528L396.738 82.2164L439.942 55.2511L439.278 54.1875Z" fill="#FEFEFE" fill-opacity="0.42"/>
<path d="M434.829 47.1096L391.658 74.1277L392.321 75.1873L435.493 48.1693L434.829 47.1096Z" fill="#FEFEFE" fill-opacity="0.42"/>
<path fill-rule="evenodd" clip-rule="evenodd" d="M387.229 67.0738L387.897 68.1324L431.021 41.0409L430.357 39.9861L387.229 67.0738Z" fill="#FEFEFE" fill-opacity="0.42"/>
<path fill-rule="evenodd" clip-rule="evenodd" d="M382.799 60.0164L383.46 61.075L426.584 33.9835L425.92 32.9287L382.799 60.0164Z" fill="#FEFEFE" fill-opacity="0.42"/>
<path fill-rule="evenodd" clip-rule="evenodd" d="M378.366 52.963L379.034 54.0179L422.155 26.9302L421.487 25.8716L378.366 52.963Z" fill="#FEFEFE" fill-opacity="0.42"/>
<path d="M417.079 18.8423L373.908 45.8604L374.571 46.92L417.743 19.9019L417.079 18.8423Z" fill="#FEFEFE" fill-opacity="0.42"/>
<path d="M412.612 11.7407L369.497 38.8491L370.162 39.9074L413.277 12.7989L412.612 11.7407Z" fill="#FEFEFE" fill-opacity="0.42"/>
<path fill-rule="evenodd" clip-rule="evenodd" d="M399.812 9.71472L471.3 123.52L472.355 122.852L400.863 9.05029L399.812 9.71472Z" fill="#FEFEFE" fill-opacity="0.42"/>
<path fill-rule="evenodd" clip-rule="evenodd" d="M390.75 15.4056L462.243 129.207L463.297 128.543L391.809 14.7412L390.75 15.4056Z" fill="#FEFEFE" fill-opacity="0.42"/>
<path d="M382.735 20.4009L381.677 21.0659L453.174 134.865L454.233 134.2L382.735 20.4009Z" fill="#FEFEFE" fill-opacity="0.42"/>
<path fill-rule="evenodd" clip-rule="evenodd" d="M372.638 26.7836L444.127 140.585L445.189 139.924L373.693 26.1191L372.638 26.7836Z" fill="#FEFEFE" fill-opacity="0.42"/>
<path fill-rule="evenodd" clip-rule="evenodd" d="M466.112 197.399L541.595 317.549L588.999 287.773L513.516 167.616L466.112 197.399Z" fill="#FEFEFE" fill-opacity="0.4"/>
<path fill-rule="evenodd" clip-rule="evenodd" d="M470.249 199.228L541.742 313.033L584.866 285.941L513.377 172.14L470.249 199.228Z" fill="white" fill-opacity="0.2"/>
<path d="M548.063 227.329L503.621 255.24L505.284 257.888L549.726 229.977L548.063 227.329Z" fill="#FEFEFE" fill-opacity="0.42"/>
<path d="M579.977 278.151L536.875 305.272L537.539 306.327L580.641 279.206L579.977 278.151Z" fill="#FEFEFE" fill-opacity="0.42"/>
<path fill-rule="evenodd" clip-rule="evenodd" d="M532.425 298.209L533.093 299.267L576.221 272.18L575.553 271.121L532.425 298.209Z" fill="#FEFEFE" fill-opacity="0.42"/>
<path fill-rule="evenodd" clip-rule="evenodd" d="M527.999 291.152L528.663 292.206L571.784 265.119L571.12 264.06L527.999 291.152Z" fill="#FEFEFE" fill-opacity="0.42"/>
<path fill-rule="evenodd" clip-rule="evenodd" d="M523.562 284.098L524.231 285.153L567.352 258.065L566.691 257.007L523.562 284.098Z" fill="#FEFEFE" fill-opacity="0.42"/>
<path d="M562.252 249.904L519.118 276.982L519.783 278.041L562.916 250.962L562.252 249.904Z" fill="#FEFEFE" fill-opacity="0.42"/>
<path fill-rule="evenodd" clip-rule="evenodd" d="M514.695 269.98L515.356 271.038L558.484 243.947L557.82 242.892L514.695 269.98Z" fill="#FEFEFE" fill-opacity="0.42"/>
<path d="M553.386 235.791L510.256 262.867L510.919 263.923L554.049 236.846L553.386 235.791Z" fill="#FEFEFE" fill-opacity="0.42"/>
<path fill-rule="evenodd" clip-rule="evenodd" d="M501.396 248.808L502.064 249.867L545.188 222.779L544.52 221.717L501.396 248.808Z" fill="#FEFEFE" fill-opacity="0.42"/>
<path fill-rule="evenodd" clip-rule="evenodd" d="M496.966 241.747L497.63 242.806L540.747 215.718L540.09 214.659L496.966 241.747Z" fill="#FEFEFE" fill-opacity="0.42"/>
<path d="M535.647 207.563L492.519 234.648L493.181 235.704L536.31 208.618L535.647 207.563Z" fill="#FEFEFE" fill-opacity="0.42"/>
<path d="M531.25 200.625L488.079 227.643L488.742 228.702L531.914 201.684L531.25 200.625Z" fill="#FEFEFE" fill-opacity="0.42"/>
<path d="M526.761 193.448L483.688 220.615L484.354 221.672L527.428 194.505L526.761 193.448Z" fill="#FEFEFE" fill-opacity="0.42"/>
<path fill-rule="evenodd" clip-rule="evenodd" d="M479.229 213.522L479.889 214.577L523.017 187.489L522.346 186.434L479.229 213.522Z" fill="#FEFEFE" fill-opacity="0.42"/>
<path d="M517.906 179.385L474.823 206.536L475.49 207.594L518.573 180.442L517.906 179.385Z" fill="#FEFEFE" fill-opacity="0.42"/>
<path fill-rule="evenodd" clip-rule="evenodd" d="M505.108 177.331L576.594 291.137L577.656 290.472L506.163 176.667L505.108 177.331Z" fill="#FEFEFE" fill-opacity="0.42"/>
<path d="M497.099 182.336L496.04 183.001L567.54 296.803L568.598 296.138L497.099 182.336Z" fill="#FEFEFE" fill-opacity="0.42"/>
<path fill-rule="evenodd" clip-rule="evenodd" d="M486.991 188.713L558.48 302.514L559.542 301.854L488.05 188.049L486.991 188.713Z" fill="#FEFEFE" fill-opacity="0.42"/>
<path d="M479.003 193.766L477.941 194.432L549.419 308.244L550.481 307.577L479.003 193.766Z" fill="#FEFEFE" fill-opacity="0.42"/>
<path fill-rule="evenodd" clip-rule="evenodd" d="M401.61 234.356C394.226 231.841 387.676 227.306 382.908 220.831C378.137 214.359 375.746 206.761 375.536 198.961C375.51 197.974 376.287 197.148 377.278 197.121C378.269 197.095 379.091 197.872 379.117 198.863C379.316 206.003 381.478 212.854 385.791 218.706C390.105 224.558 396.006 228.658 402.766 230.962C403.701 231.278 404.204 232.299 403.885 233.237C403.566 234.172 402.549 234.675 401.61 234.356Z" fill="#C8C8C8" fill-opacity="0.74"/>
<path fill-rule="evenodd" clip-rule="evenodd" d="M405.938 225.707C400.034 223.695 394.793 220.069 390.975 214.889C387.158 209.708 385.251 203.627 385.082 197.399C385.052 196.408 385.833 195.586 386.824 195.556C387.815 195.53 388.637 196.311 388.667 197.298C388.821 202.873 390.506 208.203 393.862 212.76C397.222 217.321 401.813 220.512 407.095 222.314C408.029 222.636 408.529 223.654 408.213 224.588C407.89 225.527 406.877 226.026 405.938 225.707Z" fill="#C8C8C8" fill-opacity="0.74"/>
<path fill-rule="evenodd" clip-rule="evenodd" d="M409.069 216.882C404.936 215.474 401.249 212.929 398.573 209.292C395.893 205.654 394.553 201.379 394.432 197.017C394.402 196.026 395.183 195.204 396.174 195.173C397.162 195.147 397.987 195.924 398.017 196.915C398.123 200.62 399.237 204.145 401.46 207.163C403.682 210.178 406.719 212.291 410.225 213.492C411.16 213.811 411.659 214.829 411.34 215.767C411.025 216.702 410.004 217.201 409.069 216.886V216.882Z" fill="#C8C8C8" fill-opacity="0.74"/>
<path fill-rule="evenodd" clip-rule="evenodd" d="M466.597 272.427C465.324 289.864 462.753 292.27 446.131 293.61C462.753 294.954 465.324 297.36 466.597 314.797C467.866 297.36 470.437 294.954 487.063 293.61C470.437 292.27 467.866 289.864 466.597 272.427Z" fill="#F8BD58"/>
<path fill-rule="evenodd" clip-rule="evenodd" d="M513.843 332.305C512.574 349.741 510.003 352.144 493.377 353.488C510.003 354.831 512.574 357.238 513.843 374.674C515.116 357.238 517.687 354.831 534.313 353.488C517.687 352.144 515.116 349.741 513.843 332.305Z" fill="#F8BD58"/>
<path fill-rule="evenodd" clip-rule="evenodd" d="M20.7375 323.645C19.4687 341.081 16.8973 343.487 0.267578 344.831C16.8935 346.171 19.4649 348.578 20.7375 366.014C22.0063 348.578 24.5777 346.171 41.2074 344.831C24.5815 343.487 22.01 341.081 20.7375 323.645Z" fill="#F8BD58"/>
<path fill-rule="evenodd" clip-rule="evenodd" d="M370.757 462.5C369.965 473.367 368.362 474.865 358.001 475.702C368.362 476.539 369.965 478.04 370.757 488.908C371.545 478.04 373.152 476.543 383.512 475.702C373.148 474.865 371.545 473.367 370.757 462.5Z" fill="#F8BD58"/>
<defs>
<linearGradient id="paint0_linear_48_6718" x1="224.614" y1="172.789" x2="224.614" y2="246.642" gradientUnits="userSpaceOnUse">
<stop stop-color="#F8BD58"/>
<stop offset="0.41" stop-color="#8D5393"/>
<stop offset="0.8" stop-color="#6F6EA3"/>
<stop offset="1" stop-color="#09CAD7"/>
</linearGradient>
<linearGradient id="paint1_linear_48_6718" x1="224.615" y1="150.882" x2="224.615" y2="268.553" gradientUnits="userSpaceOnUse">
<stop stop-color="#F8BD58"/>
<stop offset="0.41" stop-color="#8D5393"/>
<stop offset="0.8" stop-color="#6F6EA3"/>
<stop offset="1" stop-color="#09CAD7"/>
</linearGradient>
<linearGradient id="paint2_linear_48_6718" x1="224.612" y1="124.207" x2="224.612" y2="295.228" gradientUnits="userSpaceOnUse">
<stop stop-color="#F8BD58"/>
<stop offset="0.41" stop-color="#8D5393"/>
<stop offset="0.8" stop-color="#6F6EA3"/>
<stop offset="1" stop-color="#09CAD7"/>
</linearGradient>
<linearGradient id="paint3_linear_48_6718" x1="224.615" y1="83.8572" x2="224.615" y2="335.578" gradientUnits="userSpaceOnUse">
<stop stop-color="#F8BD58"/>
<stop offset="0.41" stop-color="#8D5393"/>
<stop offset="0.8" stop-color="#6F6EA3"/>
<stop offset="1" stop-color="#09CAD7"/>
</linearGradient>
<linearGradient id="paint4_linear_48_6718" x1="224.613" y1="44.1865" x2="224.613" y2="375.245" gradientUnits="userSpaceOnUse">
<stop stop-color="#F8BD58"/>
<stop offset="0.41" stop-color="#8D5393"/>
<stop offset="0.8" stop-color="#6F6EA3"/>
<stop offset="1" stop-color="#09CAD7"/>
</linearGradient>
</defs>
</svg>
