<svg width="41" height="41" viewBox="0 0 41 41" fill="none" xmlns="http://www.w3.org/2000/svg">
<path d="M29.8231 21.9761C32.1308 21.9761 34 23.8492 34 26.1616V27.7549H33.9885C33.91 29.5586 33.4162 31.8178 31.3969 33.6632C29.1908 35.6819 25.3808 37 19 37C12.6169 37 8.80923 35.6819 6.60308 33.6632C4.58385 31.8178 4.09 29.5563 4.01154 27.7549H4V26.1593C4 23.8492 5.86923 21.9761 8.17692 21.9761H29.8231ZM10.9231 2.31344C10.005 2.31344 9.12456 2.67889 8.4754 3.32939C7.82623 3.97989 7.46154 4.86215 7.46154 5.7821V15.0318C7.46154 15.9518 7.82623 16.8341 8.4754 17.4846C9.12456 18.1351 10.005 18.5005 10.9231 18.5005H27.0769C27.995 18.5005 28.8754 18.1351 29.5246 17.4846C30.1738 16.8341 30.5385 15.9518 30.5385 15.0318V5.7821C30.5385 4.86215 30.1738 3.97989 29.5246 3.32939C28.8754 2.67889 27.995 2.31344 27.0769 2.31344H20.1538V1.15723C20.1604 1.00364 20.135 0.850374 20.0793 0.707133C20.0236 0.563892 19.9389 0.433801 19.8304 0.325103C19.7219 0.216405 19.5921 0.13147 19.4492 0.0756799C19.3062 0.0198902 19.1533 -0.00553804 19 0.00100642C18.3631 0.00100642 17.8462 0.532867 17.8462 1.15723V2.31344H10.9231ZM12.0769 10.407C12.0769 9.79368 12.3201 9.2055 12.7528 8.77183C13.1856 8.33817 13.7726 8.09454 14.3846 8.09454C14.9967 8.09454 15.5836 8.33817 16.0164 8.77183C16.4492 9.2055 16.6923 9.79368 16.6923 10.407C16.6923 11.0203 16.4492 11.6084 16.0164 12.0421C15.5836 12.4758 14.9967 12.7194 14.3846 12.7194C13.7726 12.7194 13.1856 12.4758 12.7528 12.0421C12.3201 11.6084 12.0769 11.0203 12.0769 10.407ZM21.3077 10.407C21.3077 9.79368 21.5508 9.2055 21.9836 8.77183C22.4164 8.33817 23.0033 8.09454 23.6154 8.09454C24.2274 8.09454 24.8144 8.33817 25.2472 8.77183C25.6799 9.2055 25.9231 9.79368 25.9231 10.407C25.9231 11.0203 25.6799 11.6084 25.2472 12.0421C24.8144 12.4758 24.2274 12.7194 23.6154 12.7194C23.0033 12.7194 22.4164 12.4758 21.9836 12.0421C21.5508 11.6084 21.3077 11.0203 21.3077 10.407Z" fill="url(#paint0_linear_20_172)"/>
<defs>
<linearGradient id="paint0_linear_20_172" x1="19" y1="0" x2="19" y2="37" gradientUnits="userSpaceOnUse">
<stop stop-color="#78F7D8"/>
<stop offset="1" stop-color="#46917F"/>
</linearGradient>
</defs>
</svg>
