<svg width="44" height="45" viewBox="0 0 44 45" fill="none" xmlns="http://www.w3.org/2000/svg">
<path d="M30.25 22.6668C30.25 21.4202 30.14 20.2102 29.9933 19.0002H36.19C36.4833 20.1735 36.6666 21.4018 36.6666 22.6668C36.6666 23.3452 36.6116 24.0052 36.52 24.6468C37.785 24.8302 38.9583 25.2335 40.04 25.8202C40.2233 24.7935 40.3333 23.7485 40.3333 22.6668C40.3333 12.5835 32.0833 4.3335 22 4.3335C11.8616 4.3335 3.66663 12.5835 3.66663 22.6668C3.66663 32.7502 11.9166 41.0002 22 41.0002C23.0816 41.0002 24.1266 40.8902 25.1533 40.7068C24.2825 39.1099 23.8285 37.3191 23.8333 35.5002C23.8333 34.9685 23.8883 34.4552 23.9616 33.9418C23.375 35.0968 22.7333 36.2152 22 37.2602C20.4783 35.0602 19.25 32.6218 18.4983 30.0002H25.3183C26.4194 28.0868 28.0751 26.5526 30.0666 25.6002C30.1766 24.6285 30.25 23.6568 30.25 22.6668ZM22 8.05516C23.5216 10.2552 24.75 12.7118 25.5016 15.3335H18.4983C19.25 12.7118 20.4783 10.2552 22 8.05516ZM7.80996 26.3335C7.51663 25.1602 7.33329 23.9318 7.33329 22.6668C7.33329 21.4018 7.51663 20.1735 7.80996 19.0002H14.0066C13.86 20.2102 13.75 21.4202 13.75 22.6668C13.75 23.9135 13.86 25.1235 14.0066 26.3335H7.80996ZM9.31329 30.0002H14.6666C15.3083 32.2918 16.1333 34.4918 17.2333 36.5268C13.8934 35.3761 11.0812 33.0585 9.31329 30.0002ZM14.6666 15.3335H9.31329C11.0708 12.2664 13.8868 9.94577 17.2333 8.80683C16.1333 10.8418 15.3083 13.0418 14.6666 15.3335ZM26.29 26.3335H17.71C17.5266 25.1235 17.4166 23.9135 17.4166 22.6668C17.4166 21.4202 17.5266 20.1918 17.71 19.0002H26.29C26.455 20.1918 26.5833 21.4202 26.5833 22.6668C26.5833 23.9135 26.455 25.1235 26.29 26.3335ZM26.7483 8.80683C30.1216 9.96183 32.9266 12.2902 34.6866 15.3335H29.2783C28.7036 13.0631 27.854 10.8714 26.7483 8.80683ZM41.25 32.2918L32.5416 41.0002L27.5 35.5002L29.6266 33.3735L32.5416 36.2885L39.1233 29.7068L41.25 32.2918Z" fill="url(#paint0_linear_20_180)"/>
<defs>
<linearGradient id="paint0_linear_20_180" x1="22.4583" y1="4.3335" x2="22.4583" y2="41.0002" gradientUnits="userSpaceOnUse">
<stop stop-color="#78F7D8"/>
<stop offset="1" stop-color="#46917F"/>
</linearGradient>
</defs>
</svg>
