<svg width="426" height="416" viewBox="0 0 426 416" fill="none" xmlns="http://www.w3.org/2000/svg">
<path d="M205.776 398.699C311.016 398.699 396.329 313.385 396.329 208.146C396.329 102.906 311.016 17.5925 205.776 17.5925C100.536 17.5925 15.2227 102.906 15.2227 208.146C15.2227 313.385 100.536 398.699 205.776 398.699Z" stroke="url(#paint0_linear_71_3203)" stroke-width="2" stroke-miterlimit="10"/>
<path d="M58.0684 328.53C62.9932 334.567 68.2828 340.304 73.9098 345.694H337.651C343.269 340.304 348.559 334.567 353.493 328.53H58.0684Z" fill="#FEFAFC" fill-opacity="0.1"/>
<path d="M63.5491 57.3008C59.509 61.4778 64.8077 82.2714 65.7288 93.2154C69.5592 138.633 64.7621 154.338 52.7511 184.89C45.1176 204.306 27.744 224.489 17.5205 237.786C17.8579 239.92 18.2319 242.036 18.6331 244.151C25.3181 235.797 34.7573 225.993 46.2759 207.161C70.0791 168.227 81.3514 118.724 64.4794 56.4526C63.5583 57.3008 64.4611 56.4344 63.5583 57.3008H63.5491Z" fill="#588157"/>
<path d="M83.8598 100.575C84.9907 94.3555 85.3372 88.4458 84.79 83.3112C81.6984 54.7109 44.6164 50.0779 44.6164 50.0779C31.666 47.0045 21.8712 56.6261 15.5966 71.3549C20.2478 68.245 25.2091 65.8555 25.3915 69.6494C25.6012 74.1456 17.6668 79.8547 10.7448 86.5032C8.80221 94.7842 7.70781 103.685 7.49805 112.377C11.2737 105.227 15.6969 97.9579 17.831 98.4869C20.6217 99.18 13.1889 116.535 8.09997 127.689C8.72013 133.407 9.79629 138.761 11.3284 143.458C14.3836 135.97 19.5091 124.652 21.6067 126.987C23.8228 129.449 17.5848 140.503 14.3654 150.69C17.7945 157.092 22.5278 161.223 28.6473 161.707C31.6752 161.944 34.63 161.752 37.5028 161.187C41.3059 150.042 42.3182 127.607 47.7081 122.509C53.1528 117.365 53.8094 141.333 51.6844 155.113C56.0256 152.185 60.0475 148.437 63.6864 144.142C62.7288 133.581 61.0051 110.516 64.188 110.516C67.3708 110.516 71.1283 123.996 72.8702 130.763C75.588 125.902 77.9044 120.785 79.7649 115.623C76.1625 108.3 69.7329 94.2917 71.7484 91.2821C73.2988 88.9565 79.0992 94.9301 83.8689 100.584L83.8598 100.575ZM21.9532 92.8234C20.6673 87.4152 28.6473 81.2318 30.9638 84.8434C33.2803 88.4458 23.2392 98.2315 21.9532 92.8234Z" fill="#588157"/>
<path d="M64.4802 56.4436C41.0144 79.1706 27.3162 146.759 26.5684 161.378" stroke="#21261F" stroke-width="0.5" stroke-linecap="round" stroke-linejoin="round"/>
<path d="M167.189 65.5271C168.521 64.1956 182.164 69.549 191.932 76.5258C191.604 72.6225 190.947 68.5641 189.871 64.4054C183.587 61.3502 166.013 52.7044 155.169 46.3022C141.781 38.4042 143.496 29.4758 154.139 32.5674C161.243 34.6286 175.069 42.8092 183.487 48.0167C181.152 43.6391 178.279 39.2615 174.741 34.966C150.709 5.78201 114.312 -4.86103 95.0866 3.03689C75.8616 10.9348 76.1991 26.7306 76.1991 26.7306C39.8012 27.4146 30.5352 65.5271 58.6887 92.65C64.0877 97.8575 69.7239 102.135 75.4056 105.655C61.5159 85.4452 60.9413 64.1774 66.6322 62.3078C73.4996 60.0551 73.7823 75.9513 75.5151 83.7671C78.2511 96.0609 81.434 104.907 84.9999 110.89C91.1741 113.845 97.2936 116.015 103.14 117.593C98.5522 111.793 91.1103 100.758 89.9338 89.0932C88.2192 72.0479 93.7095 65.5271 99.8928 76.5167C105.137 85.8282 107.909 107.734 117.002 120.457C125.009 121.624 131.941 121.834 136.975 121.834C136.975 121.834 123.924 113.69 120.841 94.4193C117.75 75.1396 124.271 70.6799 131.831 87.1598C137.768 100.11 144.763 114.976 151.658 121.405C154.412 121.223 157.221 120.977 160.003 120.63C156.902 117.73 149.369 109.859 146.934 99.8639C143.842 87.1689 168.949 119.052 168.968 119.089C177.167 117.219 184.043 114.1 186.761 108.92C187.764 107.005 188.749 104.533 189.615 101.615C189.615 101.615 187.791 89.2209 181.955 81.3321C176.118 73.4433 165.475 67.2508 167.189 65.5362V65.5271ZM91.9949 65.5271C83.7504 66.5577 83.0756 43.9766 87.5352 43.557C94.7492 42.873 100.239 64.4966 91.9949 65.5271ZM120.148 69.3484C114.658 70.7711 112.597 55.9146 117.075 56.4436C121.553 56.9817 125.648 67.9257 120.148 69.3484ZM138.352 33.2514C137.321 39.7722 109.514 33.2514 110.545 26.7306C111.576 20.2099 139.382 26.7306 138.352 33.2514Z" fill="#588157"/>
<path d="M76.208 26.7307C135.607 45.9557 172.533 91.4645 184.453 111.975L76.208 26.7307Z" fill="#588157"/>
<path d="M76.208 26.7307C135.607 45.9557 172.533 91.4645 184.453 111.975" stroke="#21261F" stroke-width="0.5" stroke-linecap="round" stroke-linejoin="round"/>
<path d="M198.435 87.1599C190.591 88.6556 197.404 110.416 201.864 108.92C206.323 107.415 205.639 85.7919 198.435 87.1599Z" fill="#588157"/>
<path d="M349.498 92.048C351.185 100.749 373.383 92.048 368.65 85.8647C363.917 79.6813 347.948 84.0589 349.498 92.048Z" fill="#588157"/>
<path d="M287.7 20.894C309.67 46.9863 325.813 65.5273 321.006 106.731C316.2 147.936 312.425 170.59 318.945 195.314C325.466 220.038 355.343 226.559 355.343 226.559L364.445 223.641C364.445 223.641 326.852 212.824 323.761 183.987C320.669 155.15 325.475 134.046 327.883 111.975C330.291 89.905 330.336 71.9842 321.581 56.7994C296.893 14.0266 287.718 20.894 287.718 20.894H287.7Z" fill="#588157"/>
<path d="M395.809 222.254H294.395L312.935 328.53H353.483C377.478 299.127 392.863 262.419 395.809 222.254Z" fill="#F8BD58"/>
<path d="M297.724 241.324H386.78" stroke="#444444" stroke-linecap="round" stroke-linejoin="round"/>
<path d="M375.936 178.141C389.671 118.715 375.143 105.455 373.975 102.609C384.099 150.444 363.487 178.633 361.171 222.254H368.385C368.385 222.254 368.64 209.705 375.936 178.141Z" fill="#588157"/>
<path d="M414.049 145.181C402.375 141.059 404.783 131.793 413.018 132.13C417.177 132.304 421.253 135.195 424.263 138.004C423.223 130.808 421.345 124.032 418.727 118.122C415.745 117.374 411.942 116.626 407.82 116.335C398.253 115.651 388.64 111.528 393.1 109.467C396 108.127 405.148 107.516 413.501 108.856C404.354 96.0791 390.455 91.2273 373.966 102.6C340.222 96.7631 335.416 133.161 335.416 133.161L337.824 140.375C345.038 121.834 364.263 113.936 365.631 120.803C366.889 127.105 344.445 132.559 338.891 153.325C340.168 157.074 342.448 161.369 346.406 165.865C346.406 165.865 356.702 136.599 363.916 139.691C370.373 142.463 355.352 156.809 353.027 172.86C356.565 176.29 359.739 178.861 363.132 181.369C363.132 181.369 366.67 145.3 377.66 154.338C385.74 160.986 380.998 181.625 377.933 192.076C378.298 192.35 378.663 192.623 379.028 192.906C387.473 199.336 399.557 200.485 409.233 193.59C402.339 175.587 398.499 163.111 405.467 164.06C410.401 164.734 414.897 176.545 417.423 184.653C420.414 179.828 422.74 173.636 424.008 165.856C424.792 161.077 425.166 156.253 425.193 151.492C422.84 149.413 419.274 147.023 414.049 145.172V145.181ZM369.333 135.569C366.761 131.446 372.17 123.977 375.252 127.324C378.335 130.671 371.905 139.682 369.333 135.569Z" fill="#588157"/>
<path d="M373.976 102.609C398.6 142.783 396.329 198.269 396.329 198.269" stroke="#21261F" stroke-width="0.5" stroke-linecap="round" stroke-linejoin="round"/>
<path d="M335.426 26.7307C312.425 8.53629 287.701 20.8939 287.701 20.8939C274.996 -3.48387 255.425 -7.94355 235.169 15.0571C227.864 23.3563 223.468 33.8443 221.28 44.8704C231.056 32.0476 248.12 21.9062 250.965 26.7307C253.938 31.7832 229.415 46.3387 219.629 59.0611C219.355 65.8646 219.793 72.6043 220.787 78.9244C222.949 74.784 228.22 66.7857 238.945 60.8486C254.048 52.4856 252.68 65.1897 238.945 74.1091C231.485 78.9609 225.967 83.1379 222.465 87.2784C223.578 91.7563 224.973 95.8968 226.578 99.5174C227.354 101.259 228.156 102.883 228.986 104.415C229.059 104.178 236.209 80.9947 239.282 84.7521C241.681 87.6888 234.759 99.946 232.196 109.622C238.544 118.587 246.46 122.482 256.756 121.56C254.458 114.511 251.111 101.743 254.741 95.7235C258.909 88.7923 262.63 109.093 263.168 120.439C266.031 119.718 269.05 118.706 272.251 117.374C274.723 116.344 277.058 115.24 279.301 114.082C275.617 107.297 269.05 93.2155 271.567 82.9555C274.996 68.9654 280.997 72.5678 281.599 82.9555C282.028 90.3427 283.551 103.421 285.995 110.233C291.23 106.932 295.863 103.311 300.204 99.5904C299.775 94.3646 298.535 83.3841 295.261 74.8022C290.801 63.1286 293.884 49.7404 300.414 51.1084C305.931 52.2667 309.725 74.8113 307.445 93.1608C312.078 88.9382 316.565 84.7704 321.362 80.9764C336.219 69.2299 354.632 41.9155 335.444 26.7307H335.426ZM257.833 21.9244C258.517 16.7716 273.628 18.4953 274.312 21.9244C274.996 25.3536 256.921 28.7644 257.833 21.9244ZM274.331 67.9257C267.144 69.9868 268.102 61.6603 274.331 60.8395C281.216 59.9366 281.517 65.8646 274.331 67.9257Z" fill="#588157"/>
<path d="M287.701 20.8938C259.548 56.5986 244.855 88.1356 241.9 118.724L287.701 20.8938Z" fill="#29554A"/>
<path d="M287.701 20.8938C259.548 56.5986 244.855 88.1356 241.9 118.724" stroke="#21261F" stroke-width="0.5" stroke-linecap="round" stroke-linejoin="round"/>
<path d="M194.659 288.694H163.414L170.619 328.53H194.659H218.69L225.904 288.694H194.659Z" fill="#757575"/>
<path d="M143.158 383.633C144.782 390.637 155.096 376.911 157.769 365.785C159.164 359.975 159.574 358.079 159.438 357.96C159.438 357.96 140.933 374.02 143.158 383.633Z" fill="#29554A"/>
<path d="M159.428 357.96C160.833 367.326 158.261 377.285 161.517 377.459C164.782 377.632 167.627 358.225 160.276 349.816L159.419 357.96H159.428Z" fill="#29554A"/>
<path d="M138.179 363.633C138.024 372.434 160.285 349.816 160.285 349.816L160.55 341.061C160.55 341.061 138.352 353.938 138.179 363.633Z" fill="#29554A"/>
<path d="M160.468 335.908C170.108 344.836 175.598 359.255 172.853 362.52C170.108 365.785 160.468 343.614 160.468 343.614V335.917V335.908Z" fill="#29554A"/>
<path d="M138.179 343.806C137.075 353.966 160.349 332.433 160.349 332.433L160.24 323.213C160.24 323.213 139.036 335.908 138.179 343.797V343.806Z" fill="#29554A"/>
<path d="M160.832 316.482C170.363 327.089 176.455 341.498 174.567 345.137C172.679 348.776 160.34 325.256 160.34 325.256L160.832 316.482Z" fill="#29554A"/>
<path d="M140.75 318.908C138.306 325.912 161.143 314.294 161.143 314.294L163.414 303.951C163.414 303.951 144.699 307.572 140.75 318.899V318.908Z" fill="#29554A"/>
<path d="M177.149 325.092C178.964 319.136 164.91 299.501 164.91 299.501L162.174 309.624C162.174 309.624 174.75 332.99 177.149 325.092Z" fill="#29554A"/>
<path d="M168.311 292.706C151.393 286.122 141.954 293.846 142.127 297.795C142.301 301.744 164.097 301.571 164.097 301.571L168.311 292.706Z" fill="#29554A"/>
<path d="M170.39 290.144C181.608 296.081 185.156 307.928 182 309.816C178.845 311.703 167.007 295.433 167.007 295.433C167.8 293.172 168.986 291.503 170.381 290.153L170.39 290.144Z" fill="#29554A"/>
<path d="M174.914 287.773C165.985 279.254 158.525 275.305 155.214 279.09C151.913 282.866 170.39 290.153 170.39 290.153C171.621 288.986 173.126 288.192 174.904 287.782L174.914 287.773Z" fill="#29554A"/>
<path d="M178.781 288.694C167.19 282.082 159.21 311.184 160.24 330.235C161.271 349.287 159.73 361.654 156.118 370.664" stroke="#21261F" stroke-width="0.5" stroke-linecap="round" stroke-linejoin="round"/>
<path d="M184.526 288.694C186.414 281.142 197.404 274.786 197.915 279.428C198.425 284.061 191.348 288.694 191.348 288.694H184.526Z" fill="#29554A"/>
<path d="M198.097 292.041C198.197 295.041 191.995 311.275 187.955 309.971C183.915 308.667 190.7 293.08 194.649 287.189C196.182 288.375 197.212 290.126 198.097 292.041Z" fill="#29554A"/>
<path d="M200.13 298.616C207.745 308.876 219.209 313.765 213.801 302.437C208.393 291.11 197.111 290.153 197.111 290.153C198.507 292.944 199.492 295.771 200.139 298.625L200.13 298.616Z" fill="#29554A"/>
<path d="M183.104 322.255C182.392 328.539 199.474 314.412 199.474 314.412L200.678 303.961C200.678 303.961 184.079 313.591 183.095 322.265L183.104 322.255Z" fill="#29554A"/>
<path d="M206.149 333.847C209.259 327.636 200.459 308.612 200.459 308.612L197.941 320.614C197.941 320.614 203.049 340.021 206.149 333.847Z" fill="#29554A"/>
<path d="M178.781 337.969C177.285 344.873 193.564 335.06 193.564 335.06L196.765 324.763C196.765 324.763 180.76 328.867 178.781 337.969Z" fill="#29554A"/>
<path d="M200.687 357.96C203.322 345.302 194.841 331.01 194.841 331.01L191.348 341.991C191.348 341.991 198.99 366.104 200.687 357.96Z" fill="#29554A"/>
<path d="M174.229 365.667C174.384 368.293 188.119 352.552 188.119 352.552L191.357 341.982C191.357 341.982 173.545 354.048 174.238 365.657L174.229 365.667Z" fill="#29554A"/>
<path d="M197.103 371.759C195.99 358.234 189.059 349.378 189.059 349.378L185.502 362.247C185.502 362.247 197.805 380.195 197.112 371.759H197.103Z" fill="#29554A"/>
<path d="M172.342 386.889C173.445 390.528 182.784 376.282 182.784 376.282L185.502 362.237C185.502 362.237 169.496 377.522 172.342 386.889Z" fill="#29554A"/>
<path d="M192.771 391.531C194.303 383.204 184.189 369.014 184.189 369.014L182.219 381.754C182.219 381.754 191.22 399.949 192.771 391.531Z" fill="#29554A"/>
<path d="M176.291 404.144C176.993 412.133 182.785 396.921 182.785 396.921L182.018 386.205C182.018 386.205 175.434 394.449 176.3 404.144H176.291Z" fill="#29554A"/>
<path d="M189.506 413.674C193.127 407.883 182.128 391.704 182.128 391.704C182.128 391.704 184.362 421.919 189.506 413.674Z" fill="#29554A"/>
<path d="M189.077 288.694C192.68 281.051 201.179 291.612 200.669 306.031C200.158 320.45 188.047 346.971 183.669 370.664C179.291 394.358 184.955 404.144 184.955 404.144" stroke="#21261F" stroke-width="0.5" stroke-linecap="round" stroke-linejoin="round"/>
<path d="M229.488 397.24C241.116 400.487 217.486 371.759 217.486 371.759C217.486 371.759 222.265 395.224 229.488 397.24Z" fill="#29554A"/>
<path d="M209.25 387.491C211.202 390.546 216.902 369.013 216.902 369.013L215.206 355.315C215.206 355.315 203.933 379.164 209.26 387.5L209.25 387.491Z" fill="#29554A"/>
<path d="M231.567 379.684C231.357 372.187 215.99 360.969 215.99 360.969L216.902 369.004C216.902 369.004 231.74 385.685 231.567 379.684Z" fill="#29554A"/>
<path d="M227.446 363.633C229.133 359 215.006 338.315 215.006 338.315L215.115 350.974C215.115 350.974 225.038 370.245 227.446 363.633Z" fill="#29554A"/>
<path d="M202.384 365.666C203.669 371.457 215.088 347.408 215.088 347.408V333.81C215.088 333.81 199.812 354.047 202.384 365.657V365.666Z" fill="#29554A"/>
<path d="M233.456 345.146C234.304 338.361 215.571 319.939 215.571 319.939L215.088 333.819C215.088 333.819 232.425 353.354 233.456 345.146Z" fill="#29554A"/>
<path d="M196.273 342.948C194.732 353.892 215.27 328.53 215.27 328.53L215.835 313.919C215.835 313.919 198.061 330.244 196.273 342.948Z" fill="#29554A"/>
<path d="M236.884 321.836C235.899 312.606 215.835 299.729 215.835 299.729V313.919C215.835 313.919 237.914 331.466 236.884 321.845V321.836Z" fill="#29554A"/>
<path d="M197.131 316.482C196.921 321.234 215.982 303.96 215.982 303.96L214.331 291.584C214.331 291.584 197.505 308.21 197.131 316.491V316.482Z" fill="#29554A"/>
<path d="M234.659 301.571C232.343 290.226 211.111 286.14 211.111 286.14L215.206 295.862C215.206 295.862 236.21 309.131 234.659 301.58V301.571Z" fill="#29554A"/>
<path d="M203.496 288.694C208.904 280.796 217.14 285.429 215.981 310.664C214.823 335.899 213.282 365.767 220.231 379.675" stroke="#21261F" stroke-width="0.5" stroke-linecap="round" stroke-linejoin="round"/>
<path d="M396.329 208.146C396.329 313.381 311.011 398.699 205.776 398.699C115.944 398.699 40.6308 336.537 20.5029 252.879" stroke="white" stroke-miterlimit="10"/>
<path d="M73.8008 256.755H159.428L146.241 328.53H85.0457L73.8008 256.755Z" fill="#1CBDE2"/>
<path d="M87.9638 320.048C93.7732 299.738 106.787 281.37 122.282 267.18C126.459 263.358 130.983 259.865 135.78 256.755H73.8096L84.7444 326.56C85.7385 324.38 86.8147 322.228 87.9456 320.112C87.9456 320.085 87.9547 320.066 87.9638 320.039V320.048Z" fill="black" fill-opacity="0.1"/>
<path d="M126.332 256.755C146.25 252.642 164.763 237.54 177.303 218.652C189.843 199.765 209.46 198.734 200.687 185.692C191.913 172.642 114.311 190.143 104.015 222.254C93.7184 254.366 126.332 256.755 126.332 256.755Z" fill="#7A9954"/>
<path d="M200.686 185.692C147.617 198.397 110.371 248.091 110.371 248.091" stroke="#21261F" stroke-width="0.5" stroke-linecap="round" stroke-linejoin="round"/>
<path d="M93.9832 235.533C94.2568 198.086 109.578 176.992 109.578 176.992L106.213 178.113C106.213 178.113 86.3315 199.956 87.9458 233.326C88.5477 245.857 93.9832 235.524 93.9832 235.524V235.533Z" fill="#7A9954"/>
<path d="M119.482 155.642C119.993 134.219 102.364 126.823 99.1813 130.325C95.9984 133.827 100.102 160.959 108.785 164.151C117.467 167.343 107.289 170.152 107.289 170.152C107.289 170.152 95.0499 179.764 98.3514 194.046C101.653 208.328 117.795 202.126 121.48 194.985C125.164 187.844 124.626 182.199 124.626 182.199C124.626 182.199 134.968 188.145 144.307 184.087C153.646 180.029 164.563 171.118 153.381 163.731C142.2 156.344 120.75 160.694 120.75 160.694L119.473 155.633L119.482 155.642Z" fill="#EDE7E2"/>
<path d="M102.173 200.74C99.0084 190.918 107.244 169.641 112.561 167.58C117.887 165.519 103.495 183.348 110.627 202.409" stroke="#D39F3F" stroke-width="0.5" stroke-linecap="round" stroke-linejoin="round"/>
<path d="M118.479 198.588C118.479 188.437 116.254 168.948 116.254 168.948C116.254 168.948 128.712 181.561 147.207 182.692" stroke="#D39F3F" stroke-width="0.5" stroke-linecap="round" stroke-linejoin="round"/>
<path d="M153.865 178.159C147.791 170.781 126.979 166.622 119.774 167.106C112.57 167.589 136.464 160.238 156.893 166.987" stroke="#D39F3F" stroke-width="0.5" stroke-linecap="round" stroke-linejoin="round"/>
<g style="mix-blend-mode:multiply">
<path d="M113.153 155.177C114.074 137.247 128.183 122.482 140.085 123.457C151.986 124.424 149.36 152.915 125.301 165.099C125.301 165.099 141.097 184.042 128.448 190.535C115.798 197.019 112.752 171.693 112.752 171.693C112.752 171.693 101.68 177.138 85.8937 170.425C70.0979 163.713 68.283 158.132 74.3295 149.842C80.3761 141.561 93.2809 141.223 98.9718 144.67C104.663 148.118 113.144 155.186 113.144 155.186L113.153 155.177Z" fill="#D39F3F"/>
</g>
<path d="M133.574 124.378C128.521 145.409 115.908 161.743 115.908 161.743C107.992 152.587 86.0948 147.717 72.7432 152.286" stroke="white" stroke-width="0.5" stroke-linecap="round" stroke-linejoin="round"/>
<path d="M71.165 158.241C83.8145 159.18 91.2655 163.914 101.918 165.747C112.57 167.58 116.063 165.063 116.063 165.063C116.063 165.063 141.106 146.85 146.907 132.14" stroke="white" stroke-width="0.5" stroke-linecap="round" stroke-linejoin="round"/>
<path d="M115.799 159.436C107.755 162.044 118.097 187.416 125.676 184.251C133.263 181.087 122.648 157.21 115.799 159.436Z" fill="#21261F"/>
<path d="M96.1172 248.1C104.015 222.254 74.2383 194.165 45.5195 181.351C16.8006 168.537 -2.77093 157.603 0.320747 181.351C3.41243 205.1 20.3483 228.748 48.7023 245.51C77.0564 262.273 96.1172 248.109 96.1172 248.109V248.1Z" fill="#7A9954"/>
<path d="M3.13867 168.556C25.0449 204.06 96.1171 248.1 96.1171 248.1" stroke="#21261F" stroke-width="0.5" stroke-linecap="round" stroke-linejoin="round"/>
<path d="M309.616 329.122L290.372 256.363L246.779 257.767L229.405 329.651L309.616 329.122Z" fill="#ABABAB"/>
<path d="M219.839 249.158L239.036 289.797L229.406 329.651L215.023 253.545L219.839 249.158Z" fill="#ABABAB"/>
<g style="mix-blend-mode:multiply">
<path d="M219.839 249.158L239.036 289.797L229.406 329.651L215.023 253.545L219.839 249.158Z" fill="#ABABAB"/>
</g>
<path d="M305.476 313.454C316.739 289.614 329.744 267.453 320.305 254.986C310.866 242.519 299.639 247.589 291.121 259.181L292.27 263.522C292.27 263.522 304.044 249.787 310.063 251.967C316.092 254.147 319.357 264.051 312.991 275.798C306.625 287.535 300.943 296.327 300.943 296.327L305.476 313.463V313.454Z" fill="#ABABAB"/>
<g style="mix-blend-mode:multiply">
<path d="M305.476 313.454C316.739 289.614 329.744 267.453 320.305 254.986C310.866 242.519 299.639 247.589 291.121 259.181L292.27 263.522C292.27 263.522 304.044 249.787 310.063 251.967C316.092 254.147 319.357 264.051 312.991 275.798C306.625 287.535 300.943 296.327 300.943 296.327L305.476 313.463V313.454Z" fill="#ABABAB"/>
</g>
<path d="M23.3304 301.571C44.425 315.725 91.4659 289.04 107.18 273.591C122.893 258.141 134.914 236.509 108.821 234.11C108.821 234.11 98.8987 222.719 73.8005 234.11C48.7114 245.501 10.2797 292.825 23.3304 301.58V301.571Z" fill="#7A9954"/>
<g style="mix-blend-mode:multiply" opacity="0.64">
<path d="M23.3301 301.571C73.8002 282.173 108.821 234.101 108.821 234.101" stroke="#7A9954" stroke-width="0.5" stroke-linecap="round" stroke-linejoin="round"/>
</g>
<path d="M343.881 27.7249C341.756 42.782 334.396 49.0201 323.625 49.5034C335.645 50.9626 342.394 58.2313 343.881 71.282C345.367 58.2221 352.125 50.9626 364.136 49.5034C353.365 49.0201 346.005 42.7729 343.881 27.7249Z" fill="#F8BD58"/>
<path d="M76.819 330.792C74.694 345.849 67.3342 352.087 56.5635 352.57C68.5836 354.029 75.3324 361.289 76.819 374.349C78.3056 361.289 85.0635 354.029 97.0745 352.57C86.3038 352.087 78.944 345.84 76.819 330.792Z" fill="#F8BD58"/>
<path d="M34.6303 372.634C33.1802 382.903 28.1642 387.162 20.8135 387.491C29.0124 388.485 33.6088 393.437 34.6303 402.347C35.6426 393.437 40.2482 388.494 48.4471 387.491C41.1055 387.162 36.0804 382.903 34.6303 372.634Z" fill="#F8BD58"/>
<path d="M157.121 3.82129C155.67 14.0904 150.654 18.3495 143.304 18.6778C151.503 19.6719 156.108 24.624 157.121 33.5343C158.133 24.624 162.738 19.681 170.937 18.6778C163.596 18.3495 158.571 14.0904 157.121 3.82129Z" fill="#F626FC"/>
<path d="M272.334 369.771C270.884 380.04 265.868 384.299 258.518 384.627C266.716 385.621 271.322 390.573 272.334 399.483C273.347 390.573 277.952 385.63 286.151 384.627C278.81 384.299 273.784 380.04 272.334 369.771Z" fill="#F626FC"/>
<defs>
<linearGradient id="paint0_linear_71_3203" x1="205.776" y1="17.5925" x2="205.776" y2="398.699" gradientUnits="userSpaceOnUse">
<stop stop-color="#F8BD58"/>
<stop offset="0.41" stop-color="#8D5393"/>
<stop offset="0.8" stop-color="#6F6EA3"/>
<stop offset="1" stop-color="#09CAD7"/>
</linearGradient>
</defs>
</svg>
