<svg width="446" height="397" viewBox="0 0 446 397" fill="none" xmlns="http://www.w3.org/2000/svg">
<g clip-path="url(#clip0_71_2973)">
<path d="M431.17 198.5C431.17 307.577 342.806 396 233.804 396C124.802 396 36.4375 307.577 36.4375 198.5C36.4375 89.4231 124.802 1 233.804 1C342.806 1 431.17 89.4231 431.17 198.5Z" stroke="url(#paint0_linear_71_2973)" stroke-width="2"/>
<path d="M375.65 244.735C375.65 244.735 375.472 244.735 375.383 244.705C374.699 244.557 374.283 243.874 374.431 243.191C376.87 232.449 378.089 220.638 378.089 208.145V207.314C378.089 206.601 378.654 206.038 379.367 206.038C380.081 206.038 380.646 206.601 380.646 207.314V208.145C380.646 220.846 379.397 232.805 376.929 243.755C376.81 244.349 376.275 244.735 375.68 244.735H375.65Z" fill="url(#paint1_linear_71_2973)"/>
<path d="M360.874 258.712C360.874 258.712 360.666 258.712 360.576 258.682C359.892 258.504 359.476 257.822 359.655 257.169C363.906 239.63 365.839 215.385 365.839 200.281C365.839 196.779 366.969 193.93 368.991 192.298C369.526 191.853 370.329 191.942 370.775 192.476C371.221 193.01 371.132 193.811 370.596 194.256C369.169 195.414 368.366 197.55 368.366 200.281C368.366 215.534 366.404 240.016 362.122 257.762C361.974 258.326 361.468 258.741 360.903 258.741L360.874 258.712Z" fill="url(#paint2_linear_71_2973)"/>
<path d="M390.547 215.029C389.834 215.029 389.269 214.466 389.269 213.753C389.269 206.75 384.303 198.203 378.178 194.672C377.583 194.316 377.375 193.544 377.702 192.951C378.059 192.357 378.832 192.149 379.427 192.476C386.236 196.393 391.766 205.949 391.766 213.753C391.766 214.466 391.201 215.029 390.488 215.029H390.547Z" fill="url(#paint3_linear_71_2973)"/>
<path d="M386.801 249.987C386.801 249.987 386.653 249.987 386.593 249.987C385.909 249.868 385.433 249.216 385.552 248.533C386.653 242.004 387.515 235.921 388.139 230.401C388.228 229.719 388.853 229.185 389.537 229.303C390.221 229.392 390.726 230.015 390.637 230.698C390.012 236.247 389.12 242.39 388.02 248.948C387.931 249.572 387.366 250.017 386.772 250.017L386.801 249.987Z" fill="url(#paint4_linear_71_2973)"/>
<path d="M382.312 239.897C382.312 239.897 382.193 239.897 382.133 239.897C381.449 239.808 380.974 239.156 381.063 238.473C382.758 226.692 383.679 217.047 383.679 211.379V210.548C383.679 207.136 381.152 202.803 378.179 201.082C376.96 200.37 375.859 200.221 375.116 200.637C374.373 201.052 373.956 202.091 373.956 203.456C373.956 205.177 373.897 207.195 373.808 209.48C373.778 210.162 373.154 210.726 372.5 210.697C371.786 210.667 371.251 210.073 371.28 209.391C371.37 207.136 371.429 205.147 371.429 203.485C371.429 201.141 372.291 199.361 373.838 198.47C375.413 197.58 377.406 197.728 379.457 198.886C383.233 201.082 386.207 206.186 386.207 210.519V211.35C386.207 217.136 385.255 226.9 383.56 238.799C383.471 239.423 382.936 239.897 382.312 239.897Z" fill="url(#paint5_linear_71_2973)"/>
<path d="M366.85 264.113C366.85 264.113 366.731 264.113 366.642 264.113C365.958 263.994 365.482 263.341 365.601 262.659C367.237 252.539 369.11 237.019 370.24 224.021C370.299 223.338 370.924 222.804 371.607 222.864C372.291 222.923 372.826 223.546 372.767 224.229C371.607 237.286 369.734 252.895 368.099 263.044C368.01 263.668 367.474 264.113 366.85 264.113Z" fill="url(#paint6_linear_71_2973)"/>
<path d="M405.77 251.115C405.77 251.115 405.651 251.115 405.622 251.115C404.938 251.026 404.432 250.403 404.521 249.69C405.532 241.589 406.038 233.013 406.038 224.229V223.398C406.038 211.409 399.943 196.66 390.487 185.829C390.041 185.294 390.071 184.493 390.606 184.048C391.141 183.603 391.944 183.633 392.39 184.167C402.381 195.592 408.565 210.608 408.565 223.398V224.229C408.565 233.131 408.03 241.797 407.019 249.987C406.93 250.64 406.395 251.085 405.77 251.085V251.115Z" fill="url(#paint7_linear_71_2973)"/>
<path d="M350.319 191.853C349.605 191.853 349.04 191.289 349.04 190.577C349.04 181.437 352.222 174.581 357.96 171.258C363.758 167.904 371.4 168.617 379.428 173.246C380.022 173.602 380.23 174.374 379.903 174.967C379.546 175.561 378.773 175.768 378.179 175.442C370.954 171.287 364.234 170.575 359.239 173.454C354.303 176.303 351.567 182.386 351.567 190.577C351.567 191.289 351.002 191.853 350.289 191.853H350.319Z" fill="url(#paint8_linear_71_2973)"/>
<path d="M345.026 239.185C345.026 239.185 344.818 239.185 344.729 239.155C344.045 238.977 343.629 238.295 343.807 237.642C346.78 225.445 348.505 212.151 348.951 198.114C348.951 197.432 349.545 196.897 350.229 196.897H350.259C350.943 196.897 351.508 197.491 351.478 198.203C351.032 212.418 349.278 225.891 346.275 238.265C346.126 238.829 345.621 239.245 345.056 239.245L345.026 239.185Z" fill="url(#paint9_linear_71_2973)"/>
<path d="M410.32 262.124C410.32 262.124 410.171 262.124 410.112 262.124C409.428 262.006 408.952 261.353 409.071 260.67C410.796 250.225 411.658 239.067 411.658 227.493V226.662C411.658 205.533 396.643 179.686 378.208 169.062C369.466 164.017 361.319 163.156 355.284 166.658C349.307 170.1 346.007 177.46 346.007 187.372C346.007 202.744 344.49 217.255 341.547 230.579C341.398 231.262 340.714 231.677 340.03 231.529C339.346 231.381 338.93 230.698 339.079 230.015C341.993 216.899 343.479 202.536 343.479 187.372C343.479 176.51 347.226 168.379 354.035 164.462C360.903 160.515 369.942 161.376 379.486 166.866C398.635 177.905 414.215 204.732 414.215 226.662V227.493C414.215 239.215 413.323 250.521 411.598 261.086C411.509 261.709 410.974 262.154 410.35 262.154L410.32 262.124Z" fill="url(#paint10_linear_71_2973)"/>
<path d="M393.729 247.435C393.729 247.435 393.61 247.435 393.551 247.435C392.867 247.316 392.391 246.693 392.48 245.981C394.027 235.773 394.859 226.039 394.859 217.819V216.988C394.859 206.453 387.366 193.574 378.179 188.292C373.957 185.858 370.032 185.413 367.177 187.075C364.323 188.707 362.777 192.268 362.777 197.046C362.777 197.758 362.212 198.322 361.498 198.322C360.785 198.322 360.22 197.758 360.22 197.046C360.22 191.319 362.242 186.986 365.899 184.879C369.586 182.742 374.403 183.187 379.427 186.096C389.329 191.793 397.386 205.652 397.386 216.988V217.819C397.386 226.187 396.554 236.04 394.978 246.367C394.889 246.99 394.354 247.435 393.729 247.435Z" fill="url(#paint11_linear_71_2973)"/>
<path d="M355.461 252.955C355.461 252.955 355.283 252.955 355.164 252.925C354.48 252.777 354.064 252.094 354.213 251.412C357.394 237.731 359.327 223.16 359.981 208.145C359.981 207.432 360.665 206.898 361.289 206.928C361.973 206.958 362.538 207.551 362.508 208.234C361.854 223.428 359.892 238.117 356.681 251.975C356.532 252.569 356.026 252.955 355.461 252.955Z" fill="url(#paint12_linear_71_2973)"/>
<path d="M349.872 246.07C349.872 246.07 349.664 246.07 349.545 246.04C348.861 245.862 348.445 245.18 348.623 244.497C350.229 238.236 351.537 231.618 352.518 224.822C352.608 224.14 353.262 223.635 353.946 223.754C354.629 223.843 355.135 224.496 355.016 225.178C354.035 232.063 352.727 238.799 351.061 245.15C350.913 245.714 350.407 246.1 349.842 246.1L349.872 246.07Z" fill="url(#paint13_linear_71_2973)"/>
<path d="M354.57 220.252C354.57 220.252 354.481 220.252 354.422 220.252C353.738 220.163 353.232 219.54 353.292 218.858C354.184 210.845 354.63 202.388 354.63 193.782C354.63 188.915 355.76 184.76 357.93 181.733C358.347 181.17 359.12 181.021 359.685 181.437C360.249 181.852 360.398 182.624 359.982 183.187C358.138 185.799 357.157 189.449 357.157 193.782C357.157 202.477 356.711 210.993 355.789 219.125C355.73 219.777 355.165 220.252 354.541 220.252H354.57Z" fill="url(#paint14_linear_71_2973)"/>
<path d="M398.546 206.334C398.04 206.334 397.565 206.038 397.356 205.533C393.342 195.443 385.998 186.363 378.178 181.852C373.6 179.211 369.288 178.321 365.661 179.241C364.977 179.419 364.293 179.003 364.115 178.321C363.936 177.638 364.352 176.955 365.036 176.777C369.288 175.679 374.283 176.659 379.457 179.656C387.753 184.434 395.513 193.989 399.735 204.583C400.003 205.236 399.676 205.978 399.021 206.216C398.873 206.275 398.724 206.305 398.546 206.305V206.334Z" fill="url(#paint15_linear_71_2973)"/>
<path d="M399.348 253.133C399.348 253.133 399.199 253.133 399.14 253.133C398.456 253.014 397.98 252.361 398.099 251.679C399.645 242.034 400.448 231.737 400.448 221.024V220.193C400.448 219.481 401.013 218.917 401.727 218.917C402.44 218.917 403.005 219.481 403.005 220.193V221.024C403.005 231.855 402.203 242.331 400.627 252.094C400.537 252.717 400.002 253.162 399.378 253.162L399.348 253.133Z" fill="url(#paint16_linear_71_2973)"/>
<path d="M80.9639 198.856L7.6712 156.598C3.44907 154.165 0 147.606 0 141.998V134.787C0 129.148 3.41933 126.566 7.6712 129L80.9639 171.228C85.186 173.662 88.6351 180.22 88.6351 185.829V193.04C88.6351 198.678 85.2157 201.26 80.9639 198.826V198.856Z" fill="#FFF6F6" fill-opacity="0.1"/>
<path d="M231.837 127.958C231.837 125.228 231.599 122.438 231.243 119.619L245.158 117.868C243.731 110.865 241.59 103.802 238.854 96.8284L223.007 92.0507C220.241 86.1155 216.911 80.3882 213.135 75.0466L216.941 59.0811C212.243 53.235 207.159 47.834 201.747 43.1156L193.214 54.1253C190.924 52.4041 188.605 50.8016 186.226 49.4365C183.848 48.0714 181.529 47.0031 179.239 46.0832L170.706 25.2212C165.324 23.7375 160.21 23.2627 155.512 23.6781L159.318 44.0356C155.542 45.0445 152.211 46.9141 149.446 49.6443L133.598 36.1419C130.863 39.9403 128.692 44.5401 127.295 49.9113L141.21 67.7167C140.853 70.1204 140.615 72.6428 140.615 75.373C140.615 78.1031 140.853 80.8926 141.21 83.7118L127.295 85.4627C128.722 92.4661 130.863 99.5289 133.598 106.503L149.446 111.28C152.211 117.216 155.542 122.913 159.318 128.285L155.512 144.25C160.21 150.096 165.294 155.497 170.706 160.215L179.239 149.206C181.529 150.927 183.848 152.53 186.226 153.895C188.605 155.26 190.924 156.328 193.214 157.248L201.747 178.11C207.129 179.594 212.243 180.068 216.941 179.653L213.135 159.296C216.911 158.287 220.241 156.417 223.007 153.687L238.854 167.189C241.59 163.391 243.76 158.791 245.158 153.42L231.243 135.614C231.599 133.211 231.837 130.688 231.837 127.958ZM186.643 140.867C167.613 129.917 152.211 103.357 152.211 81.5752C152.211 59.7933 167.643 51.0093 186.643 61.9893C205.672 72.9396 221.074 99.4992 221.074 121.281C221.074 143.063 205.642 151.847 186.643 140.867Z" fill="black" fill-opacity="0.2"/>
<path d="M161.036 173.988C161.036 172.029 160.857 170.041 160.619 168.023L170.61 166.777C169.599 161.762 168.053 156.687 166.09 151.702L154.732 148.259C152.74 144.016 150.361 139.92 147.656 136.092L150.391 124.638C147.031 120.453 143.374 116.566 139.509 113.183L133.384 121.076C131.748 119.86 130.083 118.702 128.388 117.723C126.694 116.744 125.028 115.972 123.393 115.319L117.268 100.363C113.403 99.2946 109.746 98.9384 106.386 99.2649L109.121 113.865C106.415 114.577 104.037 115.943 102.045 117.901L90.6865 108.227C88.7241 110.957 87.1779 114.251 86.167 118.079L96.1574 130.84C95.9195 132.561 95.7411 134.371 95.7411 136.33C95.7411 138.288 95.9195 140.277 96.1574 142.294L86.167 143.541C87.1779 148.556 88.7241 153.631 90.6865 158.616L102.045 162.058C104.037 166.302 106.415 170.397 109.121 174.225L106.386 185.68C109.746 189.864 113.403 193.752 117.268 197.135L123.393 189.241C125.028 190.458 126.694 191.615 128.388 192.595C130.083 193.574 131.748 194.345 133.384 194.998L139.509 209.955C143.374 211.023 147.031 211.379 150.391 211.053L147.656 196.452C150.361 195.74 152.74 194.375 154.732 192.417L166.09 202.091C168.053 199.361 169.599 196.067 170.61 192.238L160.619 179.478C160.857 177.757 161.036 175.947 161.036 173.988ZM128.656 183.247C115.038 175.383 103.977 156.361 103.977 140.751C103.977 125.142 115.038 118.851 128.656 126.715C142.274 134.579 153.335 153.601 153.335 169.21C153.335 184.82 142.274 191.111 128.656 183.247Z" fill="black" fill-opacity="0.2"/>
<path d="M376.751 302.276C374.908 298.952 374.016 295.213 374.016 291.058V262.54C374.016 258.385 374.937 255.715 376.751 254.498C378.595 253.281 381.241 253.667 384.72 255.685C388.198 257.703 390.874 260.374 392.688 263.697C394.532 267.021 395.424 270.76 395.424 274.915V280.523L388.525 276.547V270.404C388.525 267.11 387.306 264.766 384.898 263.371C382.46 261.976 381.241 262.926 381.241 266.19V295.836C381.241 299.071 382.46 301.385 384.898 302.78C387.336 304.175 388.525 303.255 388.525 300.02V291.919L395.424 295.895V303.403C395.424 307.558 394.502 310.229 392.688 311.445C390.845 312.662 388.198 312.276 384.72 310.258C381.241 308.24 378.565 305.57 376.751 302.246V302.276Z" fill="#1CBDE2"/>
<path d="M397.921 264.024L405.265 268.267L410.052 312.187L410.171 312.276L414.928 273.846L421.618 277.674L414.601 326.728L404.938 321.149L397.921 264.024Z" fill="#1CBDE2"/>
<path d="M427.298 331.387C425.455 328.064 424.562 324.324 424.562 320.17V291.652C424.562 287.497 425.484 284.826 427.298 283.61C429.141 282.393 431.788 282.779 435.267 284.797C438.745 286.815 441.421 289.485 443.235 292.809C445.079 296.133 445.971 299.872 445.971 304.026V309.635L439.072 305.659V299.516C439.072 296.222 437.853 293.877 435.445 292.483C433.007 291.088 431.817 292.037 431.817 295.302V324.948C431.817 328.182 433.037 330.497 435.445 331.892C437.883 333.286 439.072 332.367 439.072 329.132V321.03L445.971 325.007V332.515C445.971 336.67 445.049 339.34 443.235 340.557C441.392 341.774 438.745 341.388 435.267 339.37C431.788 337.352 429.112 334.681 427.298 331.358V331.387Z" fill="#1CBDE2"/>
<path d="M319.337 171.377C292.725 156.361 266.709 130.721 244.885 98.0482L244.587 97.8701C222.763 105.408 196.746 101.045 170.135 85.4064L169.124 84.8129L170.551 134.46C175.606 211.409 201.89 244.883 244.201 316.431L245.241 317.024C287.552 294.263 313.866 291.088 318.891 219.956L320.318 171.97L319.307 171.406L319.337 171.377Z" fill="#58555B"/>
<path d="M328.286 163.631C301.675 148.615 275.658 122.976 253.834 90.3028L253.536 90.1248C231.742 97.6624 205.696 93.3001 179.084 77.661L178.073 77.0675L169.421 84.9909L170.164 85.4063C196.776 101.045 222.792 105.408 244.616 97.8701L244.914 98.0481C266.738 130.721 292.755 156.361 319.366 171.377L320.377 171.94L318.95 219.926C315.649 266.338 303.31 283.817 283.359 296.697C308.276 282.007 324.183 264.35 327.9 212.18L329.327 164.195L328.316 163.631H328.286Z" fill="white"/>
<path d="M329.297 164.225L328.286 163.661C301.675 148.645 275.658 123.005 253.834 90.3325L253.537 90.1544L244.587 97.8998L244.884 98.0778C266.709 130.751 292.725 156.39 319.337 171.406L320.347 171.97L329.297 164.225Z" fill="white"/>
<path d="M320.347 171.97L318.92 219.955C315.62 266.368 303.28 283.847 283.329 296.726C308.246 282.037 324.153 264.38 327.87 212.21L329.297 164.225L320.347 171.97Z" fill="#58555B"/>
<path d="M316.571 173.305C290.554 158.616 265.103 133.54 243.784 101.609L243.487 101.431C222.168 108.791 196.716 104.547 170.699 89.2345L169.718 88.641L161.244 96.3863L161.958 96.8018C187.974 112.085 213.426 116.358 234.745 108.998L235.042 109.176C256.361 141.107 281.813 166.183 307.829 180.873L308.811 181.437L307.413 228.354C304.202 273.728 292.101 290.821 272.625 303.403C296.977 289.04 312.557 271.799 316.185 220.786L317.582 173.869L316.601 173.305H316.571Z" fill="#EAEAEA" fill-opacity="0.2"/>
<path d="M317.552 173.869L316.571 173.305C290.555 158.616 265.103 133.54 243.784 101.609L243.487 101.431L234.745 108.998L235.042 109.176C256.361 141.107 281.813 166.183 307.83 180.873L308.811 181.437L317.552 173.869Z" fill="#EAEAEA" fill-opacity="0.2"/>
<path d="M308.81 181.437L307.413 228.354C304.202 273.728 292.1 290.821 272.625 303.403C296.977 289.04 312.557 271.799 316.184 220.786L317.582 173.869L308.84 181.437H308.81Z" fill="#EAEAEA" fill-opacity="0.2"/>
<path d="M302.329 186.778C275.718 171.762 249.701 146.123 227.877 113.45L227.579 113.272C205.755 120.809 179.738 116.447 153.127 100.808L152.116 100.214L153.543 149.862C158.598 226.811 184.882 260.285 227.193 331.832L228.234 332.426C270.544 309.665 296.858 306.489 301.883 235.357L303.31 187.372L302.299 186.808L302.329 186.778Z" fill="#565656"/>
<path d="M311.278 179.062C284.667 164.047 258.65 138.407 236.826 105.734L236.529 105.556C214.734 113.094 188.688 108.731 162.076 93.0923L161.065 92.4988L152.413 100.422L153.156 100.838C179.768 116.477 205.784 120.839 227.609 113.301L227.906 113.479C249.73 146.152 275.747 171.792 302.358 186.808L303.369 187.372L301.942 235.357C298.642 281.77 286.302 299.249 266.351 312.128C291.268 297.438 307.175 279.781 310.892 227.612L312.319 179.626L311.308 179.062H311.278Z" fill="white"/>
<path d="M312.289 179.626L311.278 179.062C284.667 164.047 258.65 138.407 236.826 105.734L236.529 105.556L227.579 113.301L227.876 113.479C249.701 146.152 275.717 171.792 302.329 186.808L303.34 187.372L312.289 179.626Z" fill="white"/>
<path d="M303.34 187.372L301.913 235.357C298.613 281.77 286.273 299.249 266.322 312.128C291.239 297.438 307.146 279.781 310.863 227.612L312.29 179.626L303.34 187.372Z" fill="#58555B"/>
<path d="M222.465 299.249C189.61 244.853 173.078 217.492 169.094 157.815L168.172 126.477C189.253 136.003 209.471 139.03 227.698 135.41C245.925 160.011 266.143 180.279 287.224 195.087L286.302 225.386C282.318 280.494 265.786 288.803 232.931 305.332C231.207 306.193 229.452 307.083 227.668 307.973C225.884 305.006 224.13 302.097 222.405 299.249H222.465Z" fill="#29554A"/>
<path d="M224.279 298.358C191.423 243.963 174.892 216.602 170.907 156.925L170.045 127.308C169.421 127.041 168.796 126.774 168.172 126.507L169.094 157.844C173.078 217.522 189.61 244.883 222.465 299.278C224.189 302.127 225.944 305.035 227.728 308.003C228.352 307.677 228.947 307.38 229.541 307.083C227.757 304.115 226.003 301.207 224.279 298.358Z" fill="#EAEAEA"/>
<path d="M357.632 304.561L255.885 245.922C253.774 244.705 251.841 244.408 250.176 244.853L246.965 246.189L247.44 246.604C246.073 248.207 245.24 250.699 245.24 253.934V315.808C245.24 323.612 249.998 332.693 255.885 336.076L357.632 394.715C359.03 395.516 360.368 395.932 361.587 395.961L362.122 396.318L363.252 395.783C366.612 394.122 368.247 391.747 368.247 386.673V324.799C368.247 316.995 363.49 307.914 357.602 304.531L357.632 304.561Z" fill="#9C9C9C"/>
<path d="M355.313 395.724L253.565 337.085C247.708 333.702 242.921 324.621 242.921 316.817V254.943C242.921 247.138 247.678 243.548 253.565 246.931L355.313 305.57C361.17 308.953 365.957 318.033 365.957 325.838V387.712C365.957 395.516 361.2 399.107 355.313 395.724Z" fill="#9C9C9C"/>
<path d="M365.928 345.928L242.921 275.033V260.938L365.928 331.832V345.928Z" fill="#78F7D8"/>
<path d="M319.901 344.741L251.009 305.065V290.969L319.901 330.645V344.741Z" fill="white"/>
<path d="M355.402 365.188L327.988 349.4V335.304L355.402 351.122V365.188Z" fill="white"/>
<path d="M282.645 322.218V321.001C283.477 321.476 285.856 322.307 288.532 322.9C288.324 322.099 288.264 321.179 288.443 320.051C289.394 313.879 291.356 314.828 294.27 316.965C295.608 317.944 297.006 318.983 298.522 319.013H299.117L299.265 319.844C299.563 321.476 299.236 322.752 298.314 323.583C296.708 325.037 293.467 325.037 290.316 324.503C293.021 327.381 300.663 326.432 302.298 326.016V325.868L303.071 325.927L303.607 326.966L303.517 327.055C303.934 328.271 305.123 330.23 306.877 331.921C308.304 333.287 311.099 335.483 314.013 334.77L314.638 336.106C311.337 336.907 308.156 334.414 306.55 332.871C304.826 331.209 303.369 329.132 302.715 327.411C300.485 327.886 293.111 328.806 289.899 325.363C289.632 325.066 289.364 324.71 289.126 324.295C286.242 323.701 283.655 322.781 282.704 322.247L282.645 322.218ZM292.665 317.054C291.148 316.164 290.137 316.52 289.483 320.823C289.364 321.683 289.364 322.425 289.543 323.078C292.665 323.642 295.935 323.731 297.481 322.336C298.046 321.802 298.344 321.12 298.314 320.259C296.768 319.992 295.311 318.924 294.122 318.033C293.586 317.648 293.111 317.291 292.665 317.024V317.054Z" fill="#78F7D8"/>
<path d="M269.681 292.928L167.934 234.289C165.823 233.072 163.89 232.775 162.225 233.22L159.014 234.556L159.489 234.971C158.122 236.574 157.289 239.067 157.289 242.271V304.145C157.289 311.95 162.046 321.03 167.934 324.413L269.681 383.052C271.079 383.854 272.417 384.269 273.636 384.299L274.171 384.655L275.301 384.121C278.661 382.459 280.296 380.085 280.296 375.01V313.137C280.296 305.332 275.539 296.251 269.651 292.868L269.681 292.928Z" fill="url(#paint17_linear_71_2973)"/>
<path d="M267.332 384.121L165.585 325.482C159.727 322.099 154.94 313.018 154.94 305.213V243.34C154.94 235.535 159.698 231.944 165.585 235.327L267.332 293.966C273.19 297.349 277.977 306.43 277.977 314.235V376.108C277.977 383.913 273.22 387.504 267.332 384.121Z" fill="url(#paint18_linear_71_2973)"/>
<path d="M253.388 332.1C253.834 332.367 254.191 333.049 254.191 333.643V339.934C254.191 340.557 253.834 340.824 253.388 340.557L251.039 339.192C250.593 338.925 250.236 338.242 250.236 337.649V331.358C250.236 330.764 250.593 330.467 251.039 330.735L253.388 332.1ZM253.388 339.489V333.198L251.039 331.833V338.124L253.388 339.489Z" fill="white"/>
<path d="M259.126 335.394C259.572 335.661 259.929 336.343 259.929 336.937V343.228C259.929 343.851 259.572 344.118 259.126 343.851L256.777 342.486C256.331 342.219 255.975 341.536 255.975 340.943V334.652C255.975 334.058 256.331 333.761 256.777 334.028L259.126 335.394ZM259.126 342.783V336.492L256.777 335.126V341.418L259.126 342.783Z" fill="white"/>
<path d="M264.895 338.717C265.341 338.984 265.698 339.667 265.698 340.26V346.552C265.698 347.175 265.341 347.442 264.895 347.175L262.546 345.81C262.1 345.543 261.743 344.86 261.743 344.267V337.975C261.743 337.382 262.1 337.085 262.546 337.352L264.895 338.717ZM264.895 346.106V339.815L262.546 338.45V344.741L264.895 346.106Z" fill="white"/>
<path d="M270.633 342.011C271.079 342.278 271.436 342.961 271.436 343.554V349.846C271.436 350.469 271.079 350.736 270.633 350.469L268.284 349.104C267.838 348.837 267.481 348.154 267.481 347.561V341.269C267.481 340.676 267.838 340.379 268.284 340.646L270.633 342.011ZM270.633 349.4V343.109L268.284 341.744V348.035L270.633 349.4Z" fill="white"/>
<path d="M224.754 315.57C225.2 315.837 225.557 316.52 225.557 317.113V323.405C225.557 324.028 225.2 324.295 224.754 324.028L222.405 322.663C221.959 322.396 221.603 321.713 221.603 321.12V314.828C221.603 314.235 221.959 313.938 222.405 314.205L224.754 315.57ZM224.754 322.989V316.698L222.405 315.333V321.624L224.754 322.989Z" fill="white"/>
<path d="M230.493 318.894C230.939 319.161 231.295 319.844 231.295 320.437V326.728C231.295 327.351 230.939 327.619 230.493 327.351L228.144 325.986C227.698 325.719 227.341 325.037 227.341 324.443V318.152C227.341 317.558 227.698 317.262 228.144 317.529L230.493 318.894ZM230.493 326.283V319.992L228.144 318.627V324.918L230.493 326.283Z" fill="white"/>
<path d="M236.232 322.218C236.678 322.485 237.035 323.167 237.035 323.761V330.052C237.035 330.675 236.678 330.942 236.232 330.675L233.883 329.31C233.437 329.043 233.08 328.36 233.08 327.767V321.476C233.08 320.882 233.437 320.585 233.883 320.853L236.232 322.218ZM236.232 329.607V323.316L233.883 321.951V328.242L236.232 329.607Z" fill="white"/>
<path d="M241.999 325.512C242.445 325.779 242.802 326.461 242.802 327.055V333.346C242.802 333.969 242.445 334.236 241.999 333.969L239.65 332.604C239.204 332.337 238.848 331.654 238.848 331.061V324.77C238.848 324.176 239.204 323.879 239.65 324.146L241.999 325.512ZM241.999 332.901V326.61L239.65 325.244V331.536L241.999 332.901Z" fill="white"/>
<path d="M195.794 298.893C196.24 299.16 196.597 299.842 196.597 300.436V306.727C196.597 307.35 196.24 307.617 195.794 307.35L193.445 305.985C192.999 305.718 192.643 305.035 192.643 304.442V298.151C192.643 297.557 192.999 297.26 193.445 297.527L195.794 298.893ZM195.794 306.282V299.991L193.445 298.625V304.917L195.794 306.282Z" fill="white"/>
<path d="M201.533 302.187C201.979 302.454 202.335 303.136 202.335 303.73V310.021C202.335 310.644 201.979 310.911 201.533 310.644L199.184 309.279C198.738 309.012 198.381 308.329 198.381 307.736V301.445C198.381 300.851 198.738 300.554 199.184 300.821L201.533 302.187ZM201.533 309.605V303.314L199.184 301.949V308.24L201.533 309.605Z" fill="white"/>
<path d="M207.271 305.51C207.717 305.777 208.074 306.46 208.074 307.053V313.345C208.074 313.968 207.717 314.235 207.271 313.968L204.922 312.603C204.476 312.336 204.119 311.653 204.119 311.06V304.768C204.119 304.175 204.476 303.878 204.922 304.145L207.271 305.51ZM207.271 312.899V306.608L204.922 305.243V311.534L207.271 312.899Z" fill="white"/>
<path d="M213.01 308.834C213.456 309.101 213.813 309.783 213.813 310.377V316.668C213.813 317.291 213.456 317.558 213.01 317.291L210.661 315.926C210.215 315.659 209.858 314.977 209.858 314.383V308.092C209.858 307.498 210.215 307.202 210.661 307.469L213.01 308.834ZM213.01 316.223V309.932L210.661 308.567V314.858L213.01 316.223Z" fill="white"/>
<path d="M167.131 282.393C167.577 282.66 167.934 283.343 167.934 283.936V290.227C167.934 290.85 167.577 291.118 167.131 290.85L164.782 289.485C164.336 289.218 163.979 288.536 163.979 287.942V281.651C163.979 281.058 164.336 280.761 164.782 281.028L167.131 282.393ZM167.131 289.782V283.491L164.782 282.126V288.417L167.131 289.782Z" fill="white"/>
<path d="M172.869 285.687C173.315 285.954 173.672 286.636 173.672 287.23V293.521C173.672 294.144 173.315 294.412 172.869 294.144L170.521 292.779C170.075 292.512 169.718 291.83 169.718 291.236V284.945C169.718 284.351 170.075 284.055 170.521 284.322L172.869 285.687ZM172.869 293.076V286.785L170.521 285.42V291.711L172.869 293.076Z" fill="white"/>
<path d="M178.638 289.011C179.084 289.278 179.441 289.96 179.441 290.554V296.845C179.441 297.468 179.084 297.735 178.638 297.468L176.289 296.103C175.843 295.836 175.486 295.153 175.486 294.56V288.269C175.486 287.675 175.843 287.378 176.289 287.646L178.638 289.011ZM178.638 296.4V290.109L176.289 288.744V295.035L178.638 296.4Z" fill="white"/>
<path d="M184.376 292.305C184.822 292.572 185.179 293.254 185.179 293.848V300.139C185.179 300.762 184.822 301.029 184.376 300.762L182.027 299.397C181.581 299.13 181.225 298.447 181.225 297.854V291.563C181.225 290.969 181.581 290.672 182.027 290.939L184.376 292.305ZM184.376 299.694V293.403L182.027 292.037V298.329L184.376 299.694Z" fill="white"/>
<path d="M180.957 278.387V274.232L164.604 264.795V268.98L180.957 278.387Z" fill="#372F6B"/>
<path d="M180.957 273.223V272.986C180.957 270.819 179.411 268.149 177.508 267.08L168.023 261.62C166.12 260.522 164.574 261.412 164.574 263.579V263.816L180.928 273.253L180.957 273.223Z" fill="#372F6B"/>
<path d="M164.604 269.959V270.107C164.604 272.274 166.15 274.944 168.053 276.013L177.538 281.473C179.44 282.571 180.987 281.681 180.987 279.514V279.366L164.633 269.929L164.604 269.959Z" fill="#372F6B"/>
<path d="M194.308 324.74L163.712 307.113V300.673L194.308 318.3V324.74Z" fill="url(#paint19_linear_71_2973)"/>
<path d="M219.611 339.311L201.414 328.835V322.396L219.611 332.871V339.311Z" fill="url(#paint20_linear_71_2973)"/>
<path d="M198.856 191.764L222.881 244.052L265.31 199.628L245.686 181.793L222.881 220.133L212.147 194.345L198.856 191.764Z" fill="white"/>
<path d="M141.026 283.817L65.5327 255.715V311.594C65.2948 313.404 66.2463 315.184 68.4763 316.461L119.528 345.958C123.959 348.51 131.66 348.184 136.774 345.246C139.479 343.703 140.907 341.714 140.996 339.815V283.817H141.026Z" fill="#F8BD58"/>
<path d="M119.528 289.812L68.4763 260.314C64.046 257.762 64.6109 253.311 69.7251 250.373C74.8392 247.435 82.5401 247.109 86.9704 249.661L138.023 279.158C142.453 281.71 141.888 286.162 136.774 289.1C131.66 292.037 123.959 292.364 119.528 289.812Z" fill="#F8BD58"/>
<path d="M108.319 215.385C94.0769 207.195 76.2666 217.463 76.2666 233.873V257.08C76.2666 259.335 79.4183 261.145 83.2837 261.145C87.149 261.145 90.3007 259.305 90.3007 257.08C90.3007 257.08 90.3007 257.02 90.3007 256.991H90.3899V236.871C90.3899 229.926 97.9125 225.564 103.978 229.036C110.995 233.072 115.306 240.521 115.306 248.592V279.455H115.396C115.485 281.681 118.577 283.461 122.413 283.461C126.248 283.461 129.4 281.651 129.43 279.425V251.797C129.43 236.782 121.402 222.923 108.349 215.415L108.319 215.385Z" fill="#58555B"/>
<path d="M107.903 226.069C107.487 225.831 107.041 225.594 106.595 225.416C113.344 229.926 117.477 237.583 117.477 245.773V281.977C118.22 282.423 119.172 282.779 120.213 282.986V247.316C120.213 238.562 115.515 230.431 107.903 226.069Z" fill="white"/>
<path d="M93.6309 222.359C87.2977 222.359 82.0944 227.493 82.0944 233.814V260.492C82.0349 260.7 86.0192 260.374 86.1084 260.018V233.339C86.1084 228.176 89.5575 223.813 94.2553 222.389C94.0472 222.389 93.8093 222.389 93.6012 222.389L93.6309 222.359Z" fill="#58555B"/>
<path d="M100.529 217.403C104.186 217.403 107.665 218.294 110.965 220.015C109.746 219.095 108.438 218.234 107.1 217.463C104.156 215.771 100.975 214.911 97.6744 214.911C88.5463 214.911 78.6748 222.151 78.6748 233.873V233.933C81.4995 223.576 91.3412 217.403 100.529 217.403Z" fill="white"/>
<path d="M123.959 256.011V283.105C125.356 282.927 126.576 282.482 127.468 281.888C127.616 281.592 127.705 281.265 127.705 280.939V253.311C127.705 241.352 123.959 243.844 123.959 256.011Z" fill="#58555B"/>
<path d="M103.799 299.723C103.799 295.332 100.707 290.02 96.8712 287.824C93.0356 285.628 89.9434 287.378 89.9434 291.77C89.9434 294.708 91.3408 298.091 93.4519 300.673V314.532L100.291 318.478V304.62C102.372 304.472 103.799 302.691 103.799 299.753V299.723Z" fill="#946520"/>
<path d="M94.6412 313.997V300.139C92.5599 297.557 91.1327 294.204 91.1327 291.236C91.1327 289.189 91.8166 287.705 92.9464 286.933C91.1327 287.319 89.9434 289.011 89.9434 291.741C89.9434 294.679 91.3408 298.062 93.4519 300.643V314.502L100.291 318.449V317.262L94.6412 313.997Z" fill="#F8BD58"/>
<path d="M66.3945 176.896C66.3945 180.22 68.7435 184.256 71.6276 185.918C74.5117 187.579 76.8607 186.244 76.8607 182.95C76.8607 179.656 74.5117 175.59 71.6276 173.929C68.7435 172.267 66.3945 173.602 66.3945 176.896Z" fill="#F8BD58"/>
<path d="M52.8662 169.062C52.8662 172.385 55.2151 176.421 58.0993 178.083C60.9834 179.745 63.3323 178.41 63.3323 175.116C63.3323 171.822 60.9834 167.756 58.0993 166.094C55.2151 164.432 52.8662 165.768 52.8662 169.062Z" fill="#F8BD58"/>
<path d="M39.3672 161.227C39.3672 164.551 41.7161 168.587 44.6003 170.249C47.4844 171.911 49.8333 170.575 49.8333 167.281C49.8333 163.987 47.4844 159.922 44.6003 158.26C41.7161 156.598 39.3672 157.933 39.3672 161.227Z" fill="#F8BD58"/>
<path d="M25.8682 153.393C25.8682 156.717 28.2171 160.753 31.1012 162.414C33.9854 164.076 36.3343 162.741 36.3343 159.447C36.3343 156.153 33.9854 152.087 31.1012 150.426C28.2171 148.764 25.8682 150.099 25.8682 153.393Z" fill="#F8BD58"/>
<path d="M12.3691 145.559C12.3691 148.882 14.7181 152.918 17.6022 154.58C20.4863 156.242 22.8353 154.907 22.8353 151.613C22.8353 148.319 20.4863 144.253 17.6022 142.591C14.7181 140.929 12.3691 142.265 12.3691 145.559Z" fill="#F8BD58"/>
</g>
<defs>
<linearGradient id="paint0_linear_71_2973" x1="233.804" y1="0" x2="233.804" y2="397" gradientUnits="userSpaceOnUse">
<stop stop-color="#F8BD58"/>
<stop offset="0.41" stop-color="#8D5393"/>
<stop offset="0.8" stop-color="#6F6EA3"/>
<stop offset="1" stop-color="#09CAD7"/>
</linearGradient>
<linearGradient id="paint1_linear_71_2973" x1="377.524" y1="244.735" x2="377.524" y2="206.038" gradientUnits="userSpaceOnUse">
<stop offset="0.2" stop-color="#6F6EA3"/>
<stop offset="0.59" stop-color="#8D5393"/>
<stop offset="1" stop-color="#F8BD58"/>
</linearGradient>
<linearGradient id="paint2_linear_71_2973" x1="365.337" y1="258.741" x2="365.337" y2="192.013" gradientUnits="userSpaceOnUse">
<stop offset="0.2" stop-color="#6F6EA3"/>
<stop offset="0.59" stop-color="#8D5393"/>
<stop offset="1" stop-color="#F8BD58"/>
</linearGradient>
<linearGradient id="paint3_linear_71_2973" x1="384.657" y1="215.029" x2="384.657" y2="192.322" gradientUnits="userSpaceOnUse">
<stop offset="0.2" stop-color="#6F6EA3"/>
<stop offset="0.59" stop-color="#8D5393"/>
<stop offset="1" stop-color="#F8BD58"/>
</linearGradient>
<linearGradient id="paint4_linear_71_2973" x1="388.091" y1="250.017" x2="388.091" y2="229.287" gradientUnits="userSpaceOnUse">
<stop offset="0.2" stop-color="#6F6EA3"/>
<stop offset="0.59" stop-color="#8D5393"/>
<stop offset="1" stop-color="#F8BD58"/>
</linearGradient>
<linearGradient id="paint5_linear_71_2973" x1="378.743" y1="239.897" x2="378.743" y2="197.896" gradientUnits="userSpaceOnUse">
<stop offset="0.2" stop-color="#6F6EA3"/>
<stop offset="0.59" stop-color="#8D5393"/>
<stop offset="1" stop-color="#F8BD58"/>
</linearGradient>
<linearGradient id="paint6_linear_71_2973" x1="369.177" y1="264.113" x2="369.177" y2="222.859" gradientUnits="userSpaceOnUse">
<stop offset="0.2" stop-color="#6F6EA3"/>
<stop offset="0.59" stop-color="#8D5393"/>
<stop offset="1" stop-color="#F8BD58"/>
</linearGradient>
<linearGradient id="paint7_linear_71_2973" x1="399.371" y1="251.115" x2="399.371" y2="183.738" gradientUnits="userSpaceOnUse">
<stop offset="0.2" stop-color="#6F6EA3"/>
<stop offset="0.59" stop-color="#8D5393"/>
<stop offset="1" stop-color="#F8BD58"/>
</linearGradient>
<linearGradient id="paint8_linear_71_2973" x1="364.549" y1="191.853" x2="364.549" y2="169.173" gradientUnits="userSpaceOnUse">
<stop offset="0.2" stop-color="#6F6EA3"/>
<stop offset="0.59" stop-color="#8D5393"/>
<stop offset="1" stop-color="#F8BD58"/>
</linearGradient>
<linearGradient id="paint9_linear_71_2973" x1="347.622" y1="239.245" x2="347.622" y2="196.897" gradientUnits="userSpaceOnUse">
<stop offset="0.2" stop-color="#6F6EA3"/>
<stop offset="0.59" stop-color="#8D5393"/>
<stop offset="1" stop-color="#F8BD58"/>
</linearGradient>
<linearGradient id="paint10_linear_71_2973" x1="376.632" y1="262.154" x2="376.632" y2="162.019" gradientUnits="userSpaceOnUse">
<stop offset="0.2" stop-color="#6F6EA3"/>
<stop offset="0.59" stop-color="#8D5393"/>
<stop offset="1" stop-color="#F8BD58"/>
</linearGradient>
<linearGradient id="paint11_linear_71_2973" x1="378.803" y1="247.435" x2="378.803" y2="183.544" gradientUnits="userSpaceOnUse">
<stop offset="0.2" stop-color="#6F6EA3"/>
<stop offset="0.59" stop-color="#8D5393"/>
<stop offset="1" stop-color="#F8BD58"/>
</linearGradient>
<linearGradient id="paint12_linear_71_2973" x1="358.346" y1="252.955" x2="358.346" y2="206.927" gradientUnits="userSpaceOnUse">
<stop offset="0.2" stop-color="#6F6EA3"/>
<stop offset="0.59" stop-color="#8D5393"/>
<stop offset="1" stop-color="#F8BD58"/>
</linearGradient>
<linearGradient id="paint13_linear_71_2973" x1="351.808" y1="246.1" x2="351.808" y2="223.737" gradientUnits="userSpaceOnUse">
<stop offset="0.2" stop-color="#6F6EA3"/>
<stop offset="0.59" stop-color="#8D5393"/>
<stop offset="1" stop-color="#F8BD58"/>
</linearGradient>
<linearGradient id="paint14_linear_71_2973" x1="356.754" y1="220.252" x2="356.754" y2="181.199" gradientUnits="userSpaceOnUse">
<stop offset="0.2" stop-color="#6F6EA3"/>
<stop offset="0.59" stop-color="#8D5393"/>
<stop offset="1" stop-color="#F8BD58"/>
</linearGradient>
<linearGradient id="paint15_linear_71_2973" x1="381.951" y1="206.334" x2="381.951" y2="176.341" gradientUnits="userSpaceOnUse">
<stop offset="0.2" stop-color="#6F6EA3"/>
<stop offset="0.59" stop-color="#8D5393"/>
<stop offset="1" stop-color="#F8BD58"/>
</linearGradient>
<linearGradient id="paint16_linear_71_2973" x1="400.543" y1="253.162" x2="400.543" y2="218.917" gradientUnits="userSpaceOnUse">
<stop offset="0.2" stop-color="#6F6EA3"/>
<stop offset="0.59" stop-color="#8D5393"/>
<stop offset="1" stop-color="#F8BD58"/>
</linearGradient>
<linearGradient id="paint17_linear_71_2973" x1="218.792" y1="233.025" x2="218.792" y2="384.655" gradientUnits="userSpaceOnUse">
<stop stop-color="#F8BD58"/>
<stop offset="0.41" stop-color="#8D5393"/>
<stop offset="0.8" stop-color="#6F6EA3"/>
<stop offset="1" stop-color="#09CAD7"/>
</linearGradient>
<linearGradient id="paint18_linear_71_2973" x1="216.459" y1="234.054" x2="216.459" y2="385.394" gradientUnits="userSpaceOnUse">
<stop stop-color="#F8BD58"/>
<stop offset="0.41" stop-color="#8D5393"/>
<stop offset="0.8" stop-color="#6F6EA3"/>
<stop offset="1" stop-color="#09CAD7"/>
</linearGradient>
<linearGradient id="paint19_linear_71_2973" x1="179.01" y1="300.673" x2="179.01" y2="324.74" gradientUnits="userSpaceOnUse">
<stop stop-color="#AD43B9"/>
<stop offset="1" stop-color="#666666"/>
</linearGradient>
<linearGradient id="paint20_linear_71_2973" x1="210.512" y1="322.396" x2="210.512" y2="339.311" gradientUnits="userSpaceOnUse">
<stop stop-color="#AD43B9"/>
<stop offset="1" stop-color="#666666"/>
</linearGradient>
<clipPath id="clip0_71_2973">
<rect width="446" height="397" fill="white"/>
</clipPath>
</defs>
</svg>
