<svg width="42" height="43" viewBox="0 0 42 43" fill="none" xmlns="http://www.w3.org/2000/svg">
<path d="M28 19.5833C28 21.9039 27.0781 24.1295 25.4372 25.7704C23.7962 27.4114 21.5706 28.3333 19.25 28.3333C16.9294 28.3333 14.7038 27.4114 13.0628 25.7704C11.4219 24.1295 10.5 21.9039 10.5 19.5833C10.5 17.2626 11.4219 15.037 13.0628 13.3961C14.7038 11.7551 16.9294 10.8333 19.25 10.8333C21.5706 10.8333 23.7962 11.7551 25.4372 13.3961C27.0781 15.037 28 17.2626 28 19.5833Z" fill="url(#paint0_linear_20_174)"/>
<path fill-rule="evenodd" clip-rule="evenodd" d="M3.5 19.5833C3.50027 17.0674 4.10323 14.5882 5.25839 12.3533C6.41355 10.1183 8.0873 8.19259 10.1395 6.73732C12.1918 5.28205 14.5628 4.33958 17.054 3.9888C19.5453 3.63803 22.0844 3.88915 24.4586 4.72116C26.8329 5.55317 28.9734 6.94184 30.7007 8.77094C32.4281 10.6 33.6922 12.8163 34.3872 15.2343C35.0821 17.6522 35.1878 20.2015 34.6952 22.6686C34.2026 25.1358 33.1262 27.449 31.556 29.4148L37.9873 35.846C38.306 36.1761 38.4824 36.6181 38.4784 37.077C38.4744 37.5358 38.2904 37.9747 37.9659 38.2992C37.6415 38.6237 37.2025 38.8077 36.7437 38.8117C36.2849 38.8157 35.8428 38.6393 35.5128 38.3205L29.0815 31.8893C26.7643 33.7407 23.9713 34.9003 21.0241 35.2344C18.0769 35.5685 15.0953 35.0636 12.4224 33.7778C9.74948 32.492 7.49399 30.4776 5.91551 27.9664C4.33704 25.4552 3.49974 22.5493 3.5 19.5833ZM19.25 7.33326C17.6413 7.33326 16.0484 7.65011 14.5621 8.26573C13.0759 8.88135 11.7255 9.78368 10.5879 10.9212C9.45042 12.0587 8.5481 13.4091 7.93248 14.8954C7.31686 16.3816 7 17.9746 7 19.5833C7 21.192 7.31686 22.7849 7.93248 24.2711C8.5481 25.7574 9.45042 27.1078 10.5879 28.2453C11.7255 29.3828 13.0759 30.2852 14.5621 30.9008C16.0484 31.5164 17.6413 31.8333 19.25 31.8333C22.4989 31.8333 25.6147 30.5426 27.9121 28.2453C30.2094 25.948 31.5 22.8322 31.5 19.5833C31.5 16.3344 30.2094 13.2185 27.9121 10.9212C25.6147 8.62388 22.4989 7.33326 19.25 7.33326Z" fill="url(#paint1_linear_20_174)"/>
<defs>
<linearGradient id="paint0_linear_20_174" x1="19.25" y1="10.8333" x2="19.25" y2="28.3333" gradientUnits="userSpaceOnUse">
<stop stop-color="#78F7D8"/>
<stop offset="1" stop-color="#46917F"/>
</linearGradient>
<linearGradient id="paint1_linear_20_174" x1="20.9893" y1="3.83496" x2="20.9893" y2="38.8118" gradientUnits="userSpaceOnUse">
<stop stop-color="#78F7D8"/>
<stop offset="1" stop-color="#46917F"/>
</linearGradient>
</defs>
</svg>
