<svg width="53" height="54" viewBox="0 0 53 54" fill="none" xmlns="http://www.w3.org/2000/svg">
<path d="M26.4998 6.52466C15.2183 6.52466 6.07275 15.6702 6.07275 26.9517C6.07275 38.2333 15.2183 47.3788 26.4998 47.3788C37.7814 47.3788 46.9269 38.2333 46.9269 26.9517C46.9269 24.8139 46.5991 22.7557 45.992 20.823C45.7179 19.9503 46.2032 19.0207 47.0759 18.7466C47.9486 18.4725 48.8782 18.9578 49.1523 19.8304C49.8591 22.0806 50.2394 24.4733 50.2394 26.9517C50.2394 40.0628 39.6108 50.6913 26.4998 50.6913C13.3888 50.6913 2.76025 40.0628 2.76025 26.9517C2.76025 13.8407 13.3888 3.21216 26.4998 3.21216C29.0931 3.21216 31.5924 3.62858 33.9327 4.39948C34.8015 4.68566 35.2738 5.62197 34.9876 6.49077C34.7014 7.35956 33.7651 7.83186 32.8963 7.54567C30.8863 6.88357 28.7366 6.52466 26.4998 6.52466Z" fill="#1CBDE2"/>
<path d="M26.4998 17.5663C21.3164 17.5663 17.1144 21.7683 17.1144 26.9517C17.1144 32.1352 21.3164 36.3372 26.4998 36.3372C31.6833 36.3372 35.8853 32.1352 35.8853 26.9517C35.8853 26.037 36.6268 25.2955 37.5415 25.2955C38.4562 25.2955 39.1978 26.037 39.1978 26.9517C39.1978 33.9646 33.5127 39.6497 26.4998 39.6497C19.487 39.6497 13.8019 33.9646 13.8019 26.9517C13.8019 19.9389 19.487 14.2538 26.4998 14.2538C27.4146 14.2538 28.1561 14.9954 28.1561 15.9101C28.1561 16.8248 27.4146 17.5663 26.4998 17.5663Z" fill="#1CBDE2"/>
<path d="M44.7186 4.86841C44.7186 3.95369 43.9771 3.21216 43.0623 3.21216C42.1476 3.21216 41.4061 3.95369 41.4061 4.86841V9.7032L25.3287 25.7806C24.6819 26.4274 24.6819 27.4761 25.3287 28.1229C25.9755 28.7697 27.0242 28.7697 27.671 28.1229L43.7484 12.0455H48.5832C49.4979 12.0455 50.2394 11.304 50.2394 10.3892C50.2394 9.47452 49.4979 8.73299 48.5832 8.73299H44.7186V4.86841Z" fill="#1CBDE2"/>
</svg>
