<svg width="53" height="54" viewBox="0 0 53 54" fill="none" xmlns="http://www.w3.org/2000/svg">
<path fill-rule="evenodd" clip-rule="evenodd" d="M26.4998 35.233C21.9262 35.233 18.2186 31.5253 18.2186 26.9517C18.2186 22.3781 21.9262 18.6705 26.4998 18.6705C31.0734 18.6705 34.7811 22.3781 34.7811 26.9517C34.7811 31.5253 31.0734 35.233 26.4998 35.233ZM21.5311 26.9517C21.5311 29.6959 23.7557 31.9205 26.4998 31.9205C29.244 31.9205 31.4686 29.6959 31.4686 26.9517C31.4686 24.2076 29.244 21.983 26.4998 21.983C23.7557 21.983 21.5311 24.2076 21.5311 26.9517Z" fill="#F8BD58"/>
<path fill-rule="evenodd" clip-rule="evenodd" d="M26.4998 9.83716C20.8232 9.83716 15.9571 12.3357 12.1905 15.2762C8.4205 18.2195 5.63388 21.6953 4.07512 23.8811L3.95759 24.045C3.39854 24.8225 2.76025 25.7102 2.76025 26.9517C2.76025 28.1933 3.39854 29.081 3.95759 29.8585L4.07512 30.0224C5.63388 32.2082 8.4205 35.684 12.1905 38.6272C15.9571 41.5678 20.8232 44.0663 26.4998 44.0663C32.1765 44.0663 37.0425 41.5678 40.8092 38.6272C44.5792 35.684 47.3658 32.2081 48.9246 30.0224L49.0421 29.8585C49.6011 29.081 50.2394 28.1933 50.2394 26.9517C50.2394 25.7102 49.6011 24.8225 49.0421 24.045L48.9246 23.8811C47.3658 21.6953 44.5792 18.2195 40.8092 15.2762C37.0425 12.3357 32.1765 9.83716 26.4998 9.83716ZM6.77207 25.8044C8.23001 23.76 10.8038 20.5612 14.2289 17.8873C17.6574 15.2107 21.8211 13.1497 26.4998 13.1497C31.1785 13.1497 35.3423 15.2107 38.7708 17.8873C42.1958 20.5612 44.7697 23.76 46.2276 25.8044C46.5883 26.3102 46.7599 26.5571 46.8623 26.7537C46.9273 26.8787 46.9271 26.9129 46.9269 26.9465L46.9269 26.9517L46.9269 26.957C46.9271 26.9906 46.9273 27.0248 46.8623 27.1498C46.7599 27.3464 46.5883 27.5933 46.2276 28.0991C44.7697 30.1435 42.1958 33.3423 38.7708 36.0162C35.3423 38.6928 31.1785 40.7538 26.4998 40.7538C21.8211 40.7538 17.6574 38.6928 14.2289 36.0162C10.8038 33.3423 8.23002 30.1435 6.77207 28.0991C6.4114 27.5933 6.23975 27.3464 6.13742 27.1498C6.07237 27.0248 6.07256 26.9906 6.07273 26.957L6.07275 26.9517L6.07273 26.9465C6.07256 26.9129 6.07237 26.8787 6.13742 26.7537C6.23975 26.5571 6.4114 26.3102 6.77207 25.8044Z" fill="#F8BD58"/>
</svg>
