<svg width="154" height="48" viewBox="0 0 154 48" fill="none" xmlns="http://www.w3.org/2000/svg">
<g clip-path="url(#clip0_121_339)">
<path d="M59.1734 19.4085C59.1734 19.4085 59.1892 19.4085 59.1892 19.4192V33.8512C59.1892 38.8597 60.8014 41.265 65.6434 41.265C70.4853 41.265 72.0976 38.8597 72.0976 33.8512V23.9145C72.4506 22.4339 72.5296 23.3051 73.067 23.3051H80.2957C80.2957 23.3051 80.3063 23.3051 80.3063 23.3158V35.6793C80.3063 42.2272 75.8911 48 65.6434 48C55.3957 48 50.9805 42.1256 50.9805 35.6793V23.5777C50.9805 23.5777 50.9805 23.5671 50.9857 23.5671L59.1734 19.4085Z" fill="#EAEAEA"/>
<path d="M116.081 16.9176V41.1581L110.406 41.0779C108.999 41.0566 107.872 39.8967 107.872 38.4695V34.2307H94.9635L94.8528 47.8984C94.8528 47.9519 94.8054 48 94.7527 48L86.6547 46.2254C86.5967 46.2254 86.6547 46.2842 86.6547 46.2254L86.7548 23.984L94.9635 23.9733V27.4904H107.872V14.2129C107.872 14.1541 107.919 14.1114 107.972 14.1114" fill="#EAEAEA"/>
<path d="M122.277 41.388C125.444 32.5844 128.679 22.9149 131.851 14.1114H141.556L153.995 48L145.397 47.9519L143.168 41.4521H129.928M140.844 34.7118L136.619 22.5835L132.298 34.7118H140.839H140.844Z" fill="#EAEAEA"/>
<path d="M72.0977 23.9091C72.2557 23.0967 73.1725 18.1684 77.1293 15.5759C79.8954 13.7639 82.6457 13.7746 83.71 13.8334C84.5635 13.7906 87.8828 13.7212 90.9281 16.212C94.2738 18.9488 94.9851 23.0539 94.9693 24.155H86.7606C86.7553 24.0214 86.5551 20.4828 84.6004 19.6436C84.3264 19.5261 83.9471 19.4191 83.4518 19.4298C82.9671 19.4459 82.593 19.5742 82.3295 19.6971C80.5434 20.5523 80.3222 23.9412 80.3064 24.155C77.5719 24.155 74.8321 23.9091 72.0977 23.9091Z" fill="#EAEAEA"/>
<path d="M108.083 38.7902C107.983 38.7902 107.909 38.8811 107.93 38.9773C108.178 40.0998 109.216 43.9323 112.92 46.2895C115.681 48.0481 118.431 48.0374 119.495 47.9786C119.495 47.9786 119.501 47.9786 119.506 47.9786C120.37 48.0214 123.679 48.0855 126.719 45.6695C129.854 43.1786 130.565 39.7523 130.733 38.694C130.749 38.5978 130.676 38.5122 130.581 38.5122H123.431C123.363 38.5122 123.305 38.555 123.283 38.6191C123.115 39.1697 122.156 41.6018 120.391 42.3394C120.117 42.4517 119.738 42.5586 119.242 42.5479C118.758 42.5318 118.384 42.4089 118.12 42.286C116.524 41.543 116.181 39.5011 116.113 38.9292C116.102 38.849 116.039 38.7902 115.96 38.7902H108.078H108.083Z" fill="#EAEAEA"/>
<path d="M16.1752 7.65434C16.8971 7.61158 19.1573 7.46192 20.9118 5.97595C23.5093 3.77906 23.288 0.507795 23.2986 0H24.1943C24.1943 0.486414 24.11 3.57595 26.3913 5.78352C28.4883 7.8147 31.1332 7.649 31.6759 7.649V8.34922C31.0542 8.35991 28.1774 8.17817 26.1437 10.0543C23.7411 12.2673 24.1468 15.5225 24.1363 16.0303H23.3302C23.3144 15.4851 23.7833 12.5024 21.5019 10.3323C19.6157 8.5363 16.8338 8.45612 16.1805 8.41336C15.6378 8.40802 12.8717 8.4294 10.6536 10.637C8.04557 13.2294 8.34589 16.6824 8.39331 17.1207C8.50395 17.7996 8.69363 20.1247 10.4587 21.8298C12.0182 23.3372 13.9887 23.4494 14.6842 23.5777H32.0394C32.7612 23.4922 35.5747 23.5777 37.3503 21.894C39.6159 19.7506 39.0416 16.5595 39.0784 15.9448C39.384 15.9608 39.6896 15.9822 39.9899 15.9982C40.0163 16.5595 39.5895 19.7506 41.8603 21.894C43.8519 23.7755 46.7708 23.5457 47.4083 23.5777V24.3421C46.6602 24.4116 43.736 23.9359 41.8445 25.5394C39.8266 27.2499 39.932 30.0722 39.9373 30.8846C39.8793 31.3817 40.4272 35.3586 37.345 38.2824C34.6369 40.8481 31.2754 40.5862 30.7486 40.5327C30.248 40.5702 27.8244 40.816 25.954 42.9381C24.1047 45.0441 24.1258 47.4869 24.1416 48H23.3355C23.3144 47.4441 23.1616 44.6806 20.9118 42.5212C18.9044 40.5915 16.544 40.3991 15.9171 40.3724C15.9013 40.0837 15.8802 39.7898 15.8644 39.5011C16.3386 39.5011 19.4419 39.437 21.6178 36.8552C23.2353 34.931 23.3723 32.7608 23.3881 32.0873C23.6727 32.0713 23.9624 32.0499 24.2469 32.0339C24.2469 32.6058 24.3154 35.1555 26.2965 37.2989C28.0931 39.2392 30.2955 39.5866 30.9119 39.6668C31.2754 39.6935 35.0004 39.886 37.4399 36.8552C39.4525 34.3537 39.1417 31.4619 39.0784 30.9434C38.952 30.2272 38.8519 27.5171 37.2976 25.9136C35.3693 23.9252 32.6875 24.5131 32.0394 24.4543C26.2333 24.4918 20.4324 24.5292 14.6262 24.5612C14.0467 24.6521 11.7653 24.6254 10.053 26.6566C8.30374 28.7252 8.33535 31.5047 8.34062 32.0873H7.48182C7.49762 31.6169 7.83482 28.506 5.64302 26.2771C3.48284 24.0748 0.47966 24.3955 0.0107422 24.4009V23.6365C0.611379 23.6205 3.63037 23.7808 5.73786 21.6428C7.30795 20.0552 7.3501 17.9278 7.48182 17.2009C7.42913 16.7786 7.00763 12.7911 10.0108 9.91537C12.524 7.51537 15.622 7.62227 16.1858 7.65434H16.1752Z" fill="#EAEAEA"/>
<path d="M40.6427 16.0944C40.6691 16.5595 40.2897 19.8788 42.7555 21.7657C44.3466 22.9844 46.6438 22.7118 47.3287 22.7439" stroke="#EAEAEA" stroke-miterlimit="10"/>
<path d="M41.613 16.0944C41.6341 16.506 41.3285 19.2909 43.436 20.9586C44.7954 22.0329 46.7448 21.7924 47.3296 21.8245" fill="#EAEAEA"/>
<path d="M45.817 17.976L43.6357 20.1942" stroke="#EAEAEA" stroke-width="0.75" stroke-miterlimit="10"/>
<path d="M46.275 17.9706C46.5223 17.9706 46.7228 17.7672 46.7228 17.5163C46.7228 17.2653 46.5223 17.0619 46.275 17.0619C46.0277 17.0619 45.8271 17.2653 45.8271 17.5163C45.8271 17.7672 46.0277 17.9706 46.275 17.9706Z" fill="#EAEAEA"/>
</g>
<defs>
<clipPath id="clip0_121_339">
<rect width="154" height="48" fill="white"/>
</clipPath>
</defs>
</svg>
